<svg width="24" height="24" viewBox="0 0 24 24" fill="none" xmlns="http://www.w3.org/2000/svg">
    <path fill-rule="evenodd" clip-rule="evenodd" d="M8.77402 10.0799H7.63602V14.2339H2.78702V9.05091C2.78702 8.66791 2.48002 8.35791 2.10002 8.35791C1.72102 8.35791 1.41302 8.66891 1.41302 9.05091V19.6289H2.78803V16.2959H18.704V19.6289H20.078V16.2959C20.078 16.2959 20.078 15.9049 20.078 13.7349C20.078 10.9599 12.745 10.0799 8.77402 10.0799Z" fill="white"/>
    <path fill-rule="evenodd" clip-rule="evenodd" d="M3.23798 11.7979C3.23798 12.3294 3.44711 12.8392 3.81937 13.215C4.19163 13.5908 4.69652 13.8019 5.22298 13.8019C5.74943 13.8019 6.25432 13.5908 6.62658 13.215C6.99884 12.8392 7.20798 12.3294 7.20798 11.7979C7.20798 11.2665 6.99884 10.7567 6.62658 10.3809C6.25432 10.0051 5.74943 9.79395 5.22298 9.79395C4.69652 9.79395 4.19163 10.0051 3.81937 10.3809C3.44711 10.7567 3.23798 11.2665 3.23798 11.7979V11.7979Z" fill="white"/>
    <path fill-rule="evenodd" clip-rule="evenodd" d="M15.434 7.48188C15.823 7.64488 16.249 7.73588 16.696 7.73588C18.523 7.73588 20.004 6.24088 20.004 4.39688C20.004 2.55288 18.523 1.05788 16.696 1.05688C16.249 1.05688 15.823 1.14788 15.434 1.30988C16.634 1.81088 17.48 3.00388 17.48 4.39588C17.48 5.78888 16.634 6.98188 15.434 7.48188Z" fill="white"/>
    <path fill-rule="evenodd" clip-rule="evenodd" d="M7.809 1.302L8.059 1.813L8.618 1.895L8.214 2.293L8.309 2.855L7.809 2.59L7.309 2.855L7.404 2.293L7 1.895L7.559 1.813L7.809 1.302Z" fill="white"/>
    <path fill-rule="evenodd" clip-rule="evenodd" d="M4.86298 4.92993L5.11298 5.44093L5.67198 5.52293L5.26698 5.92093L5.36198 6.48293L4.86198 6.21793L4.36198 6.48293L4.45698 5.92093L4.05298 5.52293L4.61198 5.44093L4.86298 4.92993Z" fill="white"/>
    <path fill-rule="evenodd" clip-rule="evenodd" d="M12.14 1.97607L12.39 2.48707L12.949 2.56907L12.544 2.96707L12.639 3.52907L12.139 3.26407L11.639 3.52907L11.734 2.96707L11.329 2.56907L11.888 2.48707L12.14 1.97607Z" fill="white"/>
</svg>
