<svg id="vector" xmlns="http://www.w3.org/2000/svg" width="24" height="24" viewBox="0 0 48 48"><path fill="#8d8d8d" d="M24,24m-24,0a24,24 0,1 1,48 0a24,24 0,1 1,-48 0" stroke="#00000000" stroke-width="1" id="path_0"/><path fill="#ffffff" d="M32.49,16.01L35.67,12.83L35.67,21.32L27.18,21.32L30.36,18.14C26.85,14.63 21.15,14.63 17.64,18.14C16.56,19.21 15.81,20.49 15.41,21.85L12.31,21.85C12.79,19.72 13.85,17.68 15.51,16.01C20.2,11.33 27.8,11.33 32.49,16.01L32.49,16.01ZM17.64,30.86C21.15,34.37 26.85,34.37 30.36,30.86C31.44,29.79 32.19,28.51 32.59,27.15L35.69,27.15C35.21,29.28 34.15,31.32 32.49,32.99C27.8,37.67 20.2,37.67 15.51,32.99L12.33,36.17L12.33,27.68L20.82,27.68L17.64,30.86L17.64,30.86Z" stroke="#00000000" stroke-width="1" id="path_1"/></svg>