<svg id="vector" xmlns="http://www.w3.org/2000/svg" width="24" height="24" viewBox="0 0 24 24"><path fill="#efefef" d="M8.774,10.08L7.636,10.08L7.636,14.234L2.787,14.234L2.787,9.051C2.787,8.668 2.48,8.358 2.1,8.358C1.721,8.358 1.413,8.669 1.413,9.051L1.413,19.629L2.788,19.629L2.788,16.296L18.704,16.296L18.704,19.629L20.078,19.629L20.078,16.296C20.078,16.296 20.078,15.905 20.078,13.735C20.078,10.96 12.745,10.08 8.774,10.08Z" stroke="#00000000" stroke-width="1" fill-rule="evenodd" id="path_0"/><path fill="#efefef" d="M3.238,11.798a1.985,2.004 0,1 0,3.97 0a1.985,2.004 0,1 0,-3.97 0z" stroke="#00000000" stroke-width="1" fill-rule="evenodd" id="path_1"/><path fill="#efefef" d="M15.434,7.482C15.823,7.645 16.249,7.736 16.696,7.736C18.523,7.736 20.004,6.241 20.004,4.397C20.004,2.553 18.523,1.058 16.696,1.057C16.249,1.057 15.823,1.148 15.434,1.31C16.634,1.811 17.48,3.004 17.48,4.396C17.48,5.789 16.634,6.982 15.434,7.482Z" stroke="#00000000" stroke-width="1" fill-rule="evenodd" id="path_2"/><path fill="#efefef" d="M7.809,1.302l0.25,0.511l0.559,0.082l-0.404,0.398l0.095,0.562l-0.5,-0.265l-0.5,0.265l0.095,-0.562l-0.404,-0.398l0.559,-0.082z" stroke="#00000000" stroke-width="1" fill-rule="evenodd" id="path_3"/><path fill="#efefef" d="M4.863,4.93l0.25,0.511l0.559,0.082l-0.405,0.398l0.095,0.562l-0.5,-0.265l-0.5,0.265l0.095,-0.562l-0.404,-0.398l0.559,-0.082z" stroke="#00000000" stroke-width="1" fill-rule="evenodd" id="path_4"/><path fill="#efefef" d="M12.14,1.976l0.25,0.511l0.559,0.082l-0.405,0.398l0.095,0.562l-0.5,-0.265l-0.5,0.265l0.095,-0.562l-0.405,-0.398l0.559,-0.082z" stroke="#00000000" stroke-width="1" fill-rule="evenodd" id="path_5"/></svg>