<svg width="32" height="32" viewBox="0 0 32 32" fill="none" xmlns="http://www.w3.org/2000/svg">
<path d="M20.3535 20.146C20.3999 20.1925 20.4368 20.2476 20.4619 20.3083C20.4871 20.369 20.5 20.4341 20.5 20.4997C20.5 20.5654 20.4871 20.6305 20.4619 20.6912C20.4368 20.7519 20.3999 20.807 20.3535 20.8535C20.307 20.8999 20.2519 20.9368 20.1912 20.9619C20.1305 20.9871 20.0654 21 19.9997 21C19.9341 21 19.869 20.9871 19.8083 20.9619C19.7476 20.9368 19.6925 20.8999 19.646 20.8535L15.5 16.7068L11.354 20.8535C11.2602 20.9473 11.1329 21 11.0003 21C10.8676 21 10.7403 20.9473 10.6465 20.8535C10.5527 20.7597 10.5 20.6324 10.5 20.4997C10.5 20.3671 10.5527 20.2398 10.6465 20.146L14.7932 16L10.6465 11.854C10.5527 11.7602 10.5 11.6329 10.5 11.5003C10.5 11.3676 10.5527 11.2403 10.6465 11.1465C10.7403 11.0527 10.8676 11 11.0003 11C11.1329 11 11.2602 11.0527 11.354 11.1465L15.5 15.2932L19.646 11.1465C19.7398 11.0527 19.8671 11 19.9997 11C20.1324 11 20.2597 11.0527 20.3535 11.1465C20.4473 11.2403 20.5 11.3676 20.5 11.5003C20.5 11.6329 20.4473 11.7602 20.3535 11.854L16.2068 16L20.3535 20.146Z" fill="white" fill-opacity="0.5"/>
<rect x="0.5" y="0.5" width="31" height="31" rx="15.5" stroke="white" stroke-opacity="0.5"/>
</svg>
