<svg width="32" height="32" viewBox="0 0 32 32" fill="none" xmlns="http://www.w3.org/2000/svg">
    <defs>
        <filter id="filter0_d_14_1414" x="3" y="8" width="26" height="23" filterUnits="userSpaceOnUse" color-interpolation-filters="sRGB">
            <feFlood flood-opacity="0" result="BackgroundImageFix"/>
            <feColorMatrix in="SourceAlpha" type="matrix" values="0 0 0 0 0 0 0 0 0 0 0 0 0 0 0 0 0 0 127 0" result="hardAlpha"/>
            <feOffset dy="4"/>
            <feGaussianBlur stdDeviation="2"/>
            <feComposite in2="hardAlpha" operator="out"/>
            <feColorMatrix type="matrix" values="0 0 0 0 0.554167 0 0 0 0 0.554167 0 0 0 0 0.554167 0 0 0 0.25 0"/>
            <feBlend mode="normal" in2="BackgroundImageFix" result="effect1_dropShadow_14_1414"/>
            <feBlend mode="normal" in="SourceGraphic" in2="effect1_dropShadow_14_1414" result="shape"/>
        </filter>
        <linearGradient id="paint0_linear_14_1414" x1="18" y1="1.19209e-07" x2="16" y2="32" gradientUnits="userSpaceOnUse">
            <stop stop-color="#FFE144"/>
            <stop offset="1" stop-color="#DEAA21"/>
        </linearGradient>
        <linearGradient id="paint1_linear_14_1414" x1="22.4286" y1="3" x2="16.3224" y2="23.098" gradientUnits="userSpaceOnUse">
            <stop stop-color="#E7E7E7"/>
            <stop offset="1" stop-color="#E7E7E7" stop-opacity="0"/>
        </linearGradient>
        <linearGradient id="paint2_linear_14_1414" x1="21" y1="1" x2="15" y2="27" gradientUnits="userSpaceOnUse">
            <stop stop-color="white" stop-opacity="0.5"/>
            <stop offset="1" stop-color="white" stop-opacity="0"/>
        </linearGradient>
    </defs>
    <rect x="0.5" y="0.5" width="31" height="31" rx="15.5" fill="url(#paint0_linear_14_1414)"/>
<g filter="url(#filter0_d_14_1414)">
<path d="M21.85 21.125H10.15C9.9025 21.125 9.7 21.3359 9.7 21.5938V22.5312C9.7 22.7891 9.9025 23 10.15 23H21.85C22.0975 23 22.3 22.7891 22.3 22.5312V21.5938C22.3 21.3359 22.0975 21.125 21.85 21.125ZM23.65 11.75C22.9047 11.75 22.3 12.3799 22.3 13.1562C22.3 13.3643 22.345 13.5576 22.4237 13.7363L20.3875 15.0078C19.9544 15.2773 19.3947 15.125 19.1444 14.668L16.8522 10.4902C17.1531 10.2324 17.35 9.8457 17.35 9.40625C17.35 8.62988 16.7453 8 16 8C15.2547 8 14.65 8.62988 14.65 9.40625C14.65 9.8457 14.8469 10.2324 15.1478 10.4902L12.8556 14.668C12.6053 15.125 12.0428 15.2773 11.6125 15.0078L9.57906 13.7363C9.655 13.5605 9.70281 13.3643 9.70281 13.1562C9.70281 12.3799 9.09812 11.75 8.35281 11.75C7.6075 11.75 7 12.3799 7 13.1562C7 13.9326 7.60469 14.5625 8.35 14.5625C8.42312 14.5625 8.49625 14.5508 8.56656 14.5391L10.6 20.1875H21.4L23.4334 14.5391C23.5037 14.5508 23.5769 14.5625 23.65 14.5625C24.3953 14.5625 25 13.9326 25 13.1562C25 12.3799 24.3953 11.75 23.65 11.75Z" fill="white"/>
<path d="M22.5818 13.785L22.49 13.8424L20.4537 15.1138L20.4535 15.1139C19.9575 15.4226 19.3184 15.2459 19.0348 14.7281L22.5818 13.785ZM22.5818 13.785L22.5381 13.6859M22.5818 13.785L22.5381 13.6859M22.5381 13.6859C22.4659 13.5219 22.425 13.3457 22.425 13.1562C22.425 12.4441 22.9785 11.875 23.65 11.875C24.3215 11.875 24.875 12.4441 24.875 13.1562C24.875 13.8684 24.3215 14.4375 23.65 14.4375C23.5887 14.4375 23.5253 14.4276 23.454 14.4158L23.3511 14.3986L23.3158 14.4967L21.3121 20.0625H10.6879L8.68417 14.4967L8.64886 14.3986L8.54601 14.4158C8.47474 14.4276 8.41133 14.4375 8.35 14.4375C7.67848 14.4375 7.125 13.8684 7.125 13.1562C7.125 12.4444 7.68096 11.875 8.35281 11.875C9.02433 11.875 9.57781 12.4441 9.57781 13.1562C9.57781 13.345 9.53444 13.5244 9.46431 13.6868L9.42171 13.7854M22.5381 13.6859L9.42171 13.7854M9.42171 13.7854L9.51279 13.8423M9.42171 13.7854L9.51279 13.8423M9.51279 13.8423L11.5461 15.1137M9.51279 13.8423L11.5461 15.1137M11.5461 15.1137C12.0396 15.4229 12.6816 15.2458 12.9652 14.7281L11.5461 15.1137ZM16.7426 10.5504L19.0347 14.728L12.9653 14.728L15.2574 10.5504L15.3062 10.4614L15.2291 10.3953C14.9545 10.16 14.775 9.80737 14.775 9.40625C14.775 8.69406 15.3285 8.125 16 8.125C16.6715 8.125 17.225 8.69406 17.225 9.40625C17.225 9.80737 17.0455 10.16 16.7709 10.3953L16.6938 10.4614L16.7426 10.5504ZM9.825 21.5938C9.825 21.4001 9.9763 21.25 10.15 21.25H21.85C22.0237 21.25 22.175 21.4001 22.175 21.5938V22.5312C22.175 22.7249 22.0237 22.875 21.85 22.875H10.15C9.9763 22.875 9.825 22.7249 9.825 22.5312V21.5938Z" stroke="url(#paint1_linear_14_1414)" stroke-width="0.25"/>
</g>
<rect x="0.5" y="0.5" width="31" height="31" rx="15.5" stroke="url(#paint2_linear_14_1414)"/>
</svg>
