<svg width="24" height="24" viewBox="0 0 24 24" fill="none" xmlns="http://www.w3.org/2000/svg">
    <path fill-rule="evenodd" clip-rule="evenodd" d="M12.0003 0C5.37289 0 0 5.37233 0 11.9997C0 18.6272 5.37293 24 12.0003 24C18.6277 24 24 18.6272 24 11.9997C24 5.37233 18.6277 0 12.0003 0Z" fill="#04C178"/>
    <path fill-rule="evenodd" clip-rule="evenodd" d="M10.1997 16.875C9.95958 16.875 9.71954 16.7822 9.5317 16.6069L5.52397 12.6373C5.15868 12.2764 5.15868 11.6887 5.52397 11.3279C5.88925 10.967 6.48415 10.967 6.84944 11.3279L10.1997 14.6376L17.1505 7.77065C17.5158 7.40978 18.1107 7.40978 18.476 7.77065C18.8413 8.13155 18.8413 8.71925 18.476 9.08011L10.8572 16.6069C10.6797 16.7822 10.4397 16.875 10.1997 16.875Z" fill="white"/>
</svg>
