<svg id="vector" xmlns="http://www.w3.org/2000/svg" width="24" height="24" viewBox="0 0 50 50"><path fill="#00000000" d="M25,0.31L25,0.31A24.69,24.69 0,0 1,49.69 25L49.69,25A24.69,24.69 0,0 1,25 49.69L25,49.69A24.69,24.69 0,0 1,0.31 25L0.31,25A24.69,24.69 0,0 1,25 0.31z" stroke="#ffffff" stroke-width="0.625" fill-rule="nonzero" id="path_0"/><path fill="#ffffff" d="M32.32,32.32L32.32,32.32L32.32,32.32C31.94,32.69 31.33,32.69 30.95,32.32L25.5,26.86L20.05,32.32L20.05,32.32C19.67,32.69 19.06,32.69 18.68,32.32C18.68,32.32 18.68,32.32 18.68,32.32L18.68,32.32L18.68,32.32C18.31,31.94 18.31,31.33 18.68,30.95L24.14,25.5L18.68,20.05L18.68,20.05C18.31,19.67 18.31,19.06 18.68,18.68L18.68,18.68L18.68,18.68C19.06,18.31 19.67,18.31 20.05,18.68C20.05,18.68 20.05,18.68 20.05,18.68L25.5,24.14L30.95,18.68L30.95,18.68C31.33,18.31 31.94,18.31 32.32,18.68L32.32,18.68L32.32,18.68C32.69,19.06 32.69,19.67 32.32,20.05C32.32,20.05 32.32,20.05 32.32,20.05L26.86,25.5L32.32,30.95L32.32,30.95C32.69,31.33 32.69,31.94 32.32,32.32C32.32,32.32 32.32,32.32 32.32,32.32Z" stroke="#00000000" stroke-width="1" fill-rule="nonzero" id="path_1"/></svg>