<svg id="vector" xmlns="http://www.w3.org/2000/svg" width="24" height="24" viewBox="0 0 64 64"><path fill="#06c07c" d="M32.0008,0C14.3277,0 0,14.3262 0,31.9993C0,49.6725 14.3278,64 32.0008,64C49.6738,64 64,49.6725 64,31.9993C64,14.3262 49.6739,0 32.0008,0Z" stroke="#00000000" stroke-width="1" fill-rule="evenodd" id="path_0"/><path fill="#ffffff" d="M27.1991,45C26.5589,45 25.9188,44.7525 25.4179,44.2851L14.7306,33.6995C13.7565,32.7371 13.7565,31.1699 14.7306,30.2076C15.7047,29.2453 17.2911,29.2453 18.2652,30.2076L27.1991,39.0335L45.7348,20.7217C46.7089,19.7594 48.2953,19.7594 49.2694,20.7217C50.2435,21.6841 50.2435,23.2513 49.2694,24.2136L28.9525,44.2851C28.4793,44.7525 27.8392,45 27.1991,45Z" stroke="#00000000" stroke-width="1" fill-rule="evenodd" id="path_1"/></svg>