<svg width="24" height="25" viewBox="0 0 24 25" fill="none" xmlns="http://www.w3.org/2000/svg">
<path d="M16.3535 16.646C16.3999 16.6925 16.4368 16.7476 16.4619 16.8083C16.4871 16.869 16.5 16.9341 16.5 16.9997C16.5 17.0654 16.4871 17.1305 16.4619 17.1912C16.4368 17.2519 16.3999 17.307 16.3535 17.3535C16.307 17.3999 16.2519 17.4368 16.1912 17.4619C16.1305 17.4871 16.0654 17.5 15.9997 17.5C15.9341 17.5 15.869 17.4871 15.8083 17.4619C15.7476 17.4368 15.6925 17.3999 15.646 17.3535L11.5 13.2068L7.35398 17.3535C7.26017 17.4473 7.13292 17.5 7.00025 17.5C6.86758 17.5 6.74033 17.4473 6.64652 17.3535C6.5527 17.2597 6.5 17.1324 6.5 16.9997C6.5 16.8671 6.5527 16.7398 6.64652 16.646L10.7932 12.5L6.64652 8.35398C6.5527 8.26017 6.5 8.13292 6.5 8.00025C6.5 7.86758 6.5527 7.74033 6.64652 7.64652C6.74033 7.5527 6.86758 7.5 7.00025 7.5C7.13292 7.5 7.26017 7.5527 7.35398 7.64652L11.5 11.7932L15.646 7.64652C15.7398 7.5527 15.8671 7.5 15.9997 7.5C16.1324 7.5 16.2597 7.5527 16.3535 7.64652C16.4473 7.74033 16.5 7.86758 16.5 8.00025C16.5 8.13292 16.4473 8.26017 16.3535 8.35398L12.2068 12.5L16.3535 16.646Z" fill="white" fill-opacity="0.5"/>
<rect x="0.5" y="1" width="23" height="23" rx="11.5" stroke="white" stroke-opacity="0.5"/>
</svg>
