<svg id="vector" xmlns="http://www.w3.org/2000/svg" width="24" height="24" viewBox="0 0 48 48"><path fill="#ffffff" d="M47.0454,47.0454L47.0454,47.0454C45.7725,48.3182 43.7089,48.3182 42.4361,47.0454L23.9999,28.609L5.5635,47.0455C4.2908,48.3182 2.2273,48.3182 0.9546,47.0455C0.9546,47.0455 0.9546,47.0454 0.9545,47.0454L0.9545,47.0454C-0.3182,45.7727 -0.3182,43.7092 0.9546,42.4364L19.3909,24L0.9545,5.5635C-0.3182,4.2908 -0.3182,2.2273 0.9545,0.9546L0.9545,0.9546C2.2273,-0.3182 4.2908,-0.3182 5.5635,0.9545C5.5635,0.9545 5.5635,0.9545 5.5635,0.9545L23.9999,19.391L42.4362,0.9546C43.7089,-0.3182 45.7725,-0.3182 47.0454,0.9546L47.0454,0.9546C48.3181,2.2272 48.3182,4.2907 47.0455,5.5635C47.0455,5.5635 47.0455,5.5636 47.0454,5.5636L28.6089,24L47.0454,42.4363C48.3182,43.7091 48.3182,45.7726 47.0455,47.0453C47.0454,47.0454 47.0454,47.0454 47.0454,47.0454Z" stroke="#00000000" stroke-width="1" fill-rule="nonzero" id="path_0"/></svg>