<svg width="30" height="30" viewBox="0 0 30 30" fill="none" xmlns="http://www.w3.org/2000/svg">
<defs>
        <filter id="filter0_d_190_14" x="8" y="13" width="20" height="18" filterUnits="userSpaceOnUse" color-interpolation-filters="sRGB">
            <feFlood flood-opacity="0" result="BackgroundImageFix"/>
            <feColorMatrix in="SourceAlpha" type="matrix" values="0 0 0 0 0 0 0 0 0 0 0 0 0 0 0 0 0 0 127 0" result="hardAlpha"/>
            <feOffset dy="4"/>
            <feGaussianBlur stdDeviation="2"/>
            <feComposite in2="hardAlpha" operator="out"/>
            <feColorMatrix type="matrix" values="0 0 0 0 0.554167 0 0 0 0 0.554167 0 0 0 0 0.554167 0 0 0 0.25 0"/>
            <feBlend mode="normal" in2="BackgroundImageFix" result="effect1_dropShadow_190_14"/>
            <feBlend mode="normal" in="SourceGraphic" in2="effect1_dropShadow_190_14" result="shape"/>
        </filter>
        <linearGradient id="paint0_linear_190_14" x1="17.4375" y1="1.15484e-07" x2="15.5" y2="31" gradientUnits="userSpaceOnUse">
            <stop stop-color="#FFE144"/>
            <stop offset="1" stop-color="#DEAA21"/>
        </linearGradient>
        <linearGradient id="paint1_linear_190_14" x1="22.2857" y1="9.66667" x2="18.2149" y2="23.0653" gradientUnits="userSpaceOnUse">
            <stop stop-color="#E7E7E7"/>
            <stop offset="1" stop-color="#E7E7E7" stop-opacity="0"/>
        </linearGradient>
    </defs>
<path d="M0 31C0 13.8792 13.8792 0 31 0V31H0Z" fill="url(#paint0_linear_190_14)"/>
<g filter="url(#filter0_d_190_14)">
<path d="M21.9 21.75H14.1C13.935 21.75 13.8 21.8906 13.8 22.0625V22.6875C13.8 22.8594 13.935 23 14.1 23H21.9C22.065 23 22.2 22.8594 22.2 22.6875V22.0625C22.2 21.8906 22.065 21.75 21.9 21.75ZM23.1 15.5C22.6031 15.5 22.2 15.9199 22.2 16.4375C22.2 16.5762 22.23 16.7051 22.2825 16.8242L20.925 17.6719C20.6363 17.8516 20.2631 17.75 20.0963 17.4453L18.5681 14.6602C18.7688 14.4883 18.9 14.2305 18.9 13.9375C18.9 13.4199 18.4969 13 18 13C17.5031 13 17.1 13.4199 17.1 13.9375C17.1 14.2305 17.2313 14.4883 17.4319 14.6602L15.9038 17.4453C15.7369 17.75 15.3619 17.8516 15.075 17.6719L13.7194 16.8242C13.77 16.707 13.8019 16.5762 13.8019 16.4375C13.8019 15.9199 13.3988 15.5 12.9019 15.5C12.405 15.5 12 15.9199 12 16.4375C12 16.9551 12.4031 17.375 12.9 17.375C12.9488 17.375 12.9975 17.3672 13.0444 17.3594L14.4 21.125H21.6L22.9556 17.3594C23.0025 17.3672 23.0513 17.375 23.1 17.375C23.5969 17.375 24 16.9551 24 16.4375C24 15.9199 23.5969 15.5 23.1 15.5Z" fill="white"/>
<path d="M22.4405 16.8729L22.3487 16.9302L20.9912 17.7779L20.991 17.778C20.6393 17.9969 20.1869 17.8709 19.9867 17.5054L22.4405 16.8729ZM22.4405 16.8729L22.3969 16.7738C22.3509 16.6694 22.325 16.5576 22.325 16.4375C22.325 15.9841 22.6769 15.625 23.1 15.625C23.5231 15.625 23.875 15.9841 23.875 16.4375C23.875 16.8909 23.5231 17.25 23.1 17.25C23.063 17.25 23.024 17.244 22.9762 17.2361L22.8733 17.2189L22.838 17.317L21.5121 21H14.4879L13.162 17.317L13.1267 17.2189L13.0238 17.2361C12.976 17.244 12.937 17.25 12.9 17.25C12.4769 17.25 12.125 16.8909 12.125 16.4375C12.125 15.9844 12.4785 15.625 12.9019 15.625C13.325 15.625 13.6769 15.9841 13.6769 16.4375C13.6769 16.5569 13.6494 16.6709 13.6046 16.7746L13.562 16.8733L13.6531 16.9302L15.0086 17.7778C15.3587 17.9971 15.8133 17.8707 16.0134 17.5054L17.5415 14.7203L17.5903 14.6313L17.5132 14.5652C17.3389 14.4159 17.225 14.1921 17.225 13.9375C17.225 13.4841 17.5769 13.125 18 13.125C18.4231 13.125 18.775 13.4841 18.775 13.9375C18.775 14.1921 18.6611 14.4159 18.4868 14.5652L18.4097 14.6313L18.4585 14.7203L19.9866 17.5054L22.4405 16.8729ZM14.1 21.875H21.9C21.9912 21.875 22.075 21.9548 22.075 22.0625V22.6875C22.075 22.7952 21.9912 22.875 21.9 22.875H14.1C14.0088 22.875 13.925 22.7952 13.925 22.6875V22.0625C13.925 21.9548 14.0088 21.875 14.1 21.875Z" stroke="url(#paint1_linear_190_14)" stroke-width="0.25"/>
</g>
</svg>
