<svg id="vector" xmlns="http://www.w3.org/2000/svg" width="24" height="24" viewBox="0 0 24 24"><path fill="#000000" d="M18.729,8.603L11.578,15.369C11.232,15.695 10.672,15.695 10.326,15.369C9.981,15.044 9.981,14.517 10.326,14.191L17.478,7.425C17.824,7.1 18.384,7.1 18.729,7.425C19.075,7.751 19.075,8.278 18.729,8.603ZM15.815,7.218L7.404,7.222C6.468,7.247 6.286,7.504 6.286,8.414L6.272,7.865L6.276,15.886C6.324,16.606 6.596,16.798 7.557,16.798L6.276,16.79L6.276,16.803L16.447,16.798L16.445,15.687L16.437,16.79L15.155,16.798C16.226,16.798 16.442,16.563 16.445,15.621L16.442,12.598C16.442,12.267 16.726,11.999 17.077,11.999C17.428,11.999 17.713,12.267 17.713,12.598L17.717,16.199L17.713,16.199L17.713,16.797C17.713,17.459 17.143,17.995 16.441,17.995L15.766,17.995L15.766,17.996L6.946,18L6.946,17.995L6.271,17.995C5.588,17.995 5.035,17.487 5.005,16.851L5,7.213C5.003,6.572 5.541,6.054 6.214,6.026L15.815,6.02C16.166,6.02 16.45,6.288 16.45,6.619C16.45,6.95 16.166,7.218 15.815,7.218ZM6.271,7.223L6.271,7.239L6.678,7.223L6.271,7.223Z" stroke="#00000000" stroke-width="1" fill-rule="nonzero" id="path_0"/><path fill="#ffffff" d="M18.729,8.603L11.578,15.369C11.232,15.695 10.672,15.695 10.326,15.369C9.981,15.044 9.981,14.517 10.326,14.191L17.478,7.425C17.824,7.1 18.384,7.1 18.729,7.425C19.075,7.751 19.075,8.278 18.729,8.603ZM15.815,7.218L7.404,7.222C6.468,7.247 6.286,7.504 6.286,8.414L6.272,7.865L6.276,15.886C6.324,16.606 6.596,16.798 7.557,16.798L6.276,16.79L6.276,16.803L16.447,16.798L16.445,15.687L16.437,16.79L15.155,16.798C16.226,16.798 16.442,16.563 16.445,15.621L16.442,12.598C16.442,12.267 16.726,11.999 17.077,11.999C17.428,11.999 17.713,12.267 17.713,12.598L17.717,16.199L17.713,16.199L17.713,16.797C17.713,17.459 17.143,17.995 16.441,17.995L15.766,17.995L15.766,17.996L6.946,18L6.946,17.995L6.271,17.995C5.588,17.995 5.035,17.487 5.005,16.851L5,7.213C5.003,6.572 5.541,6.054 6.214,6.026L15.815,6.02C16.166,6.02 16.45,6.288 16.45,6.619C16.45,6.95 16.166,7.218 15.815,7.218ZM6.271,7.223L6.271,7.239L6.678,7.223L6.271,7.223Z" stroke="#00000000" stroke-width="1" fill-rule="nonzero" id="path_1"/></svg>