<svg width="20" height="20" viewBox="0 0 20 20" fill="none" xmlns="http://www.w3.org/2000/svg">
<path d="M10 13C10.2833 13 10.521 12.904 10.713 12.712C10.905 12.52 11.0007 12.2827 11 12C11 11.7167 10.904 11.479 10.712 11.287C10.52 11.095 10.2827 10.9993 10 11C9.71667 11 9.479 11.096 9.287 11.288C9.095 11.48 8.99933 11.7173 9 12C9 12.2833 9.096 12.521 9.288 12.713C9.48 12.905 9.71733 13.0007 10 13ZM9 9H11V3H9V9ZM0 20V2C0 1.45 0.196 0.979002 0.588 0.587002C0.98 0.195002 1.45067 -0.000664969 2 1.69779e-06H18C18.55 1.69779e-06 19.021 0.196002 19.413 0.588002C19.805 0.980002 20.0007 1.45067 20 2V14C20 14.55 19.804 15.021 19.412 15.413C19.02 15.805 18.5493 16.0007 18 16H4L0 20Z" fill="#F2EFFF"/>
</svg>
