<svg id="vector" xmlns="http://www.w3.org/2000/svg" width="24" height="24" viewBox="0 0 24 24"><path fill="#efefef" fill-rule="evenodd" d="M17.4079,8.4084L17.4079,6.5912L6.5912,6.5912L6.5912,8.4084L17.4079,8.4084ZM13.8168,13.8168L13.8168,11.9995L6.5912,11.9995L6.5912,13.8168L13.8168,13.8168ZM6.5912,9.2954L6.5912,11.1126L17.4079,11.1126L17.4079,9.2954L6.5912,9.2954ZM19.2251,3C20.1969,3 21,3.8031 21,4.7749L21,15.5916C21,16.5633 20.1969,17.4088 19.2251,17.4088L6.5912,17.4088L3,21L3,4.7749C3,3.8031 3.8031,3 4.7749,3L19.2251,3Z" stroke-width="1" stroke="#00000000" id="path_0"/></svg>