<svg id="vector" xmlns="http://www.w3.org/2000/svg" width="24" height="24" viewBox="0 0 24 24"><path fill="#ffffff" d="M21.175,18.566L9.86,18.566C9.385,18.566 9,19.019 9,19.578C9,20.136 9.385,20.589 9.86,20.589L21.175,20.589C21.651,20.589 22.036,20.136 22.036,19.578C22.036,19.019 21.651,18.566 21.175,18.566ZM20.859,11.283L9.838,11.283C9.375,11.283 9,11.736 9,12.295C9,12.854 9.375,13.306 9.838,13.306L20.859,13.306C21.323,13.306 21.698,12.854 21.698,12.295C21.698,11.736 21.323,11.283 20.859,11.283ZM9.838,6.023C9.375,6.023 9,5.571 9,5.012C9,4.452 9.375,4 9.838,4L20.859,4C21.323,4 21.698,4.452 21.698,5.012C21.698,5.571 21.323,6.023 20.859,6.023L9.838,6.023ZM4,14.2C2.895,14.2 2,13.305 2,12.2C2,11.095 2.895,10.2 4,10.2C5.105,10.2 6,11.095 6,12.2C6,13.305 5.105,14.2 4,14.2Z" stroke="#00000000" stroke-width="1" fill-rule="nonzero" id="path_0"/><path fill="#ffffff" d="M4,5m-2,0a2,2 0,1 1,4 0a2,2 0,1 1,-4 0" stroke="#00000000" stroke-width="1" fill-rule="nonzero" id="path_1"/><path fill="#ffffff" d="M4,20m-2,0a2,2 0,1 1,4 0a2,2 0,1 1,-4 0" stroke="#00000000" stroke-width="1" fill-rule="nonzero" id="path_2"/></svg>