<svg width="25" height="25" viewBox="0 0 25 25" fill="none" xmlns="http://www.w3.org/2000/svg">
<path fill-rule="evenodd" clip-rule="evenodd" d="M12.726 2.95987C11.3749 2.92761 10.0313 3.17035 8.77695 3.67334C7.52255 4.17634 6.38351 4.92909 5.429 5.88587C1.524 9.79087 1.524 16.1229 5.429 20.0279C9.334 23.9329 15.666 23.9329 19.571 20.0279C20.5277 19.0733 21.2805 17.9343 21.7834 16.6799C22.2864 15.4255 22.5292 14.082 22.497 12.7309C22.4795 11.9309 22.3663 11.136 22.16 10.3629C21.6159 10.8851 21.0329 11.3651 20.416 11.7989C19.065 12.7479 17.683 13.3619 16.43 13.6409C14.524 14.0639 13.216 13.6729 12.5 12.9569C11.784 12.2409 11.393 10.9329 11.816 9.02687C12.095 7.77387 12.709 6.39187 13.657 5.04087C14.072 4.44887 14.551 3.86387 15.094 3.29687C14.321 3.09037 13.526 2.97723 12.726 2.95987ZM18.156 18.6139C19.3611 17.413 20.15 15.8577 20.407 14.1759C16.861 16.2209 13.138 16.4229 11.086 14.3709C9.034 12.3189 9.236 8.59587 11.281 5.04987C10.032 5.24258 8.84639 5.72845 7.82135 6.46769C6.79631 7.20693 5.961 8.1785 5.38383 9.3028C4.80667 10.4271 4.50408 11.6722 4.50086 12.9359C4.49765 14.1997 4.79388 15.4463 5.36531 16.5735C5.93674 17.7008 6.76709 18.6766 7.78835 19.421C8.80961 20.1655 9.99271 20.6574 11.2407 20.8565C12.4887 21.0555 13.7662 20.9561 14.9684 20.5663C16.1705 20.1765 17.2623 19.5074 18.156 18.6139Z" fill="#F2EFFF"/>
</svg>
