<svg width="25" height="25" viewBox="0 0 25 25" fill="none" xmlns="http://www.w3.org/2000/svg">
<path d="M22.15 3.19718C22.041 3.10364 21.9131 3.03467 21.7751 2.99499C21.637 2.9553 21.492 2.94581 21.35 2.96718L8.35 4.96718C8.11326 5.0031 7.89727 5.12277 7.74129 5.30445C7.5853 5.48612 7.49969 5.71773 7.5 5.95718V16.3072C7.03277 16.079 6.51999 15.9593 6 15.9572C5.30777 15.9572 4.63108 16.1625 4.05551 16.547C3.47993 16.9316 3.03133 17.4782 2.76642 18.1178C2.50152 18.7573 2.4322 19.4611 2.56725 20.14C2.7023 20.8189 3.03564 21.4426 3.52513 21.9321C4.01461 22.4215 4.63825 22.7549 5.31719 22.8899C5.99612 23.025 6.69985 22.9557 7.33939 22.6908C7.97894 22.4259 8.52556 21.9772 8.91015 21.4017C9.29473 20.8261 9.5 20.1494 9.5 19.4572V11.8172L20.5 10.1272V14.3072C20.0328 14.079 19.52 13.9593 19 13.9572C18.3078 13.9572 17.6311 14.1625 17.0555 14.547C16.4799 14.9316 16.0313 15.4782 15.7664 16.1178C15.5015 16.7573 15.4322 17.4611 15.5673 18.14C15.7023 18.8189 16.0356 19.4426 16.5251 19.9321C17.0146 20.4215 17.6383 20.7549 18.3172 20.8899C18.9961 21.025 19.6999 20.9557 20.3394 20.6908C20.9789 20.4259 21.5256 19.9772 21.9101 19.4017C22.2947 18.8261 22.5 18.1494 22.5 17.4572V3.95718C22.5 3.81274 22.4687 3.67001 22.4083 3.53882C22.3479 3.40762 22.2598 3.29107 22.15 3.19718ZM6 20.9572C5.70333 20.9572 5.41332 20.8692 5.16665 20.7044C4.91997 20.5396 4.72771 20.3053 4.61418 20.0312C4.50065 19.7571 4.47095 19.4555 4.52882 19.1645C4.5867 18.8736 4.72956 18.6063 4.93934 18.3965C5.14912 18.1867 5.41639 18.0439 5.70737 17.986C5.99834 17.9281 6.29994 17.9578 6.57403 18.0714C6.84812 18.1849 7.08238 18.3772 7.24721 18.6238C7.41203 18.8705 7.5 19.1605 7.5 19.4572C7.5 19.855 7.34197 20.2365 7.06066 20.5178C6.77936 20.7991 6.39783 20.9572 6 20.9572ZM19 18.9572C18.7033 18.9572 18.4133 18.8692 18.1666 18.7044C17.92 18.5396 17.7277 18.3053 17.6142 18.0312C17.5007 17.7571 17.4709 17.4555 17.5288 17.1645C17.5867 16.8736 17.7296 16.6063 17.9393 16.3965C18.1491 16.1867 18.4164 16.0439 18.7074 15.986C18.9983 15.9281 19.2999 15.9578 19.574 16.0714C19.8481 16.1849 20.0824 16.3772 20.2472 16.6238C20.412 16.8705 20.5 17.1605 20.5 17.4572C20.5 17.855 20.342 18.2365 20.0607 18.5178C19.7794 18.7991 19.3978 18.9572 19 18.9572ZM20.5 8.09718L9.5 9.78718V6.78718L20.5 5.12718V8.09718Z" fill="#F2EFFF"/>
</svg>
