<svg id="vector" xmlns="http://www.w3.org/2000/svg" width="24" height="24" viewBox="0 0 36 36"><path fill="#ffffff" d="M28.8783,12.5393C29.3386,12.8958 29.4424,13.4827 29.2494,13.9803C28.5815,13.8169 27.8838,13.7276 27.1713,13.7276C26.8594,13.7276 26.5551,13.7425 26.2583,13.7722C14.2114,4.0789 4.6661,14.1362 4.2801,14.5894C4.0128,14.9162 3.6121,15.0498 3.2779,15.0498C3.0109,15.0498 2.6769,14.9162 2.4096,14.7231C1.8752,14.2626 1.8752,13.4083 2.3427,12.8735C2.4764,12.7399 14.5455,-0.0508 28.8783,12.5393ZM15.2135,14.9162C17.1211,14.8344 18.9842,15.3619 20.7581,16.4761C20.1347,17.1222 19.6224,17.865 19.2143,18.6747C17.9375,17.9022 16.6534,17.5159 15.3396,17.5531C12.0069,17.6198 9.5353,20.5168 9.5353,20.5168C9.0676,21.1111 8.2067,21.1778 7.6648,20.7174C7.0635,20.2568 6.9967,19.4694 7.4644,18.8678C7.6054,18.6747 10.6784,15.1167 15.2135,14.9162ZM15.6069,21.9726C16.3046,21.9726 17.0022,22.2548 17.4923,22.7452C17.9895,23.2353 18.2716,23.9188 18.2716,24.6096C18.2716,25.3003 17.9895,25.9836 17.4923,26.474C16.9948,26.9641 16.3046,27.2465 15.6069,27.2465C14.9092,27.2465 14.2114,26.9641 13.7215,26.474C13.2243,25.9836 12.9421,25.3003 12.9421,24.6096C12.9421,23.9188 13.2243,23.2353 13.7215,22.7452C14.2188,22.2548 14.9092,21.9726 15.6069,21.9726ZM27.4087,16.0378C23.7717,16.0378 20.8175,18.9866 20.8175,22.6262C20.8175,26.2659 23.7717,29.2222 27.4087,29.2222C31.0458,29.2222 34,26.2734 34,22.6336C34,18.9941 31.0532,16.0378 27.4087,16.0378ZM30.7785,24.2159C31.0532,24.4906 30.8751,25.1071 30.3777,25.6048C29.8879,26.0951 29.2643,26.2734 28.9898,26.0059L27.4012,24.4165L25.8129,26.0059C25.5382,26.2808 24.9222,26.1026 24.4248,25.6048C23.935,25.1146 23.7568,24.4906 24.0241,24.2159L25.6125,22.6262L24.0241,21.0367C23.7494,20.762 23.9275,20.1454 24.4248,19.6478C24.9148,19.1574 25.5382,18.9792 25.8129,19.2467L27.4012,20.8361L28.9898,19.2467C29.2643,18.9717 29.8804,19.15 30.3777,19.6478C30.8677,20.138 31.0458,20.762 30.7785,21.0367L29.1902,22.6262L30.7785,24.2159Z" stroke="#00000000" stroke-width="1" fill-rule="nonzero" id="path_0"/></svg>