<svg width="24" height="24" viewBox="0 0 24 24" fill="none" xmlns="http://www.w3.org/2000/svg">
    <defs>
        <linearGradient id="paint0_linear_3421_13616" x1="5" y1="3" x2="24" y2="24" gradientUnits="userSpaceOnUse">
            <stop stop-color="#F07298"/>
            <stop offset="0.09375" stop-color="#EA7593" stop-opacity="0.927083"/>
            <stop offset="0.84353" stop-color="#CE44E2"/>
        </linearGradient>
    </defs>
    <rect x="5" y="5" width="13" height="15" fill="white"/>
    <path fill-rule="evenodd" clip-rule="evenodd" d="M12 0C18.6281 0 24 5.37188 24 12C24 18.6281 18.6281 24 12 24C5.37188 24 0 18.6281 0 12C0 5.37188 5.37188 0 12 0ZM16.136 16.8086C16.1642 16.4457 15.8818 16.1406 15.5301 16.1379H8.48018C8.16184 16.1379 7.8897 16.3825 7.86401 16.7087C7.83577 17.0716 8.11819 17.3793 8.46735 17.3793H15.5198C15.8382 17.3793 16.1103 17.1347 16.136 16.8086ZM17.3628 9.90581C17.474 9.46313 17.0032 9.09761 16.5945 9.31643L14.3983 10.4901L12.2643 6.09135C12.0728 5.69239 11.5037 5.69498 11.3123 6.09135L9.19118 10.4927L6.98726 9.31643C6.58114 9.1002 6.11036 9.46826 6.22417 9.91099L7.31835 14.1681C7.31835 14.5697 7.64689 14.8965 8.05042 14.8965H15.5598C15.9633 14.8965 16.2918 14.5697 16.2918 14.1681L17.3628 9.90581Z" fill="url(#paint0_linear_3421_13616)"/>
</svg>
