<svg id="vector" xmlns="http://www.w3.org/2000/svg" width="20" height="20" viewBox="0 0 48 48"><path fill="#ffffff" d="M47.7371,3.0416C47.5569,2.8452 47.3062,2.7283 47.04,2.7167C46.7739,2.7052 46.5139,2.7998 46.3176,2.9799L41.634,7.118C33.8958,-0.5926 21.875,-2.2245 12.3093,3.1341C2.7502,8.4928 -1.9778,19.5152 0.7788,30.0131C3.5354,40.5179 13.0945,47.8891 24.0933,47.9988C35.0889,48.1085 44.7952,40.9259 47.7644,30.4794C47.8467,30.2086 47.833,29.9137 47.833,29.6189C48.2378,28.4348 47.8918,27.1234 46.9553,26.2933C46.0137,25.4576 44.6702,25.2498 43.5198,25.7619C42.3721,26.2657 41.6355,27.4055 41.6477,28.6589C39.5564,36.2838 32.5586,41.5876 24.5493,41.6184C16.54,41.6459 9.4978,36.39 7.3516,28.7823C5.2153,21.1457 8.5022,13.0295 15.3503,9.0311C22.229,4.9763 30.9578,5.9455 36.7793,11.4104L31.9619,15.6617C31.6516,15.9227 31.5354,16.3489 31.6707,16.7314C31.8069,17.1161 32.1643,17.3785 32.5723,17.393L46.9038,18.9941C47.1716,19.011 47.4353,18.9208 47.6365,18.7433C47.8379,18.5659 47.9602,18.3157 47.9771,18.0479L47.9873,3.7684C48.0073,3.5016 47.9182,3.2381 47.7405,3.0381L47.7405,3.0416L47.7371,3.0416Z" stroke="#00000000" stroke-width="1" fill-rule="evenodd" id="path_0"/></svg>