<?xml version="1.0" encoding="UTF-8" standalone="no"?>
<svg viewBox="0 0 60.0 60.0">
  <path d="M30.48,38.8C30.47,38.69 30.41,38.58 30.29,38.49C30.05,38.3 24.56,33.91 29.72,30.15C35.6,25.88 31.27,21.33 31.22,21.29C31.02,21.09 30.66,21.02 30.41,21.15C30.17,21.28 30.12,21.55 30.32,21.75C30.48,21.91 34.1,25.72 28.88,29.51C27.35,30.62 26.64,31.79 26.45,32.92C25.88,36.16 29.46,39.02 29.51,39.06C29.74,39.24 30.1,39.26 30.32,39.1C30.42,39.02 30.48,38.91 30.48,38.8Z" fill="#FFFFFF"/>
  <path d="M25.99,44.24C25.95,44.05 25.81,43.88 25.6,43.76C25.18,43.52 15.3,37.68 22.39,29.75C30.47,20.71 22.38,14.27 22.29,14.21C21.93,13.93 21.34,13.93 20.98,14.22C20.63,14.52 20.64,14.99 21,15.27C21.29,15.5 28.05,20.88 20.89,28.9C18.78,31.26 18,33.46 18,35.44C18,41.12 24.44,44.91 24.53,44.97C24.94,45.2 25.52,45.13 25.82,44.8C25.96,44.63 26.03,44.43 25.99,44.24Z" fill="#FFFFFF"/>
  <path d="M25.69,44.24C25.65,44.05 25.51,43.88 25.3,43.76C24.88,43.52 15,37.68 22.09,29.75C30.17,20.71 22.08,14.27 21.99,14.21C21.63,13.93 21.04,13.93 20.68,14.22C20.33,14.52 20.34,14.99 20.7,15.27C20.99,15.5 27.75,20.88 20.59,28.9C18.48,31.26 17.7,33.46 17.7,35.44C17.7,41.12 24.14,44.91 24.23,44.97C24.64,45.2 25.22,45.13 25.52,44.8C25.66,44.63 25.73,44.43 25.69,44.24Z" fill="#FFFFFF"/>
  <path d="M42.79,44.24C42.75,44.05 42.61,43.88 42.4,43.76C41.98,43.52 32.1,37.68 39.19,29.75C47.27,20.71 39.18,14.27 39.09,14.21C38.73,13.93 38.14,13.93 37.78,14.22C37.43,14.52 37.44,14.99 37.8,15.27C38.09,15.5 44.85,20.88 37.69,28.9C35.58,31.26 34.8,33.46 34.8,35.44C34.8,41.12 41.24,44.91 41.33,44.97C41.74,45.2 42.32,45.13 42.62,44.8C42.76,44.63 42.83,44.43 42.79,44.24Z" fill="#FFFFFF"/>
  <path d="M42.49,44.24C42.45,44.05 42.31,43.88 42.1,43.76C41.68,43.52 31.8,37.68 38.89,29.75C46.97,20.71 38.88,14.27 38.79,14.21C38.43,13.93 37.84,13.93 37.48,14.22C37.13,14.52 37.14,14.99 37.5,15.27C37.79,15.5 44.55,20.88 37.39,28.9C35.28,31.26 34.5,33.46 34.5,35.44C34.5,41.12 40.94,44.91 41.03,44.97C41.44,45.2 42.02,45.13 42.32,44.8C42.46,44.63 42.53,44.43 42.49,44.24Z" fill="#FFFFFF"/>
</svg>
