<?xml version="1.0" encoding="UTF-8" standalone="no"?>
<svg viewBox="0 0 60.0 60.0">
  <path d="M15.6717,44.9028C15.4521,45.1039 14.9402,44.9932 14.6605,44.9028C14.3809,44.8124 14.172,44.5772 14.1125,44.2859C14.053,43.9947 13.8922,43.2004 14.1125,43.0002C15.7592,41.4979 17.6073,40.7381 19.1767,39.7009C19.4731,37.3492 20.0827,35.355 21.8712,32.3005C24.8693,27.1815 29.5604,25.6309 35.1277,27.2392C37.0852,27.8046 38.5126,28.7232 40.5848,29.9963C42.166,30.9664 43.8752,31.5045 46.2162,31.7975C46.5082,31.8339 46.7569,32.0258 46.8685,32.3005C46.9801,32.5752 46.9375,32.891 46.7568,33.1286L46.6322,33.2927C46.2721,33.7658 46.5751,34.4043 46.2162,34.8783C44.7466,36.8153 43.6976,38.5633 42.7461,39.7009C41.7946,40.8385 36.8669,45.8524 34.0792,46.9364C31.6847,47.8672 28.4113,46.9367 25.3796,45.3507C24.6568,44.9677 24.0354,44.3942 23.3467,43.9521C23.1967,43.857 22.9215,43.6798 22.4598,43.3809L21.8712,43.0002C21.6808,42.877 21.5645,42.8019 21.5084,42.767C20.6026,42.1921 20.0481,41.8942 19.6233,41.7562C19.5171,41.7217 19.4191,41.6656 19.3355,41.5912C18.0751,42.4769 16.9978,43.6926 15.6717,44.9028ZM22.7123,41.7154L23.3467,41.5912L23.6452,42.3219C24.0977,42.6175 24.5088,42.6775 24.6491,42.767C25.3996,43.2455 26.0225,43.6401 26.615,43.9521C29.2046,45.3138 31.5675,45.6459 33.4304,44.9028C35.8621,43.9331 37.9075,41.812 40.958,38.1253C41.8772,37.0147 42.7377,35.9092 44.1736,33.9972L44.5255,33.5288C42.6731,33.1889 41.167,32.6348 39.7467,31.7567C37.8357,30.5744 36.3987,29.8964 34.6343,29.3901C29.8738,28.0229 26.615,29.0818 23.6452,33.5288C22.212,35.6747 21.7711,37.44 21.4098,38.9526C24.6428,37.1101 27.7461,36.0107 31.3019,35.5792C32.4297,35.4424 36.2387,35.3016 36.9668,35.2134C38.6158,35.0141 38.7964,36.8756 36.9668,37.0972C36.1895,37.1905 32.6437,37.2268 31.5655,37.3577C27.9082,37.8027 25.2023,38.7236 21.8712,40.7884C22.2569,40.9845 22.1542,41.3587 22.7123,41.7154ZM38.2926,20.1353C39.0492,20.0842 39.6516,19.4832 39.7028,18.7283C39.7028,17.5607 38.2926,13 38.2926,13C38.2926,13 36.8822,17.5607 36.8822,18.7283C36.9335,19.4832 37.5359,20.0842 38.2926,20.1353ZM31.3611,24.0132C32.3941,23.9434 33.2167,23.1229 33.2867,22.0922C33.2867,20.4978 31.3611,14.2705 31.3611,14.2705C31.3611,14.2705 29.4353,20.4978 29.4353,22.0922C29.5053,23.1229 30.3278,23.9434 31.3611,24.0132Z" fill="#fbfbfb"/>
</svg>
