<svg width="25" height="25" viewBox="0 0 25 25" fill="none" xmlns="http://www.w3.org/2000/svg">
<path d="M22.175 15.6215L20.6398 14.309C20.7125 13.8637 20.75 13.409 20.75 12.9543C20.75 12.4996 20.7125 12.0449 20.6398 11.5996L22.175 10.2871C22.2908 10.188 22.3737 10.056 22.4126 9.90859C22.4515 9.76122 22.4447 9.60549 22.393 9.46211L22.3719 9.40117C21.9492 8.21998 21.3164 7.125 20.5039 6.16914L20.4617 6.11992C20.3631 6.00403 20.2318 5.92072 20.0849 5.88097C19.9381 5.84122 19.7826 5.8469 19.6391 5.89727L17.7336 6.57461C17.0305 5.99805 16.2453 5.54336 15.3969 5.22461L15.0289 3.23242C15.0011 3.08252 14.9284 2.94462 14.8204 2.83703C14.7124 2.72944 14.5742 2.65726 14.4242 2.63008L14.3609 2.61836C13.1398 2.39805 11.8555 2.39805 10.6344 2.61836L10.5711 2.63008C10.4211 2.65726 10.2829 2.72944 10.1749 2.83703C10.0669 2.94462 9.99416 3.08252 9.9664 3.23242L9.59609 5.23398C8.75442 5.5528 7.97062 6.00725 7.27577 6.5793L5.35624 5.89727C5.21272 5.8465 5.05716 5.84062 4.91022 5.88039C4.76327 5.92016 4.63191 6.00371 4.53359 6.11992L4.4914 6.16914C3.67987 7.12568 3.04712 8.22048 2.62343 9.40117L2.60234 9.46211C2.49687 9.75508 2.58359 10.0832 2.82031 10.2871L4.37421 11.6137C4.30156 12.0543 4.2664 12.5043 4.2664 12.952C4.2664 13.402 4.30156 13.852 4.37421 14.2902L2.82031 15.6168C2.70451 15.7159 2.62164 15.8479 2.5827 15.9953C2.54377 16.1427 2.55062 16.2984 2.60234 16.4418L2.62343 16.5027C3.04765 17.684 3.67577 18.7738 4.4914 19.7348L4.53359 19.784C4.63215 19.8999 4.76352 19.9832 4.91037 20.0229C5.05723 20.0627 5.21268 20.057 5.35624 20.0066L7.27577 19.3246C7.97421 19.8988 8.75468 20.3535 9.59609 20.6699L9.9664 22.6715C9.99416 22.8214 10.0669 22.9593 10.1749 23.0669C10.2829 23.1745 10.4211 23.2466 10.5711 23.2738L10.6344 23.2855C11.8667 23.507 13.1286 23.507 14.3609 23.2855L14.4242 23.2738C14.5742 23.2466 14.7124 23.1745 14.8204 23.0669C14.9284 22.9593 15.0011 22.8214 15.0289 22.6715L15.3969 20.6793C16.245 20.3614 17.0345 19.9052 17.7336 19.3293L19.6391 20.0066C19.7826 20.0574 19.9381 20.0633 20.0851 20.0235C20.232 19.9837 20.3634 19.9002 20.4617 19.784L20.5039 19.7348C21.3195 18.7715 21.9476 17.684 22.3719 16.5027L22.393 16.4418C22.4984 16.1535 22.4117 15.8254 22.175 15.6215ZM18.9758 11.8762C19.0344 12.2301 19.0648 12.5934 19.0648 12.9566C19.0648 13.3199 19.0344 13.6832 18.9758 14.0371L18.8211 14.977L20.5719 16.4746C20.3065 17.0861 19.9714 17.6649 19.5734 18.1996L17.3984 17.4285L16.6625 18.0332C16.1023 18.4926 15.4789 18.8535 14.8039 19.1066L13.9109 19.4418L13.4914 21.7152C12.8295 21.7902 12.1612 21.7902 11.4992 21.7152L11.0797 19.4371L10.1937 19.0973C9.52577 18.8441 8.90468 18.4832 8.34921 18.0262L7.61327 17.4191L5.42421 18.1973C5.02577 17.6605 4.69296 17.0816 4.42577 16.4723L6.19531 14.9605L6.04296 14.023C5.98671 13.6738 5.95624 13.3129 5.95624 12.9566C5.95624 12.598 5.98437 12.2395 6.04296 11.8902L6.19531 10.9527L4.42577 9.44102C4.69062 8.8293 5.02577 8.25273 5.42421 7.71602L7.61327 8.49414L8.34921 7.88711C8.90468 7.43008 9.52577 7.06914 10.1937 6.81602L11.082 6.48086L11.5016 4.20273C12.1601 4.12773 12.8328 4.12773 13.4937 4.20273L13.9133 6.47617L14.8062 6.81133C15.4789 7.06445 16.1047 7.42539 16.6648 7.88477L17.4008 8.48945L19.5758 7.71836C19.9742 8.25508 20.307 8.83398 20.5742 9.44336L18.8234 10.941L18.9758 11.8762ZM12.5 8.59727C10.2219 8.59727 8.37499 10.4441 8.37499 12.7223C8.37499 15.0004 10.2219 16.8473 12.5 16.8473C14.7781 16.8473 16.625 15.0004 16.625 12.7223C16.625 10.4441 14.7781 8.59727 12.5 8.59727ZM14.3562 14.5785C14.1128 14.8227 13.8234 15.0163 13.5049 15.1482C13.1863 15.2802 12.8448 15.3478 12.5 15.3473C11.7992 15.3473 11.1406 15.073 10.6437 14.5785C10.3996 14.3351 10.206 14.0457 10.074 13.7271C9.9421 13.4086 9.87446 13.0671 9.87499 12.7223C9.87499 12.0215 10.1492 11.3629 10.6437 10.866C11.1406 10.3691 11.7992 10.0973 12.5 10.0973C13.2008 10.0973 13.8594 10.3691 14.3562 10.866C14.6004 11.1095 14.794 11.3988 14.926 11.7174C15.0579 12.036 15.1255 12.3775 15.125 12.7223C15.125 13.423 14.8508 14.0816 14.3562 14.5785Z" fill="#F2EFFF"/>
</svg>
