<svg id="vector" xmlns="http://www.w3.org/2000/svg" width="24" height="24" viewBox="0 0 24 24"><path fill="#ffffff" d="M12,24.008C10.38,24.008 8.809,23.69 7.329,23.064C5.9,22.46 4.616,21.595 3.515,20.493C2.413,19.391 1.548,18.108 0.943,16.679C0.317,15.199 0,13.627 0,12.008C0,10.388 0.317,8.817 0.943,7.336C1.548,5.907 2.413,4.624 3.515,3.523C4.616,2.421 5.9,1.556 7.329,0.951C8.809,0.325 10.38,0.008 12,0.008C13.62,0.008 15.191,0.325 16.671,0.951C18.1,1.556 19.384,2.421 20.485,3.523C21.587,4.624 22.452,5.907 23.057,7.336C23.683,8.817 24,10.388 24,12.008C24,13.627 23.683,15.199 23.057,16.679C22.452,18.108 21.587,19.391 20.485,20.493C19.384,21.595 18.1,22.46 16.671,23.064C15.191,23.69 13.62,24.008 12,24.008ZM12.004,1.041C9.076,1.041 6.324,2.17 4.254,4.22C2.184,6.27 1.044,8.996 1.044,11.895C1.044,14.794 2.184,17.52 4.254,19.57C6.324,21.62 9.076,22.749 12.004,22.749C14.932,22.749 17.684,21.62 19.754,19.57C21.824,17.52 22.964,14.794 22.964,11.895C22.964,8.996 21.824,6.27 19.754,4.22C17.684,2.17 14.932,1.041 12.004,1.041Z" stroke="#00000000" stroke-width="1" fill-rule="nonzero" id="path_0"/><path fill="#ffffff" d="M16.111,13.722L11.657,13.722L11.657,8.329L11.657,8.329C11.657,7.871 11.286,7.5 10.829,7.5L10.829,7.5L10.829,7.5C10.371,7.5 10,7.871 10,8.329L10,15.5L16.111,15.5L16.111,15.5C16.602,15.5 17,15.102 17,14.611L17,14.611L17,14.611C17,14.12 16.602,13.722 16.111,13.722Z" stroke="#00000000" stroke-width="1" fill-rule="nonzero" id="path_1"/></svg>