<svg width="32" height="32" viewBox="0 0 32 32" fill="none" xmlns="http://www.w3.org/2000/svg">
<path d="M16.75 21.6163C16.75 24.0338 18.7162 26 21.1338 26C23.5513 26 25.5175 24.0338 25.5175 21.6163C25.5175 21.395 25.4838 21.1825 25.4513 20.97H25.5V8.5H28V6H24.25C23.9185 6 23.6005 6.1317 23.3661 6.36612C23.1317 6.60054 23 6.91848 23 7.25V17.6663C22.418 17.3846 21.7803 17.2368 21.1338 17.2338C19.9716 17.2347 18.8574 17.6967 18.0355 18.5184C17.2136 19.34 16.7513 20.4541 16.75 21.6163ZM3 7.25H20.5V9.75H3V7.25Z" fill="white"/>
<path d="M3 12.25H20.5V14.75H3V12.25ZM3 17.25H14.25V19.75H3V17.25ZM3 22.25H14.25V24.75H3V22.25Z" fill="white"/>
</svg>
