<svg width="24" height="24" viewBox="0 0 24 24" fill="none" xmlns="http://www.w3.org/2000/svg">
<path d="M13.576 17.2706L8.466 14.4836C7.97549 14.9705 7.35181 15.3013 6.67359 15.4342C5.99536 15.5672 5.29296 15.4964 4.65492 15.2307C4.01689 14.9651 3.47179 14.5164 3.08835 13.9414C2.70491 13.3664 2.50029 12.6908 2.50029 11.9996C2.50029 11.3085 2.70491 10.6328 3.08835 10.0578C3.47179 9.4828 4.01689 9.03419 4.65492 8.76852C5.29296 8.50286 5.99536 8.43204 6.67359 8.56499C7.35181 8.69795 7.97549 9.02873 8.466 9.51562L13.576 6.72862C13.4007 5.90636 13.5273 5.04848 13.9326 4.31188C14.3379 3.57527 14.9947 3.00915 15.7831 2.71706C16.5715 2.42496 17.4386 2.4264 18.226 2.72111C19.0134 3.01582 19.6684 3.58411 20.0712 4.32206C20.474 5.06001 20.5978 5.9183 20.4198 6.73998C20.2418 7.56165 19.774 8.29181 19.1019 8.79692C18.4298 9.30204 17.5984 9.54835 16.7596 9.49082C15.9209 9.43329 15.1308 9.07577 14.534 8.48362L9.424 11.2706C9.52579 11.751 9.52579 12.2473 9.424 12.7276L14.534 15.5156C15.1308 14.9235 15.9209 14.566 16.7596 14.5084C17.5984 14.4509 18.4298 14.6972 19.1019 15.2023C19.774 15.7074 20.2418 16.4376 20.4198 17.2593C20.5978 18.0809 20.474 18.9392 20.0712 19.6772C19.6684 20.4151 19.0134 20.9834 18.226 21.2781C17.4386 21.5728 16.5715 21.5743 15.7831 21.2822C14.9947 20.9901 14.3379 20.424 13.9326 19.6874C13.5273 18.9508 13.4007 18.0929 13.576 17.2706Z" fill="#F2EFFF"/>
</svg>
