<svg id="vector" xmlns="http://www.w3.org/2000/svg" width="24" height="24" viewBox="0 0 100 100"><path fill="#00b9e6" d="M28.031,85.815C24.661,86.342 21.615,86.802 18.574,87.298C15.915,87.732 14.044,86.008 14.304,83.224C14.562,80.459 14.902,77.701 15.25,74.945C15.491,73.021 15.477,72.916 13.673,72.355C10.965,71.512 8.252,70.684 5.531,69.883C3.026,69.147 2.075,66.77 3.457,64.495C5.078,61.825 6.727,59.173 8.413,56.547C8.89,55.804 8.817,55.386 8.158,54.799C5.797,52.694 3.481,50.535 1.185,48.355C-0.561,46.699 -0.353,44.199 1.645,42.881C4.304,41.127 6.989,39.415 9.688,37.726C10.415,37.27 10.543,36.812 10.203,36.002C9.077,33.315 8.027,30.593 6.931,27.891C5.787,25.069 6.879,22.915 9.826,22.472C12.693,22.041 15.579,21.745 18.463,21.45C19.454,21.349 20.125,21.209 20.169,19.889C20.257,17.188 20.525,14.493 20.72,11.796C20.79,10.834 20.806,9.854 21.317,9.001C22.114,7.672 23.634,7.042 25.277,7.567C28.287,8.527 31.274,9.569 34.241,10.662C35.178,11.008 35.644,10.805 36.118,9.925C37.549,7.268 39.075,4.667 40.537,2.028C41.814,-0.277 44.402,-0.687 46.251,1.158C48.545,3.446 50.849,5.724 53.116,8.041C53.652,8.59 54.036,8.359 54.514,8.027C57.012,6.289 59.509,4.548 62.024,2.839C64.689,1.028 66.931,1.861 67.981,4.974C68.925,7.775 69.936,10.552 70.882,13.351C71.099,13.995 71.409,14.218 72.069,14.113C75.217,13.613 78.374,13.171 81.523,12.668C84.036,12.267 85.953,14.037 85.697,16.649C85.423,19.451 85.098,22.247 84.75,25.041C84.505,27.003 84.544,27.095 86.429,27.656C89.079,28.445 91.729,29.237 94.368,30.063C97.153,30.934 97.949,33.236 96.373,35.777C94.805,38.305 93.259,40.85 91.644,43.346C91.154,44.105 91.136,44.543 91.855,45.182C94.193,47.257 96.48,49.397 98.744,51.559C100.63,53.361 100.355,55.827 98.167,57.231C95.578,58.893 93.002,60.576 90.388,62.195C89.567,62.703 89.469,63.218 89.839,64.097C90.971,66.782 92.034,69.499 93.108,72.209C94.206,74.978 93.057,77.079 90.158,77.485C87.251,77.891 84.334,78.237 81.415,78.531C80.4,78.634 79.873,78.954 79.819,80.108C79.693,82.809 79.46,85.505 79.281,88.203C79.223,89.096 79.16,89.989 78.77,90.802C78.08,92.238 76.438,92.967 74.707,92.417C71.729,91.469 68.772,90.443 65.844,89.343C64.812,88.955 64.335,89.182 63.821,90.154C62.425,92.788 60.926,95.363 59.447,97.949C58.075,100.35 55.601,100.679 53.67,98.745C51.405,96.477 49.12,94.231 46.877,91.94C46.335,91.388 45.95,91.639 45.478,91.968C43.009,93.684 40.538,95.396 38.058,97.095C35.293,98.99 33.063,98.156 31.982,94.9C31.085,92.2 30.087,89.536 29.193,86.835C28.922,86.015 28.544,85.635 28.031,85.815Z" stroke="#00000000" stroke-width="1" fill-rule="evenodd" id="path_0"/></svg>