<svg width="24" height="24" viewBox="0 0 24 24" fill="none" xmlns="http://www.w3.org/2000/svg">
<path d="M21.9844 10.7229L17.7562 14.4129L19.0228 19.9067C19.0898 20.1939 19.0707 20.4945 18.9678 20.7709C18.8649 21.0472 18.6829 21.2872 18.4444 21.4606C18.2059 21.6341 17.9215 21.7334 17.6269 21.7462C17.3323 21.7589 17.0404 21.6845 16.7878 21.5323L11.9963 18.6261L7.215 21.5323C6.96241 21.6845 6.67055 21.7589 6.37591 21.7462C6.08127 21.7334 5.79693 21.6341 5.55843 21.4606C5.31993 21.2872 5.13786 21.0472 5.03498 20.7709C4.9321 20.4945 4.91298 20.1939 4.98 19.9067L6.24469 14.4186L2.01562 10.7229C1.79195 10.53 1.6302 10.2754 1.55068 9.99089C1.47115 9.70642 1.47739 9.4048 1.5686 9.12385C1.65981 8.84291 1.83194 8.59515 2.0634 8.41164C2.29486 8.22813 2.57535 8.11705 2.86969 8.09231L8.44406 7.6095L10.62 2.4195C10.7336 2.14717 10.9253 1.91455 11.1709 1.75093C11.4164 1.58731 11.7049 1.5 12 1.5C12.2951 1.5 12.5836 1.58731 12.8291 1.75093C13.0747 1.91455 13.2664 2.14717 13.38 2.4195L15.5625 7.6095L21.135 8.09231C21.4293 8.11705 21.7098 8.22813 21.9413 8.41164C22.1727 8.59515 22.3449 8.84291 22.4361 9.12385C22.5273 9.4048 22.5335 9.70642 22.454 9.99089C22.3745 10.2754 22.2127 10.53 21.9891 10.7229H21.9844Z" fill="#F2EFFF"/>
</svg>
