<svg width="24" height="24" viewBox="0 0 24 24" fill="none" xmlns="http://www.w3.org/2000/svg">
<g clip-path="url(#clip0_3464_13618)">
<path d="M12 2C13.3132 2 14.6136 2.25866 15.8268 2.7612C17.0401 3.26375 18.1425 4.00035 19.0711 4.92893C19.9997 5.85752 20.7362 6.95991 21.2388 8.17317C21.7413 9.38642 22 10.6868 22 12V12C22 14.6522 20.9464 17.1957 19.0711 19.0711C17.1957 20.9464 14.6522 22 12 22V22C10.6868 22 9.38642 21.7413 8.17317 21.2388C6.95991 20.7362 5.85752 19.9997 4.92893 19.0711C3.05357 17.1957 2 14.6522 2 12V12C2 9.34784 3.05357 6.8043 4.92893 4.92893C6.8043 3.05357 9.34784 2 12 2V2Z" fill="#4367F9"/>
<path d="M12 0.908936C14.9415 0.908936 17.7626 2.07745 19.8425 4.15741C21.9225 6.23738 23.091 9.05842 23.091 11.9999V11.9999C23.091 14.9415 21.9225 17.7625 19.8425 19.8425C17.7626 21.9224 14.9415 23.0909 12 23.0909V23.0909C9.05848 23.0909 6.23744 21.9224 4.15748 19.8425C2.07751 17.7625 0.908997 14.9415 0.908997 11.9999V11.9999C0.908997 9.05842 2.07751 6.23738 4.15748 4.15741C6.23744 2.07745 9.05848 0.908936 12 0.908936V0.908936Z" stroke="white" stroke-width="2.1818"/>
<path d="M9.47401 13.9111L6.75501 11.1921L5.33301 12.6071L9.47401 16.7481L18.363 7.85909L16.948 6.44409L9.47401 13.9111Z" fill="white"/>
</g>
<defs>
<clipPath id="clip0_3464_13618">
<rect width="24" height="24" fill="white"/>
</clipPath>
</defs>
</svg>
