<svg id="vector" xmlns="http://www.w3.org/2000/svg" width="24" height="24" viewBox="0 0 24 24"><path fill="#4367f9" d="M12,2L12,2A10,10 0,0 1,22 12L22,12A10,10 0,0 1,12 22L12,22A10,10 0,0 1,2 12L2,12A10,10 0,0 1,12 2z" stroke="#00000000" stroke-width="1" fill-rule="nonzero" id="path_0"/><path fill="#00000000" d="M12,0.909L12,0.909A11.091,11.091 0,0 1,23.091 12L23.091,12A11.091,11.091 0,0 1,12 23.091L12,23.091A11.091,11.091 0,0 1,0.909 12L0.909,12A11.091,11.091 0,0 1,12 0.909z" stroke="#ffffff" stroke-width="2.1818" fill-rule="nonzero" id="path_1"/><path fill="#ffffff" d="M9.474,13.911l-2.719,-2.719l-1.422,1.415l4.141,4.141l8.889,-8.889l-1.415,-1.415z" stroke="#00000000" stroke-width="1" fill-rule="nonzero" id="path_2"/></svg>