<svg width="50" height="50" viewBox="0 0 50 50" fill="none" xmlns="http://www.w3.org/2000/svg">
<path d="M25 35.9788L33.6458 41.208C35.2291 42.1663 37.1666 40.7497 36.75 38.958L34.4583 29.1247L42.1041 22.4997C43.5 21.2913 42.75 18.9997 40.9166 18.8538L30.8541 17.9997L26.9166 8.70801C26.2083 7.02051 23.7916 7.02051 23.0833 8.70801L19.1458 17.9788L9.0833 18.833C7.24997 18.9788 6.49997 21.2705 7.8958 22.4788L15.5416 29.1038L13.25 38.9372C12.8333 40.7288 14.7708 42.1455 16.3541 41.1872L25 35.9788Z" fill="black" fill-opacity="0.4"/>
<path d="M25.2587 35.551L25.0005 35.3948L24.742 35.5505L16.0961 40.7589L16.0952 40.7594C14.8923 41.4875 13.42 40.4133 13.737 39.0504L16.0286 29.2173L16.0971 28.9235L15.8691 28.726L8.22323 22.101L8.22305 22.1008C7.16049 21.181 7.7347 19.4419 9.12295 19.3314L9.12559 19.3312L19.1881 18.477L19.4883 18.4516L19.606 18.1743L23.5435 8.90347L23.5443 8.90153C24.0811 7.62267 25.9188 7.62267 26.4556 8.90153L26.4563 8.9031L30.3938 18.1948L30.5114 18.4724L30.8118 18.4979L40.8743 19.3521L40.877 19.3523C42.2652 19.4627 42.8394 21.2018 41.7769 22.1216L41.7767 22.1218L34.1309 28.7468L33.9029 28.9443L33.9713 29.2382L36.263 39.0713C36.263 39.0713 36.263 39.0714 36.263 39.0715C36.5798 40.4343 35.1076 41.5083 33.9047 40.7803L33.9046 40.7802L25.2587 35.551Z" stroke="white" stroke-opacity="0.4"/>
</svg>
