<svg id="vector" xmlns="http://www.w3.org/2000/svg" width="24" height="24" viewBox="0 0 24 24"><path fill="#ffffff" d="M6.6667,1.7C6.6667,1.0548 6.144,1 5.5,1C4.8548,1 4.3333,1.0548 4.3333,1.7L4.3333,11.5L6.6667,11.5L6.6667,1.7ZM4.3333,21.3C4.3333,21.9428 4.8548,22 5.5,22C6.144,22 6.6667,21.9428 6.6667,21.3L6.6667,17.3333L4.3333,17.3333L4.3333,21.3ZM8.2988,12.6667L2.6988,12.6667C2.0537,12.6667 2,13.1893 2,13.8333L2,15C2,15.6452 2.0537,16.1667 2.6988,16.1667L8.3,16.1667C8.9417,16.1667 9,15.6452 9,15L9,13.8333C9,13.1893 8.9417,12.6667 8.2988,12.6667ZM22.2988,13.8333L16.6977,13.8333C16.0537,13.8333 16,14.356 16,15L16,16.1667C16,16.8118 16.0537,17.3333 16.6988,17.3333L22.3,17.3333C22.9417,17.3333 23,16.8118 23,16.1667L23,15C23,14.356 22.9417,13.8333 22.2988,13.8333ZM16,8C16,7.356 15.9417,6.8333 15.2988,6.8333L9.6988,6.8333C9.0537,6.8333 9,7.356 9,8L9,9.1667C9,9.8118 9.0537,10.3333 9.6988,10.3333L15.3,10.3333C15.9417,10.3333 16,9.8118 16,9.1667L16,8ZM13.6667,1.7C13.6667,1.0548 13.144,1 12.5,1C11.8548,1 11.3333,1.0548 11.3333,1.7L11.3333,5.6667L13.6667,5.6667L13.6667,1.7ZM11.3333,21.3C11.3333,21.9428 11.8548,22 12.5,22C13.144,22 13.6667,21.9428 13.6667,21.3L13.6667,11.5L11.3333,11.5L11.3333,21.3ZM20.6667,1.7C20.6667,1.0548 20.144,1 19.5,1C18.8548,1 18.3333,1.0548 18.3333,1.7L18.3333,12.6667L20.6667,12.6667L20.6667,1.7ZM18.3333,21.3C18.3333,21.9428 18.8548,22 19.5,22C20.144,22 20.6667,21.9428 20.6667,21.3L20.6667,18.5L18.3333,18.5L18.3333,21.3Z" stroke="#00000000" stroke-width="1" fill-rule="evenodd" id="path_0"/></svg>