<svg width="32" height="32" viewBox="0 0 32 32" fill="none" xmlns="http://www.w3.org/2000/svg">
<path d="M16 29.001C13.6266 29.001 11.3065 28.2972 9.33316 26.9786C7.35977 25.66 5.8217 23.7859 4.91345 21.5932C4.0052 19.4005 3.76756 16.9877 4.23058 14.6599C4.6936 12.3321 5.83649 10.1939 7.51472 8.5157C9.19295 6.83747 11.3311 5.69458 13.6589 5.23156C15.9867 4.76854 18.3995 5.00618 20.5922 5.91443C22.7849 6.82268 24.6591 8.36075 25.9776 10.3341C27.2962 12.3075 28 14.6276 28 17.001C28 20.1836 26.7357 23.2358 24.4853 25.4863C22.2348 27.7367 19.1826 29.001 16 29.001ZM16 7.1828C14.0581 7.1828 12.1599 7.75863 10.5453 8.83746C8.93072 9.9163 7.6723 11.4497 6.92919 13.2437C6.18607 15.0378 5.99164 17.0119 6.37048 18.9164C6.74931 20.821 7.6844 22.5704 9.0575 23.9435C10.4306 25.3166 12.18 26.2517 14.0846 26.6305C15.9891 27.0093 17.9632 26.8149 19.7573 26.0718C21.5513 25.3287 23.0847 24.0703 24.1635 22.4557C25.2424 20.8411 25.8182 18.9428 25.8182 17.001C25.8182 14.397 24.7838 11.8997 22.9425 10.0585C21.1012 8.21721 18.6039 7.1828 16 7.1828Z" fill="#F2EFFF"/>
<path d="M18.59 21.001L15 17.411V11.001H17V16.581L20 19.591L18.59 21.001Z" fill="#F2EFFF"/>
<path d="M3 6.89648L6.88043 3.00953L8.41438 4.53964L4.53395 8.42659L3 6.89648Z" fill="#F2EFFF"/>
<path d="M23.5856 4.53027L25.1195 3.00017L29 6.88712L27.466 8.41723L23.5856 4.53027Z" fill="#F2EFFF"/>
</svg>
