<svg id="vector" xmlns="http://www.w3.org/2000/svg" width="24" height="24" viewBox="0 0 24 24"><path fill="#ffffff" d="M12.0552,2.8895L11.365,12.7597C10.7649,12.519 10.1584,12.3712 9.5445,12.3283C6.475,12.1137 3.8567,14.2696 3.6533,17.1792C3.4498,20.0888 5.7426,22.5881 8.8121,22.8027C11.8815,23.0174 14.4997,20.8615 14.7031,17.9519L15.4943,6.6385C15.5293,6.1376 15.9637,5.76 16.4646,5.795L19.5619,6.0116C20.0628,6.0467 20.4972,5.669 20.5322,5.1682L20.6495,3.4905C20.6846,2.9897 20.3069,2.5552 19.8061,2.5202L13.0255,2.0461C12.5246,2.011 12.0902,2.3887 12.0552,2.8895Z" stroke="#00000000" stroke-width="1" fill-rule="nonzero" id="path_0"/></svg>