<svg id="vector" xmlns="http://www.w3.org/2000/svg" width="24" height="24" viewBox="0 0 24 24"><path fill="#ffffff" d="M22.7695,9.8739C23.2207,9.5731 23.3711,9.1219 23.2207,8.3699C23.2207,8.3699 22.7695,7.1666 22.3183,6.4146C21.867,5.6626 21.115,4.6097 20.9646,4.6097C20.5134,4.1585 20.0622,4.0081 19.611,4.1585L19.4606,4.1585C18.1069,4.9105 16.302,4.4593 15.55,3.1057C15.3996,2.8049 15.2492,2.0528 15.2492,2.0528C15.2492,1.4512 14.798,1 14.1964,1L11.0379,1C10.8875,1 10.7371,1.1504 10.5867,1.1504C9.985,1.4512 9.8346,1.752 9.6842,2.0528C9.5338,2.5041 9.0826,3.8577 8.3306,4.3089C7.5786,4.7601 6.2249,4.4593 5.7737,4.3089C5.3225,4.3089 4.8713,4.3089 4.5704,4.4593C4.42,4.6097 4.2696,4.7601 4.1192,4.9105L2.4648,7.7682C2.164,8.2194 2.3144,8.9715 2.7656,9.2723C2.7656,9.2723 3.2168,9.7235 3.5176,10.1747C4.2696,11.5284 3.8184,13.3332 2.4648,14.0852L2.3144,14.0852C2.0136,14.3861 1.8632,14.9877 2.164,15.5893C2.164,15.5893 2.6152,16.7925 3.0664,17.5446C3.5176,18.2966 4.2696,19.3494 4.42,19.3494C4.8713,19.8006 5.3225,19.951 5.7737,19.8006C5.7737,19.8006 5.7737,19.8006 5.7737,19.8006L5.9241,19.8006C7.2777,19.0486 9.0826,19.4998 9.8346,20.8535C10.1354,21.3047 10.1354,21.9063 10.1354,21.9063C10.1354,22.5079 10.7371,22.9592 11.3387,23.1096L14.4972,23.1096C14.6476,23.1096 14.798,22.9592 14.9484,22.9592C15.2492,22.8087 15.55,22.3575 15.7004,22.0567C15.8508,21.6055 16.302,20.1015 17.0541,19.8006C17.8061,19.3494 19.3102,19.6502 19.7614,19.8006C20.0622,19.951 20.5134,19.8006 20.9646,19.6502C21.115,19.4998 21.2654,19.4998 21.4158,19.3494L23.0703,16.6421C23.3711,16.0405 23.2207,15.4389 22.6191,14.9877C22.6191,14.9877 22.1679,14.5365 21.867,14.0852C20.9646,12.4308 21.4158,10.6259 22.7695,9.8739ZM14.9484,15.8901C12.8427,17.0933 9.985,16.3413 8.7818,14.2357C7.5786,12.13 8.3306,9.2723 10.4362,8.069C12.5419,6.8658 15.3996,7.6178 16.6029,9.7235C17.8061,11.8292 17.0541,14.6869 14.9484,15.8901Z" stroke="#00000000" stroke-width="1" fill-rule="evenodd" id="path_0"/></svg>