<?xml version="1.0" encoding="UTF-8" standalone="no"?>
<svg viewBox="0 0 60.0 60.0">
  <path d="M14.05,23.09C13.88,23.09 13.72,23.02 13.6,22.9C13.49,22.78 13.42,22.62 13.42,22.45C13.42,22.28 13.49,22.11 13.6,21.99C13.72,21.87 13.88,21.8 14.05,21.8C16.49,21.8 18.53,19.87 18.72,17.41C18.71,17.26 18.7,17.14 18.7,17.03C18.7,16.86 18.77,16.69 18.89,16.57C19.01,16.45 19.17,16.38 19.34,16.38C19.51,16.38 19.67,16.45 19.79,16.57C19.9,16.69 19.97,16.86 19.97,17.03C19.97,17.13 19.98,17.22 19.99,17.32C19.99,17.35 19.99,17.42 19.99,17.45C19.81,20.11 17.93,22.29 15.49,22.91C15.02,23.03 14.54,23.09 14.05,23.09Z" fill="#FFFFFF"/>
  <path d="M45.88,23.09C43.58,23.09 41.56,21.75 40.57,19.77C39.58,21.75 37.56,23.09 35.27,23.09C32.97,23.09 30.95,21.75 29.96,19.77C28.97,21.75 26.95,23.09 24.66,23.09C21.55,23.09 18.94,20.62 18.72,17.45C18.72,17.42 18.72,17.39 18.72,17.36C18.73,17.21 18.74,17.12 18.74,17.03C18.74,16.86 18.81,16.69 18.93,16.57C19.05,16.45 19.21,16.38 19.38,16.38C19.54,16.38 19.7,16.45 19.82,16.57C19.94,16.69 20.01,16.86 20.01,17.03C20.01,17.15 20,17.28 19.99,17.4C20.16,19.85 22.21,21.8 24.66,21.8C27.11,21.8 29.16,19.85 29.33,17.36C29.35,17.03 29.63,16.76 29.96,16.76C30.3,16.76 30.57,17.03 30.6,17.36C30.77,19.85 32.82,21.8 35.27,21.8C37.72,21.8 39.77,19.85 39.94,17.36C39.96,17.03 40.24,16.76 40.57,16.76C40.91,16.76 41.18,17.03 41.2,17.36C41.38,19.85 43.43,21.8 45.88,21.8C46.04,21.8 46.21,21.87 46.32,21.99C46.44,22.11 46.51,22.28 46.51,22.45C46.51,22.62 46.44,22.78 46.32,22.9C46.21,23.02 46.04,23.09 45.88,23.09Z" fill="#FFFFFF"/>
  <path d="M14.05,23.49C13.88,23.49 13.72,23.42 13.6,23.3C13.49,23.18 13.42,23.02 13.42,22.85C13.42,22.68 13.49,22.51 13.6,22.39C13.72,22.27 13.88,22.2 14.05,22.2C16.49,22.2 18.53,20.27 18.72,17.81C18.71,17.66 18.7,17.54 18.7,17.43C18.7,17.26 18.77,17.09 18.89,16.97C19.01,16.85 19.17,16.78 19.34,16.78C19.51,16.78 19.67,16.85 19.79,16.97C19.9,17.09 19.97,17.26 19.97,17.43C19.97,17.53 19.98,17.62 19.99,17.72C19.99,17.75 19.99,17.82 19.99,17.85C19.81,20.51 17.93,22.69 15.49,23.31C15.02,23.43 14.54,23.49 14.05,23.49Z" fill="#FFFFFF"/>
  <path d="M45.88,23.49C43.58,23.49 41.56,22.15 40.57,20.17C39.58,22.15 37.56,23.49 35.27,23.49C32.97,23.49 30.95,22.15 29.96,20.17C28.97,22.15 26.95,23.49 24.66,23.49C21.55,23.49 18.94,21.02 18.72,17.85C18.72,17.82 18.72,17.79 18.72,17.76C18.73,17.61 18.74,17.52 18.74,17.43C18.74,17.26 18.81,17.09 18.93,16.97C19.05,16.85 19.21,16.78 19.38,16.78C19.54,16.78 19.7,16.85 19.82,16.97C19.94,17.09 20.01,17.26 20.01,17.43C20.01,17.55 20,17.68 19.99,17.8C20.16,20.25 22.21,22.2 24.66,22.2C27.11,22.2 29.16,20.25 29.33,17.76C29.35,17.43 29.63,17.16 29.96,17.16C30.3,17.16 30.57,17.43 30.6,17.76C30.77,20.25 32.82,22.2 35.27,22.2C37.72,22.2 39.77,20.25 39.94,17.76C39.96,17.43 40.24,17.16 40.57,17.16C40.91,17.16 41.18,17.43 41.2,17.76C41.38,20.25 43.43,22.2 45.88,22.2C46.04,22.2 46.21,22.27 46.32,22.39C46.44,22.51 46.51,22.68 46.51,22.85C46.51,23.02 46.44,23.18 46.32,23.3C46.21,23.42 46.04,23.49 45.88,23.49Z" fill="#FFFFFF"/>
  <path d="M14.05,33.09C13.88,33.09 13.72,33.02 13.6,32.9C13.49,32.78 13.42,32.62 13.42,32.45C13.42,32.28 13.49,32.11 13.6,31.99C13.72,31.87 13.88,31.8 14.05,31.8C16.49,31.8 18.53,29.87 18.72,27.41C18.71,27.26 18.7,27.14 18.7,27.03C18.7,26.86 18.77,26.69 18.89,26.57C19.01,26.45 19.17,26.38 19.34,26.38C19.51,26.38 19.67,26.45 19.79,26.57C19.9,26.69 19.97,26.86 19.97,27.03C19.97,27.13 19.98,27.22 19.99,27.32C19.99,27.35 19.99,27.42 19.99,27.45C19.81,30.11 17.93,32.29 15.49,32.91C15.02,33.03 14.54,33.09 14.05,33.09Z" fill="#FFFFFF"/>
  <path d="M45.88,33.09C43.58,33.09 41.56,31.75 40.57,29.77C39.58,31.75 37.56,33.09 35.27,33.09C32.97,33.09 30.95,31.75 29.96,29.77C28.97,31.75 26.95,33.09 24.66,33.09C21.55,33.09 18.94,30.62 18.72,27.45C18.72,27.42 18.72,27.39 18.72,27.36C18.73,27.21 18.74,27.12 18.74,27.03C18.74,26.86 18.81,26.69 18.93,26.57C19.05,26.45 19.21,26.38 19.38,26.38C19.54,26.38 19.7,26.45 19.82,26.57C19.94,26.69 20.01,26.86 20.01,27.03C20.01,27.15 20,27.28 19.99,27.4C20.16,29.85 22.21,31.8 24.66,31.8C27.11,31.8 29.16,29.85 29.33,27.36C29.35,27.03 29.63,26.76 29.96,26.76C30.3,26.76 30.57,27.03 30.6,27.36C30.77,29.85 32.82,31.8 35.27,31.8C37.72,31.8 39.77,29.85 39.94,27.36C39.96,27.03 40.24,26.76 40.57,26.76C40.91,26.76 41.18,27.03 41.2,27.36C41.38,29.85 43.43,31.8 45.88,31.8C46.04,31.8 46.21,31.87 46.32,31.99C46.44,32.11 46.51,32.28 46.51,32.45C46.51,32.62 46.44,32.78 46.32,32.9C46.21,33.02 46.04,33.09 45.88,33.09Z" fill="#FFFFFF"/>
  <path d="M14.05,33.49C13.88,33.49 13.72,33.42 13.6,33.3C13.49,33.18 13.42,33.02 13.42,32.85C13.42,32.68 13.49,32.51 13.6,32.39C13.72,32.27 13.88,32.2 14.05,32.2C16.49,32.2 18.53,30.27 18.72,27.81C18.71,27.66 18.7,27.54 18.7,27.43C18.7,27.26 18.77,27.09 18.89,26.97C19.01,26.85 19.17,26.78 19.34,26.78C19.51,26.78 19.67,26.85 19.79,26.97C19.9,27.09 19.97,27.26 19.97,27.43C19.97,27.53 19.98,27.62 19.99,27.72C19.99,27.75 19.99,27.82 19.99,27.85C19.81,30.51 17.93,32.69 15.49,33.31C15.02,33.43 14.54,33.49 14.05,33.49Z" fill="#FFFFFF"/>
  <path d="M45.88,33.49C43.58,33.49 41.56,32.15 40.57,30.17C39.58,32.15 37.56,33.49 35.27,33.49C32.97,33.49 30.95,32.15 29.96,30.17C28.97,32.15 26.95,33.49 24.66,33.49C21.55,33.49 18.94,31.02 18.72,27.85C18.72,27.82 18.72,27.79 18.72,27.76C18.73,27.61 18.74,27.52 18.74,27.43C18.74,27.26 18.81,27.09 18.93,26.97C19.05,26.85 19.21,26.78 19.38,26.78C19.54,26.78 19.7,26.85 19.82,26.97C19.94,27.09 20.01,27.26 20.01,27.43C20.01,27.55 20,27.68 19.99,27.8C20.16,30.25 22.21,32.2 24.66,32.2C27.11,32.2 29.16,30.25 29.33,27.76C29.35,27.43 29.63,27.16 29.96,27.16C30.3,27.16 30.57,27.43 30.6,27.76C30.77,30.25 32.82,32.2 35.27,32.2C37.72,32.2 39.77,30.25 39.94,27.76C39.96,27.43 40.24,27.16 40.57,27.16C40.91,27.16 41.18,27.43 41.2,27.76C41.38,30.25 43.43,32.2 45.88,32.2C46.04,32.2 46.21,32.27 46.32,32.39C46.44,32.51 46.51,32.68 46.51,32.85C46.51,33.02 46.44,33.18 46.32,33.3C46.21,33.42 46.04,33.49 45.88,33.49Z" fill="#FFFFFF"/>
  <path d="M14.05,43.09C13.88,43.09 13.72,43.02 13.6,42.9C13.49,42.78 13.42,42.62 13.42,42.45C13.42,42.28 13.49,42.11 13.6,41.99C13.72,41.87 13.88,41.8 14.05,41.8C16.49,41.8 18.53,39.87 18.72,37.41C18.71,37.26 18.7,37.14 18.7,37.03C18.7,36.86 18.77,36.69 18.89,36.57C19.01,36.45 19.17,36.38 19.34,36.38C19.51,36.38 19.67,36.45 19.79,36.57C19.9,36.69 19.97,36.86 19.97,37.03C19.97,37.13 19.98,37.22 19.99,37.32C19.99,37.35 19.99,37.42 19.99,37.45C19.81,40.11 17.93,42.29 15.49,42.91C15.02,43.03 14.54,43.09 14.05,43.09Z" fill="#FFFFFF"/>
  <path d="M45.88,43.09C43.58,43.09 41.56,41.75 40.57,39.77C39.58,41.75 37.56,43.09 35.27,43.09C32.97,43.09 30.95,41.75 29.96,39.77C28.97,41.75 26.95,43.09 24.66,43.09C21.55,43.09 18.94,40.62 18.72,37.45C18.72,37.42 18.72,37.39 18.72,37.36C18.73,37.21 18.74,37.12 18.74,37.03C18.74,36.86 18.81,36.69 18.93,36.57C19.05,36.45 19.21,36.38 19.38,36.38C19.54,36.38 19.7,36.45 19.82,36.57C19.94,36.69 20.01,36.86 20.01,37.03C20.01,37.15 20,37.28 19.99,37.4C20.16,39.85 22.21,41.8 24.66,41.8C27.11,41.8 29.16,39.85 29.33,37.36C29.35,37.03 29.63,36.76 29.96,36.76C30.3,36.76 30.57,37.03 30.6,37.36C30.77,39.85 32.82,41.8 35.27,41.8C37.72,41.8 39.77,39.85 39.94,37.36C39.96,37.03 40.24,36.76 40.57,36.76C40.91,36.76 41.18,37.03 41.2,37.36C41.38,39.85 43.43,41.8 45.88,41.8C46.04,41.8 46.21,41.87 46.32,41.99C46.44,42.11 46.51,42.28 46.51,42.45C46.51,42.62 46.44,42.78 46.32,42.9C46.21,43.02 46.04,43.09 45.88,43.09Z" fill="#FFFFFF"/>
  <path d="M14.05,43.49C13.88,43.49 13.72,43.42 13.6,43.3C13.49,43.18 13.42,43.02 13.42,42.85C13.42,42.68 13.49,42.51 13.6,42.39C13.72,42.27 13.88,42.2 14.05,42.2C16.49,42.2 18.53,40.27 18.72,37.81C18.71,37.66 18.7,37.54 18.7,37.43C18.7,37.26 18.77,37.09 18.89,36.97C19.01,36.85 19.17,36.78 19.34,36.78C19.51,36.78 19.67,36.85 19.79,36.97C19.9,37.09 19.97,37.26 19.97,37.43C19.97,37.53 19.98,37.62 19.99,37.72C19.99,37.75 19.99,37.82 19.99,37.85C19.81,40.51 17.93,42.69 15.49,43.31C15.02,43.43 14.54,43.49 14.05,43.49Z" fill="#FFFFFF"/>
  <path d="M45.88,43.49C43.58,43.49 41.56,42.15 40.57,40.17C39.58,42.15 37.56,43.49 35.27,43.49C32.97,43.49 30.95,42.15 29.96,40.17C28.97,42.15 26.95,43.49 24.66,43.49C21.55,43.49 18.94,41.02 18.72,37.85C18.72,37.82 18.72,37.79 18.72,37.76C18.73,37.61 18.74,37.52 18.74,37.43C18.74,37.26 18.81,37.09 18.93,36.97C19.05,36.85 19.21,36.78 19.38,36.78C19.54,36.78 19.7,36.85 19.82,36.97C19.94,37.09 20.01,37.26 20.01,37.43C20.01,37.55 20,37.68 19.99,37.8C20.16,40.25 22.21,42.2 24.66,42.2C27.11,42.2 29.16,40.25 29.33,37.76C29.35,37.43 29.63,37.16 29.96,37.16C30.3,37.16 30.57,37.43 30.6,37.76C30.77,40.25 32.82,42.2 35.27,42.2C37.72,42.2 39.77,40.25 39.94,37.76C39.96,37.43 40.24,37.16 40.57,37.16C40.91,37.16 41.18,37.43 41.2,37.76C41.38,40.25 43.43,42.2 45.88,42.2C46.04,42.2 46.21,42.27 46.32,42.39C46.44,42.51 46.51,42.68 46.51,42.85C46.51,43.02 46.44,43.18 46.32,43.3C46.21,43.42 46.04,43.49 45.88,43.49Z" fill="#FFFFFF"/>
</svg>
