<svg id="vector" xmlns="http://www.w3.org/2000/svg" width="24" height="24" viewBox="0 0 54 54"><path fill="#ffffff" d="M27,0C41.9063,0 54,12.0938 54,27C54,41.9063 41.9063,54 27,54C12.0938,54 0,41.9063 0,27C0,12.0938 12.0938,0 27,0ZM40.5,28.9328C41.2042,28.5457 41.625,27.8078 41.625,27C41.625,26.1922 41.2042,25.452 40.5,25.0672L21.375,13.8172C20.7068,13.3965 19.827,13.3965 19.125,13.7813C18.4208,14.202 18,14.9422 18,15.75L18,38.25C18,39.0578 18.4208,39.798 19.125,40.2188C19.476,40.3943 19.863,40.5 20.25,40.5C20.637,40.5 21.024,40.3943 21.375,40.1828L40.5,28.9328Z" stroke="#00000000" stroke-width="1" fill-rule="evenodd" id="path_0"/></svg>