<svg id="vector" xmlns="http://www.w3.org/2000/svg" width="24" height="24" viewBox="0 0 36 36"><path fill="#ffffff" d="M18,5C10.8203,5 5,10.8203 5,17.9999C5,25.1796 10.8203,31 18,31C25.1796,31 31,25.1796 31,17.9999C31,10.8203 25.1796,5 18,5ZM19.6249,25.6171C19.6249,25.8975 19.3976,26.1249 19.1171,26.1249L16.8827,26.1249C16.6023,26.1249 16.3749,25.8975 16.3749,25.6171L16.3749,23.3828C16.3749,23.1024 16.6023,22.8749 16.8827,22.8749L19.1171,22.8749C19.3976,22.8749 19.6249,23.1024 19.6249,23.3828L19.6249,25.6171ZM19.6249,19.1172C19.6249,19.3977 19.3977,19.6249 19.1171,19.6249L16.8827,19.6249C16.6023,19.6249 16.3749,19.3977 16.3749,19.1172L16.3749,10.3828C16.3749,10.1023 16.6023,9.875 16.8827,9.875L19.1171,9.875C19.3977,9.875 19.6249,10.1023 19.6249,10.3828L19.6249,19.1172Z" stroke="#00000000" stroke-width="1" fill-rule="nonzero" id="path_0"/></svg>