<?xml version="1.0" encoding="UTF-8" standalone="no"?>
<svg viewBox="0 0 60.0 60.0">
  <path d="M31.9,45C26.53,45 21.54,42.06 18.88,37.34C16.99,33.83 16.48,29.75 17.56,25.92C18.63,22.03 21.16,18.84 24.57,16.86C26.4,15.84 28.36,15.2 30.44,15.01C30.95,14.95 31.39,15.2 31.65,15.65C31.9,16.09 31.83,16.6 31.58,16.99C28.61,21.01 28.23,26.37 30.63,30.64C32.85,34.6 36.95,37.02 41.44,37.02C41.82,37.02 42.26,37.02 42.64,36.96C43.14,36.9 43.59,37.15 43.84,37.6C44.09,38.04 44.03,38.56 43.78,38.94C42.51,40.6 41,42 39.16,43.02C36.95,44.36 34.43,45 31.9,45ZM28.6,17C27.24,17.41 26.3,17.77 25.81,18.09C22.69,19.79 20.45,22.65 19.5,26.05C18.55,29.46 18.96,33.06 20.72,36.19C23.09,40.41 27.5,43 32.32,43C34.56,43 36.86,42.39 38.83,41.3C39.58,40.89 40.89,39.95 41.57,39.4C36.41,38.86 30.74,35.84 28.23,31.28C26.47,28.24 26.59,23.48 28.6,17Z" fill="#ffffff"/>
</svg>
