<?xml version="1.0" encoding="UTF-8" standalone="no"?>
<svg viewBox="0 0 512.0 512.0">
  <g transform="translate(110 110) scale(0.6 0.6)">
    <path d="M511.958,466.447V322.17c0,-10.862 -11.424,-18.345 -21.481,-13.524c-5.939,2.848 -11.655,6.4 -16.99,10.56c-21.693,16.922 -50.846,16.921 -72.539,0c-32.685,-25.494 -75.738,-25.506 -108.454,0.013l-0.541,0.417c-12.971,9.899 -26.293,5.064 -31.42,2.527c-9.418,-4.662 -19.579,-15.206 -19.573,-30.815c0.011,-24.699 0.017,-51.063 0.02,-72.867c0.506,4.988 3.57,9.292 7.77,11.612c11.293,6.47 24.161,9.892 37.238,9.892c29.262,0 50.163,-13.516 62.237,-32.353c29.438,-24.426 44.489,-57.989 42.571,-92.622c0.08,-2.087 -0.98,-15.597 -5.937,-29.996c-16.56,-48.104 -64.796,-84.997 -128.867,-84.997h-59.992c-74.429,0 -134.982,60.553 -134.982,134.982c0,6.236 0,144.492 0,151.472c0,24.39 -21.062,44.994 -45.994,44.994c-8.283,0 -14.998,6.715 -14.998,14.998v119.984c0,4.646 -0.943,14.256 8.817,18.671c4.431,2.005 8.705,4.602 12.703,7.721c32.73,25.528 76.709,25.528 109.437,0c21.728,-16.948 49.808,-16.949 71.54,0c32.631,25.451 75.686,25.545 108.437,0c21.728,-16.948 49.808,-16.949 71.54,0c32.728,25.527 76.705,25.53 109.436,0c3.637,-2.836 7.509,-5.246 11.509,-7.165C513.108,481.04 511.958,471.299 511.958,466.447zM248.359,204.057c-3.946,2.33 -6.883,6.522 -7.38,11.378c0,-0.455 0.011,-45.26 -0.005,-45.713c-0.507,-14.746 5.73,-28.465 15.548,-37.741c9.083,8.432 14.467,20.379 14.467,33.013C270.989,180.332 263.082,195.412 248.359,204.057zM321.743,193.315c-8.533,11.838 -21.346,16.673 -35.755,16.673c-0.016,0 -0.032,-0.001 -0.049,-0.001c9.59,-12.803 15.047,-28.554 15.047,-44.993c0,-16.428 -5.45,-32.17 -15.028,-44.968c0.271,0 0.545,-0.013 0.815,-0.008c0.198,0.003 0.392,0.009 0.588,0.014c22.866,0.68 43.097,18.285 43.097,44.992C330.457,182.213 323.248,189.093 321.743,193.315zM91.013,286.47c0,-7.014 0,-145.246 0,-151.472c0,-44.796 28.205,-83.123 67.787,-98.172c-23.387,21.585 -37.791,50.91 -37.791,83.174v136.474c0,25.986 -9.419,44.714 -28.793,57.253c-2.656,1.719 -5.504,3.318 -8.535,4.794C88.481,308.615 91.013,297.725 91.013,286.47zM481.962,463.287c-2.911,1.799 -5.744,3.768 -8.476,5.897c-21.693,16.924 -50.845,16.922 -72.539,0.001c-32.629,-25.451 -75.686,-25.546 -108.437,0c-21.729,16.95 -49.811,16.948 -71.54,0c-32.629,-25.451 -75.686,-25.546 -108.437,0c-21.693,16.921 -50.844,16.922 -72.539,0.001c-3.2,-2.496 -6.536,-4.761 -9.975,-6.797v-38.667c31.567,19.457 70.982,17.51 100.962,-5.875c21.728,-16.948 49.808,-16.949 71.54,0c32.631,25.451 75.686,25.545 108.437,0c21.728,-16.948 49.808,-16.949 71.54,0c29.452,22.971 68.076,25.319 99.464,6.786V463.287zM481.963,388.297c-2.911,1.799 -5.744,3.768 -8.476,5.897c-21.693,16.923 -50.846,16.921 -72.539,0c-32.629,-25.451 -75.686,-25.546 -108.437,0c-21.729,16.95 -49.811,16.948 -71.54,0c-32.629,-25.451 -75.686,-25.546 -108.437,0c-21.694,16.922 -50.845,16.923 -72.54,0.002c-3.2,-2.496 -6.536,-4.761 -9.975,-6.797v-26.346c77.128,-4.242 120.985,-41.82 120.985,-104.579V120c0,-49.62 47.097,-89.988 104.986,-89.988c47.511,0 86.962,25.422 100.506,64.766c2.346,6.815 3.75,13.652 4.268,20.42c-0.389,9.425 -1.328,18.349 -2.805,26.531c-0.055,0.305 -0.082,0.608 -0.118,0.912c-0.052,0.175 -0.096,0.352 -0.15,0.526c-0.65,-2.115 -1.421,-4.205 -2.264,-6.276c-18.157,-48.982 -75.827,-57.578 -107.757,-36.327c-21.942,13.098 -36.676,37.071 -36.676,64.43c0,0.488 0.027,0.969 0.073,1.445c-0.026,1.344 -0.024,2.691 0.018,4.04c0,4.356 -0.001,66.625 -0.024,120.856c-0.011,24.55 13.846,46.663 36.161,57.709c21.13,10.46 44.655,8.38 62.924,-5.562c0.277,-0.211 0.553,-0.424 0.811,-0.625c21.728,-16.949 49.808,-16.949 71.54,0c29.452,22.971 68.076,25.319 99.464,6.786V388.297z" fill="#ffffff"/>
  </g>
</svg>
