<?xml version="1.0" encoding="UTF-8" standalone="no"?>
<svg viewBox="0 0 60.0 60.0">
  <path d="M30.92,40.7l1.48,0l0,5.27l-1.48,0z" fill="#ffffff"/>
  <path d="M42.06,40.7l1.48,0l0,5.27l-1.48,0z" fill="#ffffff"/>
  <path d="M45.64,38.76L37.74,28.19C37.6,28 37.38,27.89 37.15,27.89L22.64,27.89C22.56,27.89 22.48,27.9 22.41,27.93C22.35,27.95 22.31,27.96 22.29,27.98C22.22,28.02 22.19,28.04 22.16,28.07C22.11,28.11 22.08,28.14 22.06,28.17C22.06,28.17 19.42,31.7 14.15,38.76C13.98,38.98 13.95,39.29 14.08,39.54C14.2,39.79 14.46,39.95 14.74,39.95L16.46,39.95L16.46,45.97L17.95,45.97L17.95,39.21C17.95,39.17 17.94,39.14 17.94,39.1L23.17,31.83L22.5,30.94L17.09,38.46L16.23,38.46L22.64,29.88L29.94,39.66C30.08,39.84 30.3,39.95 30.53,39.95L45.05,39.95C45.33,39.95 45.58,39.79 45.71,39.54C45.84,39.29 45.81,38.98 45.64,38.76ZM30.9,38.46L24.13,29.38L36.78,29.38L43.56,38.46L30.9,38.46Z" fill="#ffffff"/>
  <path d="M23.39,15.86C22.68,15.86 22.11,16.43 22.11,17.14L22.11,18.42C22.11,19.13 22.68,19.7 23.39,19.7C24.09,19.7 24.67,19.13 24.67,18.42L24.67,17.14C24.67,16.43 24.09,15.86 23.39,15.86Z" fill="#ffffff"/>
  <path d="M20.83,20.77C20.12,20.77 19.55,21.35 19.55,22.06L19.55,23.34C19.55,24.05 20.12,24.62 20.83,24.62C21.53,24.62 22.11,24.05 22.11,23.34L22.11,22.06C22.11,21.35 21.53,20.77 20.83,20.77Z" fill="#ffffff"/>
  <path d="M30.85,15.86C30.15,15.86 29.57,16.43 29.57,17.14L29.57,18.42C29.57,19.13 30.15,19.7 30.85,19.7C31.56,19.7 32.13,19.13 32.13,18.42L32.13,17.14C32.13,16.43 31.56,15.86 30.85,15.86Z" fill="#ffffff"/>
  <path d="M28.29,20.77C27.59,20.77 27.01,21.35 27.01,22.06L27.01,23.34C27.01,24.05 27.59,24.62 28.29,24.62C29,24.62 29.57,24.05 29.57,23.34L29.57,22.06C29.57,21.35 29,20.77 28.29,20.77Z" fill="#ffffff"/>
  <path d="M38.32,15.86C37.61,15.86 37.04,16.43 37.04,17.14L37.04,18.42C37.04,19.13 37.61,19.7 38.32,19.7C39.03,19.7 39.6,19.13 39.6,18.42L39.6,17.14C39.6,16.43 39.03,15.86 38.32,15.86Z" fill="#ffffff"/>
  <path d="M35.76,20.77C35.05,20.77 34.48,21.35 34.48,22.06L34.48,23.34C34.48,24.05 35.05,24.62 35.76,24.62C36.47,24.62 37.04,24.05 37.04,23.34L37.04,22.06C37.04,21.35 36.47,20.77 35.76,20.77Z" fill="#ffffff"/>
</svg>
