<?xml version="1.0" encoding="UTF-8" standalone="no"?>
<svg viewBox="0 0 512.0 511.0">
  <g transform="translate(100 100) scale(0.6 0.6)">
    <path d="m196,271.496c0,8.285 -6.715,15 -15,15s-15,-6.715 -15,-15 6.715,-15 15,-15 15,6.715 15,15zM196,271.496" fill="#ffffff"/>
    <path d="m345.996,271.496c0,8.285 -6.715,15 -15,15 -8.281,0 -15,-6.715 -15,-15s6.719,-15 15,-15c8.285,0 15,6.715 15,15zM345.996,271.496" fill="#ffffff"/>
    <path d="m315.996,361.492c-8.281,0 -15,6.719 -15,15 0,8.273 -6.727,15 -14.996,15 -8.273,0 -15,-6.727 -15,-15v-17.578c17.457,-6.191 29.996,-22.863 29.996,-42.418 0,-24.813 -20.184,-45 -44.996,-45s-45,20.188 -45,45c0,19.555 12.539,36.227 30,42.418v17.578c0,8.273 -6.73,15 -15,15 -8.273,0 -15,-6.727 -15,-15 0,-8.281 -6.715,-15 -15,-15s-15,6.719 -15,15c0,24.813 20.188,45 45,45 11.516,0 22.031,-4.352 30,-11.492 7.965,7.141 18.48,11.492 30,11.492 24.813,0 44.996,-20.188 44.996,-45 0,-8.281 -6.715,-15 -15,-15zM256,301.496c8.27,0 15,6.727 15,15 0,8.27 -6.73,15 -15,15 -8.273,0 -15,-6.73 -15,-15 0,-8.273 6.727,-15 15,-15zM256,301.496" fill="#ffffff"/>
    <path d="m501.691,392.246 l-32.211,-10.617c7.66,-19.102 11.516,-40.84 11.516,-65.133v-8.934l20.695,-6.82c7.867,-2.594 12.145,-11.074 9.551,-18.941 -2.598,-7.871 -11.078,-12.145 -18.941,-9.551l-11.305,3.727v-229.477c0,-8.285 -6.715,-15 -15,-15 -29.121,0 -56.852,9.129 -80.203,26.398 -18.277,13.52 -32.594,31.047 -42.059,51.293 -27.395,-11.598 -57.094,-17.695 -87.734,-17.695s-60.344,6.098 -87.734,17.695c-9.465,-20.246 -23.781,-37.773 -42.059,-51.293 -23.352,-17.27 -51.086,-26.398 -80.203,-26.398 -8.285,0 -15,6.715 -15,15v229.477l-11.305,-3.727c-7.863,-2.59 -16.348,1.68 -18.941,9.547 -2.594,7.871 1.684,16.348 9.551,18.941l20.695,6.824v8.93c0,24.297 3.855,46.035 11.516,65.133l-32.211,10.621c-7.867,2.594 -12.145,11.074 -9.551,18.941 2.082,6.309 7.945,10.309 14.242,10.309 1.559,0 3.141,-0.246 4.699,-0.758l37.293,-12.293c10.871,15.547 25.125,28.703 42.75,39.371 37.438,22.66 88.547,33.676 156.258,33.676 67.707,0 118.82,-11.016 156.258,-33.676 17.625,-10.668 31.879,-23.824 42.75,-39.371l37.293,12.293c1.559,0.512 3.141,0.758 4.699,0.758 6.297,0 12.16,-4 14.242,-10.309 2.594,-7.867 -1.684,-16.348 -9.551,-18.941zM450.996,62.559v141.527c-9.754,-16.855 -21.766,-32.551 -35.902,-46.688 -13.547,-13.547 -28.52,-25.141 -44.574,-34.668 14.855,-32.543 45.16,-55.141 80.477,-60.172zM300.996,126.75c10.344,2.449 20.367,5.727 30,9.758v29.988c0,8.273 -6.727,15 -15,15 -8.27,0 -15,-6.727 -15,-15zM181,136.508c9.637,-4.031 19.66,-7.309 30,-9.758v39.75c0,8.27 -6.73,15 -15,15s-15,-6.73 -15,-15zM141.48,122.73c-16.055,9.527 -31.031,21.121 -44.578,34.668 -14.137,14.137 -26.148,29.832 -35.898,46.688v-141.527c35.316,5.031 65.617,27.629 80.477,60.172zM396.723,422.152c-32.164,19.469 -79.512,29.34 -140.723,29.34 -61.215,0 -108.559,-9.871 -140.723,-29.34 -11.098,-6.715 -20.449,-14.586 -28.105,-23.656l23.527,-7.758c7.867,-2.594 12.141,-11.074 9.547,-18.941s-11.074,-12.141 -18.941,-9.551l-30.215,9.961c-6.645,-15.727 -9.977,-33.926 -10.078,-54.75l40.293,13.285c1.563,0.512 3.145,0.758 4.699,0.758 6.297,0 12.164,-4 14.242,-10.309 2.594,-7.867 -1.68,-16.348 -9.547,-18.941l-47.41,-15.629c8.699,-56.34 41.598,-104.797 87.711,-134.375v14.25c0,24.813 20.188,45 45,45s45,-20.188 45,-45v-44.426c4.949,-0.379 9.953,-0.57 15,-0.57 5.043,0 10.047,0.191 15,0.57v44.426c0,24.813 20.184,45 44.996,45s45,-20.188 45,-45v-14.25c46.113,29.578 79.012,78.035 87.711,134.375l-47.406,15.629c-7.867,2.594 -12.145,11.074 -9.551,18.941 2.082,6.309 7.945,10.309 14.242,10.309 1.559,0 3.141,-0.246 4.699,-0.758l40.293,-13.285c-0.102,20.824 -3.434,39.023 -10.078,54.75l-30.215,-9.961c-7.863,-2.586 -16.348,1.684 -18.941,9.551s1.684,16.348 9.551,18.941l23.527,7.758c-7.66,9.07 -17.012,16.941 -28.105,23.656zM396.723,422.152" fill="#ffffff"/>
  </g>
</svg>
