<svg id="vector" xmlns="http://www.w3.org/2000/svg" width="24" height="24" viewBox="0 0 60 60"><path fill="#ffffff" d="M30.1667,39.6667L32.5,39.6667A0.8333,0.8333 0,0 1,33.3333 40.5L33.3333,40.5A0.8333,0.8333 0,0 1,32.5 41.3333L30.1667,41.3333A0.8333,0.8333 0,0 1,29.3333 40.5L29.3333,40.5A0.8333,0.8333 0,0 1,30.1667 39.6667z" stroke="#00000000" stroke-width="1" fill-rule="nonzero" id="path_0"/><path fill="none" d="M33.5107,21.6439C34.6731,21.8962 35.7025,22.7161 36.5989,24.1035C37.0226,24.7593 39.6912,28.1207 40.4491,29.1C41.2069,30.0793 42.9244,31.9393 43.6624,32.8258C44.4005,33.7124 45.2981,34.7018 46.0612,35.3311C47.1062,36.193 44.777,38.2272 43.8646,37.6481C43.0759,37.1476 40.7932,35.1011 37.6742,31.8739C37.1799,31.3625 36.3758,30.6718 35.2617,29.8018C34.8306,29.3339 34.7398,29.9103 34.9893,31.5309C35.2388,33.1515 35.3296,34.4183 35.2617,35.3311L41.6737,40.7433C42.9684,42.791 42.0869,43.8148 39.0293,43.8148C35.9716,43.8148 29.6563,43.8148 20.0833,43.8148C18.783,43.354 18.1328,42.9658 18.1328,42.6502C18.1328,42.432 18.0266,41.921 18.4609,40.9817C18.5902,40.7019 18.9353,40.1877 19.4962,39.4391L24.7804,35.3311C25.107,33.5832 25.2703,32.1031 25.2703,30.891C25.2703,29.6789 25.107,29.2785 24.7804,29.6898C23.6365,30.9794 22.8207,31.8889 22.3331,32.4182C21.6017,33.2123 18.2322,36.7913 17.0094,37.3026C15.7866,37.8139 13.7114,37.2117 14.4,35.3311C14.6634,34.6117 15.9998,33.7461 17.0094,32.4182C17.7584,31.4333 18.6902,30.3272 19.805,29.1C21.3666,26.2109 22.5822,24.3471 23.452,23.5085C24.6324,22.3705 25.7311,21.9737 27.1732,21.6439C30.2092,20.9494 32.3216,20.9494 33.5107,21.6439Z" stroke="#ffffff" stroke-width="1.7" fill-rule="nonzero" id="path_1"/><path fill="#00000000" d="M26.5,43.0473L30.0663,40.5L27.7255,40.5C27.112,40.5 26.5,41.3257 26.5,42.4444L26.5,43.0473Z" stroke="#ffffff" stroke-width="1.6667" fill-rule="nonzero" id="path_2"/><path fill="#00000000" d="M29.3186,17.3971m-3.3971,0a3.3971,3.3971 0,1 1,6.7941 0a3.3971,3.3971 0,1 1,-6.7941 0" stroke="#ffffff" stroke-width="1.9" fill-rule="nonzero" id="path_3"/></svg>