<svg id="vector" xmlns="http://www.w3.org/2000/svg" width="24" height="24" viewBox="0 0 60 60"><path fill="none" d="M30.4359,29.5641m-11.3333,0a11.3333,11.3333 0,1 1,22.6667 0a11.3333,11.3333 0,1 1,-22.6667 0" stroke="#ffffff" stroke-width="1.9" fill-rule="nonzero" id="path_0"/><path fill="#ffffff" d="M30.5141,14L30.5141,14A0.95,0.95 0,0 1,31.4641 14.95L31.4641,21.05A0.95,0.95 0,0 1,30.5141 22L30.5141,22A0.95,0.95 0,0 1,29.5641 21.05L29.5641,14.95A0.95,0.95 0,0 1,30.5141 14z" stroke="#00000000" stroke-width="1" fill-rule="nonzero" id="path_1"/><path fill="#ffffff" d="M30.5141,37.4103L30.5141,37.4103A0.95,0.95 0,0 1,31.4641 38.3603L31.4641,44.4603A0.95,0.95 0,0 1,30.5141 45.4103L30.5141,45.4103A0.95,0.95 0,0 1,29.5641 44.4603L29.5641,38.3603A0.95,0.95 0,0 1,30.5141 37.4103z" stroke="#00000000" stroke-width="1" fill-rule="nonzero" id="path_2"/><path fill="#ffffff" d="M45.8474,29.2051L45.8474,29.2051A0.95,0.95 0,0 1,44.8974 30.1551L38.7974,30.1551A0.95,0.95 0,0 1,37.8474 29.2051L37.8474,29.2051A0.95,0.95 0,0 1,38.7974 28.2551L44.8974,28.2551A0.95,0.95 0,0 1,45.8474 29.2051z" stroke="#00000000" stroke-width="1" fill-rule="nonzero" id="path_3"/><path fill="#ffffff" d="M22.309,29.2051L22.309,29.2051A0.95,0.95 0,0 1,21.359 30.1551L15.259,30.1551A0.95,0.95 0,0 1,14.309 29.2051L14.309,29.2051A0.95,0.95 0,0 1,15.259 28.2551L21.359,28.2551A0.95,0.95 0,0 1,22.309 29.2051z" stroke="#00000000" stroke-width="1" fill-rule="nonzero" id="path_4"/></svg>