<?xml version="1.0" encoding="UTF-8" standalone="no"?>
<svg viewBox="0 0 60.0 60.0">
  <path d="M30.1668,36.7212L30.1668,36.7212C30.7329,36.7212 31.1918,36.2623 31.1918,35.6962L31.1918,24.7826C31.1918,24.2165 30.7329,23.7576 30.1668,23.7576L30.1668,23.7576C29.6006,23.7576 29.1417,24.2165 29.1417,24.7826L29.1417,35.6962C29.1417,36.2623 29.6006,36.7212 30.1668,36.7212ZM13.0249,36.1577L13.0249,36.1577C13.591,36.1577 14.0499,35.6989 14.0499,35.1328L14.0499,24.7825C14.0499,24.2165 13.591,23.7576 13.0249,23.7576L13.0249,23.7576C12.4589,23.7576 12,24.2165 12,24.7825L12,35.1328C12,35.6989 12.4589,36.1577 13.0249,36.1577ZM24.4528,36.1576L24.4528,36.1576C25.0188,36.1576 25.4777,35.6987 25.4777,35.1326L25.4777,25.7219C25.4777,25.1559 25.0188,24.697 24.4528,24.697L24.4528,24.697C23.8867,24.697 23.4278,25.1559 23.4278,25.7219L23.4278,35.1326C23.4278,35.6987 23.8867,36.1576 24.4528,36.1576ZM18.7389,40.6667C18.1728,40.6667 17.7139,40.2078 17.7139,39.6417L17.7139,21.0249C17.7139,20.4589 18.1728,20 18.7389,20C19.3049,20 19.7638,20.4589 19.7638,21.0249L19.7638,39.6417C19.7638,40.2078 19.3049,40.6667 18.7389,40.6667ZM35.8806,35.7818C35.3145,35.7818 34.8557,35.3229 34.8557,34.7569L34.8557,26.6613C34.8557,26.0952 35.3145,25.6364 35.8806,25.6364C36.4466,25.6364 36.9055,26.0952 36.9055,26.6613L36.9055,34.7569C36.9055,35.3229 36.4466,35.7818 35.8806,35.7818ZM41.5945,37.097C41.0284,37.097 40.5695,36.6381 40.5695,36.072L40.5695,24.7825C40.5695,24.2165 41.0284,23.7576 41.5945,23.7576C42.1606,23.7576 42.6194,24.2165 42.6194,24.7825L42.6194,36.072C42.6194,36.6381 42.1606,37.097 41.5945,37.097ZM47.3084,39.7273C46.7423,39.7273 46.2834,39.2684 46.2834,38.7023L46.2834,21.9643C46.2834,21.3983 46.7423,20.9394 47.3084,20.9394C47.8745,20.9394 48.3333,21.3983 48.3333,21.9643L48.3333,38.7023C48.3333,39.2684 47.8745,39.7273 47.3084,39.7273Z" fill="#ffffff"/>
</svg>
