<?xml version="1.0" encoding="UTF-8" standalone="no"?>
<svg viewBox="0 0 60.0 60.0">
  <path d="M17.0304,15.3708C21.3499,27.7273 24.4186,37.0487 26.2366,43.3348C26.2823,43.4927 26.5414,43.8876 27.014,44.5197L27.6565,44.5197L33.8079,46.1147L34.3001,45.7493L34.5817,44.8284L29.02,42.2784L19.7809,17.0019C19.7809,17.0019 18.9655,14.6913 20.7317,16.5941C20.7317,16.5941 21.411,18.2247 21.9547,19.7191C21.9547,19.7191 25.7587,23.3885 29.9709,19.0397C29.9709,19.0397 36.2276,11.2671 40.1677,16.2954L32.7171,43.3348C32.7171,43.6308 31.7187,45.6145 33.1119,45.4506C33.595,45.3937 33.4274,45.8432 34.5817,44.8284C38.1217,32.1988 40.8148,22.6878 42.661,16.2954C42.749,15.9907 42.8559,15.543 42.9816,14.9525C42.9816,14.9525 43.0615,14.4823 42.661,14.1722C41.4999,13.2732 38.8061,12.0979 35.808,12.0979C33.7909,12.0979 31.5916,12.8064 29.5831,15.6425C29.5831,15.6425 25.0795,23.1168 22.4979,15.6425C22.4984,15.6425 19.7809,11.1587 17.0304,15.3708Z" fill="#ffffff"/>
  <path d="M26.5772,19.0562L26.5772,19.0562A0.8409,0.8409 61,0 1,27.1537 20.0963L24.3724,29.7958A0.8409,0.8409 61,0 1,23.3324 30.3723L23.3324,30.3723A0.8409,0.8409 61,0 1,22.7558 29.3323L25.5371,19.6327A0.8409,0.8409 61,0 1,26.5772 19.0562z" fill="#ffffff"/>
  <path d="M32.1567,14.6871L32.1567,14.6871A0.8409,0.8409 61,0 1,32.7333 15.7272L26.728,36.6702A0.8409,0.8409 61,0 1,25.6879 37.2467L25.6879,37.2467A0.8409,0.8409 61,0 1,25.1114 36.2066L31.1167,15.2637A0.8409,0.8409 61,0 1,32.1567 14.6871z" fill="#ffffff"/>
  <path d="M37.1788,13.4477L37.1788,13.4477A0.8409,0.8409 61,0 1,37.7553 14.4878L29.8143,42.1815A0.8409,0.8409 61,0 1,28.7742 42.758L28.7742,42.758A0.8409,0.8409 61,0 1,28.1977 41.7179L36.1387,14.0243A0.8409,0.8409 61,0 1,37.1788 13.4477z" fill="#ffffff"/>
</svg>
