<?xml version="1.0" encoding="UTF-8" standalone="no"?>
<svg viewBox="0 0 60.0 60.0">
  <path d="M36,44.3333C36.5517,44.3333 37,44.7816 37,45.3333C37,45.8851 36.5517,46.3333 36,46.3333C35.4483,46.3333 35,45.8851 35,45.3333C35,44.7816 35.4483,44.3333 36,44.3333ZM35.8333,44C35.0055,44 34.3333,44.6721 34.3333,45.5C34.3333,46.3278 35.0055,47 35.8333,47C36.6612,47 37.3333,46.3278 37.3333,45.5C37.3333,44.6721 36.6612,44 35.8333,44ZM24.8333,34.3333C25.5017,34.3333 26.1292,34.5938 26.601,35.0656C27.0728,35.5375 27.3333,36.1649 27.3333,36.8333C27.3333,37.5017 27.0728,38.1292 26.601,38.601C26.1292,39.0728 25.5017,39.3333 24.8333,39.3333C24.1649,39.3333 23.5375,39.0728 23.0656,38.601C22.5938,38.1292 22.3333,37.5001 22.3333,36.8333C22.3333,36.1666 22.5938,35.5375 23.0656,35.0656C23.5375,34.5938 24.1666,34.3333 24.8333,34.3333ZM24.6667,33.6667C23.0101,33.6667 21.6667,35.0101 21.6667,36.6667C21.6667,38.3232 23.0101,39.6667 24.6667,39.6667C26.3232,39.6667 27.6667,38.3232 27.6667,36.6667C27.6667,35.0101 26.3232,33.6667 24.6667,33.6667ZM27,46.6667C27.1839,46.6667 27.3333,46.8909 27.3333,47.1667C27.3333,47.4425 27.1839,47.6667 27,47.6667C26.8161,47.6667 26.6667,47.4425 26.6667,47.1667C26.6667,46.8926 26.8161,46.6667 27,46.6667ZM27.1667,46.3333C26.7067,46.3333 26.3333,46.7067 26.3333,47.1667C26.3333,47.6266 26.7067,48 27.1667,48C27.6266,48 28,47.6266 28,47.1667C28,46.7067 27.6266,46.3333 27.1667,46.3333ZM30,41.3333C30.9193,41.3333 31.6667,42.0807 31.6667,43C31.6667,43.9193 30.9193,44.6667 30,44.6667C29.0807,44.6667 28.3333,43.9193 28.3333,43C28.3333,42.0807 29.0824,41.3333 30,41.3333ZM29.8333,40.6667C28.637,40.6667 27.6667,41.637 27.6667,42.8333C27.6667,44.0297 28.637,45 29.8333,45C31.0297,45 32,44.0297 32,42.8333C32.0018,41.637 31.0315,40.6667 29.8333,40.6667ZM36.3333,30.3333C36.9573,30.3333 37.5424,30.5763 37.9838,31.0162C38.4251,31.4576 38.6667,32.0427 38.6667,32.6667C38.6667,33.2906 38.4237,33.8757 37.9838,34.3171C37.5424,34.7585 36.9573,35 36.3333,35C35.7094,35 35.1243,34.757 34.6829,34.3171C34.2415,33.8757 34,33.2906 34,32.6667C34,32.0427 34.243,31.4576 34.6829,31.0162C35.1228,30.5763 35.7094,30.3333 36.3333,30.3333ZM36.5,31C35.4872,31 34.6667,31.8206 34.6667,32.8333C34.6667,33.8461 35.4872,34.6667 36.5,34.6667C37.5128,34.6667 38.3333,33.8461 38.3333,32.8333C38.3333,31.8206 37.5128,31 36.5,31Z" fill="#ffffff"/>
  <path d="M45.4992,15.2223C44.4391,15.2223 43.5416,13.2898 42.2364,13.2898C40.9313,13.2898 40.2379,15.2223 38.3204,15.2223C36.403,15.2223 35.6898,13.2898 34.4051,13.2898C33.1204,13.2898 31.9983,15.2223 30.4891,15.2223C28.98,15.2223 27.8786,13.2898 26.5735,13.2898C25.2684,13.2898 24.5549,15.2223 22.6577,15.2223C20.7604,15.2223 19.8636,13.2898 18.7417,13.2898C17.6199,13.2898 15.8867,15.2223 15.4791,15.2223C15.0715,15.2223 14.6446,14.8588 15.4791,13.9325C16.1995,13.135 17.4167,12 18.7419,12C20.0671,12 21.2101,13.9325 22.6578,13.9325C24.1056,13.9325 25.0037,12 26.5738,12C28.1439,12 28.8988,13.9325 30.4895,13.9325C32.0801,13.9325 32.8347,12 34.4054,12C35.9762,12 36.8528,13.9325 38.3208,13.9325C39.7887,13.9325 40.6458,12 42.2367,12C43.8276,12 44.9064,13.4353 45.4995,13.9325C46.0502,14.3966 46.2743,15.2223 45.4992,15.2223ZM18.7419,17.7998C20.068,17.7998 21.2101,19.7323 22.6578,19.7323C24.1056,19.7323 25.0037,17.7998 26.5738,17.7998C28.1439,17.7998 28.8988,19.7323 30.4895,19.7323C32.0801,19.7323 32.8347,17.7998 34.4054,17.7998C35.9762,17.7998 36.8528,19.7323 38.3208,19.7323C39.7887,19.7323 40.6458,17.7998 42.2364,17.7998C43.827,17.7998 44.9061,19.2333 45.4992,19.7323C46.0502,20.1964 46.2743,21.0206 45.4992,21.0206C44.4391,21.0206 43.5416,19.0881 42.2364,19.0881C40.9312,19.0881 40.2379,21.0206 38.3204,21.0206C36.403,21.0206 35.6898,19.0881 34.4051,19.0881C33.1204,19.0881 31.9983,21.0206 30.4891,21.0206C28.98,21.0206 27.8789,19.087 26.5738,19.087C25.2687,19.087 24.5549,21.0193 22.6577,21.0193C20.7604,21.0193 19.8636,19.0868 18.7417,19.0868C17.6199,19.0868 15.8867,21.0193 15.4791,21.0193C15.0715,21.0193 14.644,20.6559 15.4791,19.7311C16.1995,18.9334 17.4162,17.7998 18.7419,17.7998Z" fill="#ffffff"/>
</svg>
