<?xml version="1.0" encoding="UTF-8" standalone="no"?>
<svg viewBox="0 0 60.0 60.0">
  <path d="M24.14,37.93C23.67,37.53 22.96,37.59 22.56,38.06L21.84,38.92C21.44,39.39 21.51,40.1 21.98,40.5C22.46,40.9 23.17,40.84 23.56,40.37L24.28,39.51C24.68,39.03 24.62,38.33 24.14,37.93Z" fill="#ffffff"/>
  <path d="M20.95,41.29C20.48,40.89 19.77,40.95 19.37,41.42L18.65,42.28C18.26,42.75 18.32,43.46 18.8,43.86C19.27,44.26 19.98,44.2 20.38,43.73L21.1,42.87C21.49,42.39 21.43,41.69 20.95,41.29Z" fill="#ffffff"/>
  <path d="M38.2,37.93C37.73,37.53 37.02,37.59 36.62,38.06L35.9,38.92C35.51,39.39 35.57,40.1 36.05,40.5C36.52,40.9 37.23,40.84 37.63,40.37L38.35,39.51C38.74,39.03 38.68,38.33 38.2,37.93Z" fill="#ffffff"/>
  <path d="M35.02,41.29C34.54,40.89 33.83,40.95 33.44,41.42L32.72,42.28C32.32,42.75 32.38,43.46 32.86,43.86C33.33,44.26 34.04,44.2 34.44,43.73L35.16,42.87C35.56,42.39 35.49,41.69 35.02,41.29Z" fill="#ffffff"/>
  <path d="M26.92,42.2C26.51,42.2 26.15,41.95 26,41.58C25.84,41.2 25.93,40.77 26.21,40.48L30.52,36.13L28.93,36.13C28.52,36.13 28.16,35.89 28,35.51C27.85,35.13 27.93,34.7 28.22,34.41L32.24,30.36C32.63,29.97 33.27,29.97 33.66,30.36C34.05,30.76 34.05,31.4 33.66,31.8L31.35,34.11L32.95,34.11C33.35,34.11 33.72,34.36 33.87,34.74C34.03,35.11 33.94,35.55 33.65,35.84L27.63,41.9C27.44,42.09 27.19,42.2 26.92,42.2Z" fill="#ffffff"/>
  <path d="M39.64,25.71L39.58,25.71C39.05,20.75 34.92,17 29.73,17C25.8,17.01 22.24,19.38 20.66,23.04C17.43,23.43 15,26.22 15,29.52C15,33.69 18.09,36.6 22.5,36.6C23.09,36.6 23.57,36.11 23.57,35.51C23.57,34.91 23.09,34.42 22.5,34.42C19.29,34.42 17.14,32.45 17.14,29.52C17.15,28.39 17.58,27.31 18.35,26.5L18.4,26.46C20.08,24.76 22.79,24.76 24.46,26.46C24.88,26.89 25.56,26.89 25.98,26.46C26.4,26.04 26.4,25.35 25.98,24.92C25.15,24.08 24.11,23.49 22.97,23.21C24.35,20.72 26.93,19.18 29.73,19.18C34.09,19.18 37.5,22.53 37.5,26.8C37.5,27.4 37.98,27.89 38.57,27.89L39.64,27.89C41.42,27.89 42.86,29.35 42.86,31.16C42.86,32.96 41.42,34.42 39.64,34.42C39.05,34.42 38.57,34.91 38.57,35.51C38.57,36.11 39.05,36.6 39.64,36.6C42.6,36.6 45,34.16 45,31.16C45,28.15 42.6,25.71 39.64,25.71L39.64,25.71Z" fill="#ffffff"/>
</svg>
