<?xml version="1.0" encoding="UTF-8" standalone="no"?>
<svg viewBox="0 0 60.0 60.0">
  <path d="M18.17,21.92C30.23,28.29 32.44,34.25 32.44,34.25C32.44,34.25 30.92,35.79 30.07,37.01C37.77,29.62 47.14,30.26 47.67,30.21C48.2,30.15 48.51,31.22 47.67,31.22C44.3,31.48 36.87,32.92 33.45,36.96C30.34,40.57 31.55,49.93 31.87,51.79C31.92,52 31.81,52 31.65,52C30.5,52 23.86,52 23.65,52C23.44,52 23.38,51.89 23.38,51.79C23.33,48.55 27.7,44.72 27.28,36.32C26.81,27.71 17.69,22.71 17.69,22.71C17.38,22.5 17.69,21.65 18.17,21.92ZM16.69,13.41C16.69,13.41 14.95,16.65 15.43,18.83C15.85,20.75 17.11,21.49 18.59,20.8C19.27,20.43 17.8,16.65 17.38,15.64C19.17,18.46 18.8,20.48 19.33,20.53C20.8,20.53 21.64,19.05 20.85,17.03C20.06,14.95 16.69,13.41 16.69,13.41ZM11,24.15C11,24.15 13.37,25.9 15.06,25.74C16.59,25.58 17.32,24.68 16.9,23.4C16.69,22.82 13.58,23.56 12.74,23.83C15.11,22.66 16.64,23.24 16.74,22.82C16.9,21.65 15.85,20.85 14.16,21.22C12.53,21.65 11,24.15 11,24.15ZM16.8,29.89C16.8,29.89 19.43,29.57 20.48,28.4C21.43,27.34 21.33,26.27 20.33,25.69C19.8,25.42 18.22,27.87 17.8,28.56C18.69,26.27 20.06,25.69 19.85,25.37C19.27,24.47 18.01,24.63 17.17,25.9C16.27,27.23 16.8,29.89 16.8,29.89ZM10,31.22C10,31.22 12.79,31.86 14.27,31.06C15.58,30.31 15.9,29.2 15.06,28.24C14.64,27.82 12.16,29.68 11.48,30.21C13.16,28.24 14.79,28.13 14.69,27.71C14.37,26.59 13.11,26.27 11.79,27.28C10.42,28.4 10,31.22 10,31.22ZM10,17.45C10,17.45 10.74,19.63 11.9,20.27C12.95,20.85 13.79,20.59 14.11,19.63C14.21,19.15 11.9,18.3 11.26,18.04C13.27,18.35 14.06,19.42 14.27,19.15C14.9,18.46 14.53,17.45 13.32,16.97C12.11,16.55 10,17.45 10,17.45ZM18.75,35.15C18.75,35.15 21.91,35.26 23.38,34.03C24.7,32.92 24.75,31.64 23.65,30.79C23.07,30.42 20.8,33.02 20.17,33.77C21.59,31.22 23.33,30.74 23.12,30.31C22.54,29.14 21.06,29.09 19.85,30.47C18.59,31.91 18.75,35.15 18.75,35.15ZM27.44,16.49C27.44,16.49 23.8,17.98 22.75,20.11C21.8,22.02 22.38,23.51 24.07,23.94C24.86,24.1 26.17,19.95 26.54,18.78C26.17,22.39 24.44,23.78 24.91,24.15C26.12,25.16 27.81,24.47 28.55,22.29C29.23,20.06 27.44,16.49 27.44,16.49ZM22.91,9.16C22.91,9.16 20.96,11.18 20.85,12.88C20.75,14.37 21.54,15.22 22.8,15.01C23.38,14.85 23.07,11.76 22.96,10.91C23.7,13.36 23.01,14.79 23.38,14.9C24.49,15.22 25.38,14.26 25.23,12.61C25.07,10.97 22.91,9.16 22.91,9.16ZM33.34,23.19C33.34,23.19 30.55,23.14 29.23,24.2C28.07,25.16 28.02,26.33 29.02,27.07C29.49,27.39 31.55,25.11 32.08,24.41C30.81,26.65 29.28,27.07 29.44,27.44C29.97,28.45 31.23,28.51 32.34,27.28C33.5,26.06 33.34,23.19 33.34,23.19ZM36.08,28.93C36.08,28.93 33.92,28.13 32.66,28.67C31.5,29.14 31.18,30 31.76,30.85C32.08,31.22 34.24,29.94 34.82,29.57C33.29,31 31.97,30.95 32.02,31.27C32.18,32.17 33.18,32.55 34.34,31.91C35.5,31.16 36.08,28.93 36.08,28.93ZM36.4,15.8C36.4,15.8 32.92,15.7 31.29,17.03C29.86,18.25 29.76,19.63 31.02,20.59C31.65,21.01 34.18,18.14 34.82,17.34C33.23,20.11 31.34,20.64 31.55,21.12C32.18,22.39 33.81,22.45 35.13,20.91C36.61,19.31 36.4,15.8 36.4,15.8ZM30.34,9C30.34,9 27.54,10.97 27.07,12.99C26.65,14.79 27.39,15.91 28.91,15.96C29.65,15.91 29.97,12.19 30.02,11.13C30.39,14.26 29.23,15.8 29.65,16.02C30.86,16.65 32.18,15.75 32.39,13.73C32.5,11.71 30.34,9 30.34,9ZM45.51,29.04C45.51,29.09 45.56,29.36 45.56,29.41L45.56,29.73L45.19,29.68L44.98,29.68L44.98,29.3C44.98,29.2 44.93,29.14 44.93,29.14L44.93,29.09L44.51,29.14C44.3,29.14 44.09,29.2 44.09,29.2C44.09,29.2 44.09,29.57 44.19,29.89C44.19,29.94 44.19,29.94 44.04,29.94L43.67,29.89L43.61,29.36L43.56,29.14L43.4,29.14C39.77,28.93 37.61,26.11 37.03,25.37C36.45,24.63 35.97,23.67 35.82,22.82C35.76,22.5 35.87,22.08 36.03,22.08C36.13,22.08 36.13,22.13 36.29,22.39C36.55,22.93 36.98,23.24 37.5,23.35C38.13,23.46 38.77,23.3 39.24,22.87C39.5,22.61 39.56,22.45 39.61,22.18C39.66,21.92 39.77,21.6 39.82,21.44C40.19,20.43 40.82,19.63 41.56,19.1C41.72,18.99 41.77,18.94 41.72,18.89C41.72,18.83 41.51,18.62 41.3,18.41C40.82,17.88 40.82,17.82 40.82,17.72C40.82,17.56 40.87,17.5 40.98,17.45C41.09,17.4 41.14,17.4 41.77,17.72C42.03,17.88 42.3,17.93 42.3,17.93C42.3,17.93 42.24,17.82 42.14,17.66C41.98,17.4 41.93,17.24 42.03,17.13C42.09,17.08 42.14,17.03 42.24,17.03C42.4,17.03 42.4,17.03 42.88,17.34C43.09,17.5 43.3,17.66 43.35,17.66L43.46,17.72L43.46,17.5C43.46,17.29 43.46,17.13 43.56,17.08C43.67,17.03 43.83,17.13 44.51,17.72L45.14,18.25L45.41,18.3C45.99,18.46 46.51,18.67 47.04,18.99C47.41,19.21 47.57,19.36 47.93,19.74L48.25,20.06L49.15,20C50.09,19.95 50.2,19.95 50.25,20.06C50.31,20.16 50.31,20.27 50.2,20.37C50.15,20.43 49.94,20.75 49.67,21.12L49.2,21.76L49.3,22.02C49.62,22.98 49.67,24.04 49.46,25.11C49.25,26.22 48.94,26.86 48.2,27.6C47.46,28.35 46.67,28.83 45.72,28.99L45.51,29.04ZM46.2,20.22C46.09,20.48 46.25,21.12 46.46,21.33C46.99,21.76 47.14,20.85 46.67,20.27C46.51,20.11 46.3,20.06 46.2,20.22Z" fill="#ffffff"/>
</svg>
