<?xml version="1.0" encoding="UTF-8" standalone="no"?>
<svg viewBox="0 0 60.0 60.0">
  <path d="M28.7532,16.4968C26.9413,18.2406 23.7957,22.034 23.4161,29.4904C23.4161,29.4904 22.9063,37.7946 30.2355,43.7533C30.2355,43.7533 37.8197,41.2811 38.3295,29.8074C38.2696,29.867 38.5472,21.2845 31.8772,16.4968C31.4515,16.1912 29.3751,15.8983 28.7532,16.4968ZM30.2992,41.4078C24.2446,36.4634 24.6908,29.4904 24.6908,29.4904C25.0208,23.3011 27.8124,19.9438 29.3053,18.4951C29.8307,17.9852 31.1121,18.2143 31.4969,18.4951C36.9512,22.4759 36.9912,29.744 36.9912,29.744C36.6088,39.1892 30.2992,41.4078 30.2992,41.4078Z" fill="#ffffff"/>
  <path d="M23.6725,26.4714C21.0032,25.6067 18.8494,24.9202 17.2113,24.4122C16.9352,24.3265 15.428,25.2293 15.3671,25.549C14.9957,27.498 13.9562,33.6358 17.888,38.5517C17.888,38.5517 23.6725,44.719 30.7283,43.8289L30.7283,42.748C30.7283,42.748 24.0539,42.3666 19.4136,37.4709C19.4136,37.4709 15.8005,34.614 16.5635,26.8122C16.5783,26.6611 17.3862,26.2081 17.5609,26.2599C18.97,26.6775 20.9436,27.2991 23.4818,28.1245L23.6725,26.4714Z" fill="#ffffff"/>
  <path d="M37.4198,26.4714C40.0891,25.6067 42.2428,24.9202 43.881,24.4122C44.1571,24.3265 45.6642,25.2293 45.7251,25.549C46.0966,27.498 47.136,33.6358 43.2042,38.5517C43.2042,38.5517 36.3813,44.7914 29.3255,43.9013L29.3255,42.6486C29.3255,42.6486 37.0384,42.3666 41.6787,37.4709C41.6787,37.4709 45.2918,34.614 44.5288,26.8122C44.514,26.6611 43.706,26.2081 43.5313,26.2599C42.1222,26.6775 40.1486,27.2991 37.6105,28.1245L37.4198,26.4714Z" fill="#ffffff"/>
</svg>
