<svg id="vector" xmlns="http://www.w3.org/2000/svg" width="24" height="24" viewBox="0 0 60 60"><path fill="#ffffff" d="M20.9286,36.0412l-1.4142,1.4142l3.5384,3.5384l1.4142,-1.4142z" stroke="#00000000" stroke-width="1" fill-rule="nonzero" id="path_0"/><path fill="#ffffff" d="M37.9571,21.3316a1.3,1.2989 0,1 0,2.6 0a1.3,1.2989 0,1 0,-2.6 0z" stroke="#00000000" stroke-width="1" fill-rule="nonzero" id="path_1"/><path fill="#fbfbfb" d="M32.952,26.334a1.3,1.2989 0,1 0,2.6 0a1.3,1.2989 0,1 0,-2.6 0z" stroke="#00000000" stroke-width="1" fill-rule="nonzero" id="path_2"/><path fill="#00000000" d="M44.5772,16.5847L44.5772,16.5847A2.3956,2.3956 90,0 1,44.5772 19.9725L20.3113,44.2384A2.3956,2.3956 90,0 1,16.9234 44.2384L16.9234,44.2384A2.3956,2.3956 90,0 1,16.9234 40.8506L41.1893,16.5847A2.3956,2.3956 90,0 1,44.5772 16.5847z" stroke="#ffffff" stroke-width="1.9" fill-rule="nonzero" id="path_3"/></svg>