<?xml version="1.0" encoding="UTF-8" standalone="no"?>
<svg viewBox="0 0 60.0 60.0">
  <path d="M37.13,30C37.13,24.22 34.29,19.41 30.5,19.41C26.71,19.41 23.87,24.22 23.87,30C23.87,35.78 26.71,40.59 30.5,40.59C34.29,40.59 37.13,35.78 37.13,30ZM25.5,30C25.5,24.96 27.87,21 30.5,21C33.13,21 35.5,24.96 35.5,30C35.5,35.04 33.13,39 30.5,39C27.87,39 25.5,35.04 25.5,30Z" fill="#ffffff"/>
  <path d="M29.62,28.68L25.63,28.68C25.15,28.68 24.75,28.28 24.75,27.79C24.75,27.31 25.15,26.91 25.63,26.91L35.37,26.91C35.85,26.91 36.25,27.31 36.25,27.79C36.25,28.28 35.85,28.68 35.37,28.68L31.38,28.68L31.38,38.82C31.38,39.31 30.99,39.71 30.5,39.71C30.01,39.71 29.62,39.31 29.62,38.82L29.62,28.68L29.62,28.68ZM31.45,20.41C31.27,20.86 31.49,21.37 31.94,21.55C32.39,21.74 32.91,21.52 33.09,21.06L33.98,18.86C34.16,18.4 33.94,17.89 33.48,17.71C33.03,17.53 32.51,17.75 32.33,18.2L31.45,20.41ZM27.91,21.06C28.09,21.52 28.61,21.74 29.06,21.55C29.51,21.37 29.73,20.86 29.55,20.41L28.67,18.2C28.49,17.75 27.97,17.53 27.52,17.71C27.06,17.89 26.84,18.4 27.02,18.86L27.91,21.06ZM38.41,22.85C38.71,22.7 38.9,22.39 38.9,22.06L38.9,15.88C38.9,15.4 38.51,15 38.02,15C37.53,15 37.13,15.4 37.13,15.88L37.13,21.5L34.97,22.59C34.53,22.81 34.36,23.34 34.57,23.78C34.79,24.21 35.32,24.39 35.76,24.17L38.41,22.85ZM41.12,30.88C41.6,30.88 42,30.49 42,30C42,29.51 41.6,29.12 41.12,29.12L36.69,29.12C36.2,29.12 35.81,29.51 35.81,30C35.81,30.49 36.2,30.88 36.69,30.88L41.12,30.88ZM37.13,44.12C37.13,44.6 37.53,45 38.02,45C38.51,45 38.9,44.6 38.9,44.12L38.9,37.94C38.9,37.61 38.71,37.3 38.41,37.15L35.76,35.83C35.32,35.61 34.79,35.79 34.57,36.22C34.36,36.66 34.53,37.19 34.97,37.41L37.13,38.49L37.13,44.12ZM23.87,15.88C23.87,15.4 23.47,15 22.98,15C22.49,15 22.1,15.4 22.1,15.88L22.1,22.06C22.1,22.39 22.29,22.7 22.59,22.85L25.24,24.17C25.68,24.39 26.21,24.21 26.43,23.78C26.64,23.34 26.47,22.81 26.03,22.59L23.87,21.51L23.87,15.88ZM19.88,29.12C19.4,29.12 19,29.51 19,30C19,30.49 19.4,30.88 19.88,30.88L24.31,30.88C24.8,30.88 25.19,30.49 25.19,30C25.19,29.51 24.8,29.12 24.31,29.12L19.88,29.12ZM22.59,37.15C22.29,37.3 22.1,37.61 22.1,37.94L22.1,44.12C22.1,44.6 22.49,45 22.98,45C23.47,45 23.87,44.6 23.87,44.12L23.87,38.5L26.03,37.41C26.47,37.19 26.64,36.66 26.43,36.22C26.21,35.79 25.68,35.61 25.24,35.83L22.59,37.15Z" fill="#ffffff"/>
  <path d="M31.27,24.71a1,1 0,1 0,2 0a1,1 0,1 0,-2 0z" fill="#ffffff"/>
  <path d="M27.73,24.71a1,1 0,1 0,2 0a1,1 0,1 0,-2 0z" fill="#ffffff"/>
</svg>
