<?xml version="1.0" encoding="UTF-8" standalone="no"?>
<svg viewBox="0 0 512.0 512.0">
  <g transform="translate(110 110) scale(0.6 0.6)">
    <path d="m453.055,407.395c21.352,-12.785 32.383,-38.785 25.207,-63.813 -4.141,-14.453 -13.664,-26.426 -26.816,-33.715 -13.148,-7.289 -28.348,-9.02 -42.801,-4.879l-18.301,5.25c3.551,-4.828 6.645,-9.652 9.328,-14.352 20.867,-36.508 21.867,-72.848 21.902,-74.379 0,-0.109 0,-0.219 0,-0.328 0,-57.344 -22.008,-117.504 -58.871,-160.934 -2.742,-3.234 -6.688,-5.211 -10.922,-5.473 -10.723,-0.672 -17.465,8.465 -20.707,12.848 -3.531,4.777 -7.512,11.25 -11.512,18.719 -1.777,3.32 -3.488,6.699 -5.113,10.09 -38.125,-66.93 -106.082,-94.059 -109.414,-95.355 -4.938,-1.922 -10.52,-1.242 -14.809,1.871 -4.289,3.113 -6.707,8.152 -6.414,13.445 0.016,0.293 1.094,29.637 -18.426,55.465 -4.449,5.891 -10.219,12.285 -16.328,19.055 -24.977,27.684 -59.184,65.598 -59.184,130.27v0.332c0.035,1.527 1.035,37.867 21.902,74.375 2.688,4.703 5.777,9.527 9.328,14.352l-18.301,-5.246c-14.453,-4.145 -29.652,-2.414 -42.801,4.875 -13.152,7.289 -22.676,19.262 -26.816,33.715 -7.176,25.027 3.855,51.031 25.207,63.813 -21.352,12.781 -32.383,38.785 -25.207,63.809 4.145,14.453 13.668,26.426 26.816,33.715 8.469,4.695 17.781,7.082 27.203,7.082 5.211,0 10.453,-0.73 15.598,-2.207l152.922,-43.848 152.918,43.848c5.148,1.477 10.391,2.207 15.598,2.207 9.422,0 18.738,-2.391 27.203,-7.082 13.152,-7.289 22.676,-19.262 26.816,-33.715 7.18,-25.023 -3.855,-51.027 -25.207,-63.809zM417.242,334.965c6.441,-1.848 13.223,-1.078 19.09,2.172 5.863,3.254 10.109,8.594 11.961,15.039 3.813,13.305 -3.906,27.234 -17.215,31.051l-27.719,7.949 -91.074,-26.117zM217.406,296.332c0,-21.5 22.441,-48.848 38.297,-64.832 15.621,15.832 38.34,43.48 38.34,64.832 0,37.59 -24.008,43.199 -38.32,43.199 -14.309,0 -38.316,-5.613 -38.316,-43.199zM172.211,111.797c6.574,-7.285 12.785,-14.168 18.055,-21.145 13.453,-17.797 19.637,-36.574 22.449,-51.008 7.348,4.199 16.234,9.844 25.559,17.039 30.91,23.852 51.934,52.676 62.477,85.672 2.129,6.664 8.418,11.094 15.434,10.832 6.992,-0.262 12.953,-5.152 14.578,-11.961 3.621,-15.168 12.594,-33.914 19.582,-45.988 25.262,36.145 40.004,81.863 40.051,125.73 -0.07,2.078 -1.363,30.703 -17.793,59.445 -12.402,21.699 -29.984,37.469 -52.543,47.242 3.41,-9.313 5.164,-19.84 5.164,-31.324 0,-45.895 -53.281,-92.863 -59.355,-98.066 -5.836,-5 -14.449,-5 -20.285,0 -6.078,5.203 -59.359,52.172 -59.359,98.066 0,11.48 1.754,22.004 5.164,31.316 -22.211,-9.625 -39.602,-25.063 -51.973,-46.25 -16.82,-28.809 -18.281,-58.488 -18.363,-60.449 0.082,-52.539 27.215,-82.613 51.16,-109.152zM94.207,479.82c-6.441,1.852 -13.223,1.078 -19.09,-2.172 -5.863,-3.25 -10.109,-8.594 -11.957,-15.039 -3.816,-13.305 3.906,-27.234 17.211,-31.051l27.719,-7.949 91.074,26.117zM448.289,462.609c-1.848,6.445 -6.094,11.785 -11.957,15.039 -5.867,3.25 -12.645,4.023 -19.09,2.172l-336.871,-96.594c-13.305,-3.816 -21.027,-17.746 -17.211,-31.051 1.848,-6.445 6.094,-11.785 11.957,-15.039 3.777,-2.09 7.934,-3.156 12.137,-3.156 2.32,0 4.66,0.324 6.953,0.984l336.871,96.594c6.445,1.852 11.785,6.098 15.035,11.961 3.254,5.863 4.023,12.645 2.176,19.09zM448.289,462.609" fill="#fff"/>
  </g>
</svg>
