<?xml version="1.0" encoding="UTF-8" standalone="no"?>
<svg viewBox="0 0 60.0 60.0">
  <path d="M37.1804,35.1705C37.0371,34.9153 36.7679,34.7573 36.4761,34.7573L31.619,34.7573C31.5864,33.1405 31.562,31.9279 31.5457,31.1195C31.5364,30.6556 31.2525,30.5593 30.6942,30.8308C30.6942,30.5222 30.9742,30.1821 30.1646,30.1821C29.8805,30.1821 29.6166,29.937 29.4705,30.1821C29.136,30.0518 28.7968,30.268 28.4531,30.8308C27.2034,32.8766 25.3289,35.9454 22.8296,40.0372C22.6794,40.2887 22.6758,40.6022 22.8195,40.8574C22.9632,41.1126 23.2319,41.2701 23.5238,41.2701L28.3809,41.2701L28.661,47.1859C28.661,47.5518 28.9038,47.873 29.2543,47.9707C29.3264,47.9906 29.3988,48 29.4705,48C29.7494,48 30.0157,47.8547 30.1646,47.6048L37.1702,35.9903C37.3204,35.7387 37.3245,35.4257 37.1804,35.1705ZM29.6573,45.7547L29.6573,40.8438C29.6573,40.3564 29.3943,39.9284 28.9027,39.9284L24.1992,39.9284L30.3105,30.1821C30.3105,32.3923 30.2984,35.1393 30.2984,35.1393C30.2984,35.3733 30.3919,35.598 30.5593,35.7636C30.7262,35.9292 30.9528,36.0223 31.1888,36.0223L35.8094,36.0223L29.6573,45.7547Z" fill="#ffffff"/>
  <path d="M39.6094,20.4589C39.3805,20.4589 39.1482,20.4755 38.9226,20.5089C38.8197,16.3513 35.4155,13 31.2514,13C27.6747,13 24.6387,15.4719 23.8059,18.8399C23.129,18.6133 22.4157,18.4967 21.6924,18.4967C18.0028,18.4967 15,21.5116 15,25.2161L15,26.4353C15,29.1537 16.659,30.7794 19.4394,30.7794L39.9014,30.7794C42.6818,30.7794 44.3441,29.157 44.3441,26.4353L44.3441,25.2161C44.3475,22.5943 42.2206,20.4589 39.6094,20.4589ZM42.3169,26.4353C42.3169,27.4247 42.068,28.744 39.9047,28.744L19.4428,28.744C17.2794,28.744 17.0306,27.4281 17.0306,26.4353L17.0306,25.2161C17.0306,22.6343 19.1242,20.5322 21.6957,20.5322C22.5384,20.5322 23.3646,20.762 24.0846,21.1951C24.3899,21.3783 24.7681,21.3883 25.08,21.2218C25.3952,21.0552 25.5976,20.7354 25.6175,20.3789C25.7867,17.3841 28.2586,15.0355 31.2514,15.0355C34.3637,15.0355 36.8953,17.5773 36.8953,20.7021C36.8953,21.0519 36.8621,21.4117 36.7958,21.7648C36.7228,22.1546 36.882,22.551 37.2006,22.7808C37.5191,23.0107 37.9438,23.0374 38.2888,22.8408C38.6903,22.6143 39.1482,22.4943 39.6094,22.4943C41.1025,22.4943 42.3202,23.7136 42.3202,25.2161L42.3202,26.4353L42.3169,26.4353Z" fill="#ffffff"/>
</svg>
