<?xml version="1.0" encoding="UTF-8" standalone="no"?>
<svg viewBox="0 0 60.0 60.0">
  <path d="M40.85,25.97C40.64,25.61 40.25,25.38 39.83,25.38L32.83,25.38L32.67,17.27C32.67,16.83 32.67,15.67 31.5,15.67C31.09,15.67 30.71,15.88 30.5,16.23L20.17,32.87C19.95,33.22 19.94,33.67 20.15,34.03C20.36,34.39 20.75,34.62 21.17,34.62L28.17,34.62L28.57,43C28.57,43.52 28.92,43.97 29.43,44.11C29.53,44.14 29.63,44.15 29.74,44.15C30.14,44.15 30.52,43.95 30.74,43.59L40.83,27.13C41.05,26.78 41.06,26.33 40.85,25.97ZM30.01,40.97L30.01,34.01C30.01,33.32 29.63,32.71 28.92,32.71L22.14,32.71L30.95,18.9C30.95,22.03 30.93,25.93 30.93,25.93C30.93,26.26 31.06,26.58 31.31,26.81C31.55,27.05 31.87,27.18 32.21,27.18L38.87,27.18L30.01,40.97Z" fill="#ffffff"/>
</svg>
