<?xml version="1.0" encoding="UTF-8" standalone="no"?>
<svg viewBox="0 0 60.0 60.0">
  <path d="M42.27,23C42,23 41.73,23.02 41.47,23.06C41.35,18.19 37.37,14.27 32.52,14.27C28.34,14.27 24.8,17.16 23.83,21.11C23.04,20.84 22.21,20.7 21.36,20.7C17.06,20.7 13.56,24.24 13.56,28.58L13.56,30C13.56,33.19 15.49,35.09 18.74,35.09L42.61,35.09C45.85,35.09 47.79,33.19 47.79,30L47.79,28.58C47.79,25.5 45.31,23 42.27,23ZM45.43,30C45.43,31.16 45.14,32.71 42.61,32.71L18.74,32.71C16.22,32.71 15.93,31.17 15.93,30L15.93,28.58C15.93,25.55 18.37,23.09 21.37,23.09C22.35,23.09 23.31,23.36 24.15,23.87C24.51,24.08 24.95,24.09 25.32,23.9C25.68,23.7 25.92,23.33 25.94,22.91C26.14,19.4 29.02,16.65 32.52,16.65C36.15,16.65 39.1,19.63 39.1,23.29C39.1,23.7 39.06,24.12 38.98,24.53C38.9,24.99 39.09,25.45 39.46,25.72C39.83,25.99 40.32,26.02 40.73,25.79C41.19,25.53 41.73,25.39 42.27,25.39C44.01,25.39 45.43,26.82 45.43,28.58L45.43,30L45.43,30Z" fill="#ffffff"/>
  <path d="M42.81,37.51L36.62,43.76C36.16,44.22 36.16,44.98 36.62,45.45C36.85,45.68 37.15,45.8 37.45,45.8C37.76,45.8 38.06,45.68 38.29,45.45L44.48,39.2C44.94,38.73 44.94,37.97 44.48,37.51C44.02,37.04 43.27,37.04 42.81,37.51Z" fill="#ffffff"/>
  <path d="M36.98,37.51C36.52,37.04 35.77,37.04 35.31,37.51L29.11,43.76C28.65,44.22 28.65,44.98 29.11,45.45C29.35,45.68 29.65,45.8 29.95,45.8C30.25,45.8 30.55,45.68 30.79,45.45L36.98,39.2C37.44,38.73 37.44,37.97 36.98,37.51Z" fill="#ffffff"/>
  <path d="M29.48,37.51C29.02,37.04 28.27,37.04 27.81,37.51L21.61,43.76C21.15,44.22 21.15,44.98 21.61,45.45C21.85,45.68 22.15,45.8 22.45,45.8C22.75,45.8 23.05,45.68 23.29,45.45L29.48,39.2C29.94,38.73 29.94,37.97 29.48,37.51Z" fill="#ffffff"/>
  <path d="M21.97,37.51C21.51,37.04 20.76,37.04 20.3,37.51L14.11,43.76C13.65,44.22 13.65,44.98 14.11,45.45C14.34,45.68 14.64,45.8 14.94,45.8C15.25,45.8 15.55,45.68 15.78,45.45L21.97,39.2C22.44,38.73 22.44,37.97 21.97,37.51Z" fill="#ffffff"/>
</svg>
