<?xml version="1.0" encoding="UTF-8" standalone="no"?>
<svg viewBox="0 0 60.0 60.0">
  <path d="M25,44.96L23,44.96L23,39.83C23,36.43 23.68,33.99 25.07,32.46C26.46,30.94 28.13,30.46 30,30.46C32.07,30.46 33.74,30.94 35.13,32.46C36.52,33.99 37.2,36.47 37.2,39.91L37.2,44.96L35,44.96C35,42.49 35,40.67 35,39.5C35,34.81 32.76,33 30,33C27.24,33 25,34.81 25,39.5C25,40.65 25,42.47 25,44.96Z" fill="#ffffff"/>
  <path d="M19.21,45L17,45L17,38.39C17,29.78 17.91,25.73 19.78,22.21C21.65,18.68 24.99,17 29.88,17C34.77,17 38.19,18.68 40.1,22.09C42.01,25.49 43,29.54 43,38.35L43,44.96L40.86,44.96C40.87,44.95 40.89,44.94 40.9,44.92C40.78,37.27 40.55,32.29 40.22,30C38.88,20.92 35.53,19.61 30.01,19.61C24.49,19.61 20.99,21.27 19.84,30C19.54,32.25 19.3,37.23 19.12,44.92C19.15,44.95 19.18,44.97 19.21,45Z" fill="#ffffff"/>
</svg>
