<?xml version="1.0" encoding="UTF-8" standalone="no"?>
<svg viewBox="0 0 84.0 84.0">
  <g transform="translate(16 16) scale(0.6 0.6)">
    <path d="M72.47,72.21L11.53,72.21a2,2 0,0 1,-2 -2L9.53,12.92a2,2 0,0 1,2 -2L72.47,10.92a2,2 0,0 1,2 2L74.47,70.21A2,2 0,0 1,72.47 72.21ZM13.53,68.21L70.47,68.21L70.47,14.92L13.53,14.92Z" fill="#ccc"/>
    <path d="M81,80.74L3,80.74a2,2 0,0 1,-2 -2L1,4.39a2,2 0,0 1,2 -2L81,2.39a2,2 0,0 1,2 2L83,78.74A2,2 0,0 1,81 80.74ZM5,76.74L79,76.74L79,6.39L5,6.39Z" fill="#ccc"/>
    <path d="M42,72.21h0a2,2 0,0 1,-2 -2l0.19,-57.28a2,2 0,0 1,2 -2h0a2,2 0,0 1,2 2L44,70.21A2,2 0,0 1,42 72.21Z" fill="#ccc"/>
    <path d="M71.86,44.17H11.64a2,2 0,0 1,0 -4H71.86a2,2 0,0 1,0 4Z" fill="#ccc"/>
    <path d="M23.83,40.59a2,2 0,0 1,-1 -0.28,2 2,0 0,1 -0.72,-2.73l4.21,-7.18a2,2 0,1 1,3.45 2l-4.2,7.18A2,2 0,0 1,23.83 40.59Z" fill="#ccc"/>
    <path d="M17.74,29.62a1.93,1.93 0,0 1,-1 -0.28A2,2 0,0 1,16 26.61l4.2,-7.18a2,2 0,1 1,3.46 2l-4.21,7.18A2,2 0,0 1,17.74 29.62Z" fill="#ccc"/>
    <path d="M32.36,28.4a2,2 0,0 1,-1.72 -3l4.2,-7.18a2,2 0,1 1,3.45 2l-4.2,7.18A2,2 0,0 1,32.36 28.4Z" fill="#ccc"/>
    <path d="M19,55.21a2,2 0,0 1,-1.72 -3L21.43,45a2,2 0,0 1,3.45 2l-4.2,7.18A2,2 0,0 1,19 55.21Z" fill="#ccc"/>
    <path d="M21.39,66.18a2.07,2.07 0,0 1,-1 -0.27,2 2,0 0,1 -0.71,-2.74L23.87,56a2,2 0,0 1,3.45 2l-4.2,7.18A2,2 0,0 1,21.39 66.18Z" fill="#ccc"/>
    <path d="M32.36,52.77a2,2 0,0 1,-1 -0.27,2 2,0 0,1 -0.71,-2.74l4.2,-7.17a2,2 0,1 1,3.45 2l-4.2,7.17A2,2 0,0 1,32.36 52.77Z" fill="#ccc"/>
    <path d="M32.36,67.4a2,2 0,0 1,-1.72 -3l4.2,-7.18a2,2 0,1 1,3.45 2l-4.2,7.18A2,2 0,0 1,32.36 67.4Z" fill="#ccc"/>
    <path d="M48.2,55.21a2,2 0,0 1,-1.72 -3L50.68,45a2,2 0,0 1,3.45 2l-4.2,7.18A2,2 0,0 1,48.2 55.21Z" fill="#ccc"/>
    <path d="M49.42,67.4a2,2 0,0 1,-1.72 -3l4.2,-7.18a2,2 0,1 1,3.45 2l-4.2,7.18A2,2 0,0 1,49.42 67.4Z" fill="#ccc"/>
    <path d="M61.61,57.65a2,2 0,0 1,-1.72 -3l4.2,-7.18a2,2 0,1 1,3.45 2l-4.2,7.18A2,2 0,0 1,61.61 57.65Z" fill="#ccc"/>
    <path d="M58,39.37a1.92,1.92 0,0 1,-1 -0.28,2 2,0 0,1 -0.72,-2.73l4.2,-7.18a2,2 0,1 1,3.45 2l-4.2,7.18A2,2 0,0 1,58 39.37Z" fill="#ccc"/>
    <path d="M45.77,35.71a2,2 0,0 1,-1 -0.27A2,2 0,0 1,44 32.7l4.2,-7.18a2,2 0,0 1,3.46 2l-4.21,7.18A2,2 0,0 1,45.77 35.71Z" fill="#ccc"/>
    <path d="M32.36,28.4a2,2 0,0 1,-1.72 -3l4.2,-7.18a2,2 0,1 1,3.45 2l-4.2,7.18A2,2 0,0 1,32.36 28.4Z" fill="#ccc"/>
    <path d="M56.74,28.4a1.93,1.93 0,0 1,-1 -0.28A2,2 0,0 1,55 25.39l4.2,-7.18a2,2 0,0 1,3.46 2l-4.21,7.18A2,2 0,0 1,56.74 28.4Z" fill="#ccc"/>
  </g>
</svg>
