<?xml version="1.0" encoding="UTF-8" standalone="no"?>
<svg viewBox="0 0 60.0 60.0">
  <path d="M46.92,21.35L42.63,18.86C42.59,18.86 42.56,18.86 42.56,18.83C41.37,16.16 38.7,14.32 35.6,14.32C31.57,14.32 28.29,17.42 28,21.42C26.95,21.75 26.09,22.94 24.97,24.45C22.63,27.62 19.42,31.95 12.76,31.98C12.58,31.95 12.43,32.02 12.29,32.13C12.14,32.23 12.07,32.41 12.07,32.59L12.07,32.63L12.07,32.63C12.07,32.67 12.07,32.67 12.07,32.7C12.07,32.77 12.11,32.81 12.11,32.85C12.11,32.88 12.14,32.88 12.14,32.92C12.18,32.95 12.18,32.99 12.18,33.03L12.22,33.06L12.22,33.06C15.24,36.74 19.68,38.97 24.4,39.33L24.4,42.76L24.4,43.48L22.05,44.95C21.77,45.14 21.66,45.53 21.84,45.82C22.02,46.11 22.41,46.22 22.7,46.04L24.9,44.67L26.27,45.46L27.28,46.04L27.35,46.07C27.46,46.14 27.57,46.14 27.68,46.14C27.89,46.14 28.11,46.04 28.22,45.82C28.29,45.68 28.32,45.53 28.29,45.39C28.25,45.21 28.14,45.03 28,44.95L27.28,44.52L25.66,43.59C25.66,43.55 25.69,43.51 25.69,43.48L25.69,42.9L25.69,39.44L25.69,39.44C26.81,39.44 27.89,39.33 28.94,39.12L28.94,43.44L27.89,44.09L28.32,44.34C28.58,44.49 28.76,44.74 28.86,44.99L29.44,44.59L31.86,46C31.96,46.07 32.07,46.07 32.18,46.07C32.4,46.07 32.61,45.96 32.72,45.75C32.9,45.46 32.79,45.06 32.5,44.88L30.16,43.51C30.16,43.48 30.2,43.44 30.2,43.41L30.2,38.72C36.79,36.95 41.8,31.44 42.92,24.67L46.88,22.36C47.06,22.25 47.21,22.04 47.21,21.82C47.17,21.68 47.06,21.46 46.92,21.35ZM35.57,15.59C39.06,15.59 41.91,18.43 41.91,21.93C41.91,24.45 40.4,26.61 38.27,27.66C37.8,27.87 37.3,28.05 36.79,28.16C36.4,28.23 36,28.27 35.57,28.27C32.07,28.27 29.23,25.42 29.23,21.93C29.23,18.43 32.07,15.59 35.57,15.59ZM25.91,25.24C26.67,24.23 27.39,23.26 28,22.83C28.43,26.61 31.64,29.53 35.57,29.53C35.78,29.53 36,29.53 36.22,29.5C34.41,33.14 30.63,35.62 26.27,35.62C23.24,35.62 20.32,34.36 18.23,32.16C21.95,30.58 24.25,27.48 25.91,25.24ZM25.66,38.11C21.23,38.11 17.08,36.34 14.05,33.17C15.1,33.06 16.04,32.88 16.94,32.59C19.32,35.3 22.67,36.81 26.23,36.81C31.42,36.81 35.86,33.64 37.69,29.14C38.95,28.77 40.04,28.09 40.94,27.19C38.74,33.6 32.72,38.11 25.66,38.11ZM43.14,23.15C43.14,23.01 43.14,22.86 43.17,22.68C43.21,22.43 43.21,22.18 43.21,21.89C43.21,21.42 43.17,20.99 43.1,20.56L45.37,21.86L43.14,23.15Z" fill="#FFFFFF"/>
  <path d="M38.27,21.1C38.95,21.1 39.5,20.56 39.5,19.87C39.5,19.19 38.95,18.65 38.27,18.65C37.59,18.65 37.05,19.19 37.05,19.87C37.05,20.52 37.55,21.1 38.27,21.1Z" fill="#FFFFFF"/>
</svg>
