<?xml version="1.0" encoding="UTF-8" standalone="no"?>
<svg viewBox="0 0 60.0 60.0">
  <path d="M41.9716,36.0117L40.6104,29.7727C40.1126,27.4911 37.7609,25.6363 35.3672,25.6363L24.6402,25.6363C22.2465,25.6363 19.8948,27.4921 19.3969,29.7727L18.0347,36.0117C16.519,36.6699 15.4614,38.0815 15.3395,39.6793L15.0307,43.6817C14.8984,45.4014 15.9025,46.9511 17.4769,47.5786C17.8393,48.9605 19.1175,49.9688 20.6321,49.9688C22.0385,49.9688 23.2369,49.113 23.6928,47.8775L36.3146,47.8775C36.7704,49.112 37.9678,49.9688 39.3742,49.9688C40.8888,49.9688 42.1691,48.9605 42.5304,47.5786C44.1049,46.9511 45.1079,45.4014 44.9756,43.6817L44.6678,39.6793C44.5449,38.0815 43.4873,36.6699 41.9716,36.0117ZM41.5063,46.0278C41.1083,46.1179 40.8194,46.4547 40.7984,46.8539C40.7606,47.5991 40.1346,48.1836 39.3742,48.1836C38.6316,48.1836 38.0224,47.6349 37.9562,46.9071C37.9153,46.4465 37.5182,46.0933 37.0435,46.0933L22.9628,46.0933C22.4881,46.0933 22.0921,46.4465 22.0501,46.9071C21.9839,47.6349 21.3747,48.1836 20.6321,48.1836C19.8717,48.1836 19.2457,47.6001 19.2079,46.8539C19.1879,46.4557 18.8991,46.1189 18.501,46.0278C17.4507,45.7904 16.7753,44.8804 16.8572,43.8158L17.166,39.8144C17.2459,38.7744 18.0504,37.8307 19.1239,37.5205C19.4737,37.4183 19.7282,37.1236 19.7719,36.7702C19.7772,36.719 19.7814,36.6678 19.7856,36.6167C19.7877,36.59 19.7877,36.5634 19.7929,36.5399L21.1888,30.1453C21.5112,28.6693 23.0909,27.4225 24.6402,27.4225L35.3672,27.4225C36.9154,27.4225 38.4961,28.6693 38.8186,30.1453L40.2134,36.5389C40.2186,36.5655 40.2186,36.5921 40.2207,36.6177C40.2239,36.6668 40.2281,36.717 40.2344,36.7671C40.2777,37.1215 40.5327,37.4171 40.8835,37.5195C41.9559,37.8307 42.7604,38.7744 42.8403,39.8134L43.148,43.8148C43.231,44.8793 42.5556,45.7904 41.5063,46.0278Z" fill="#ffffff"/>
  <path d="M36.094,41.9303C36.094,43.0445 37.0209,43.9478 38.1642,43.9478C39.3075,43.9478 40.2344,43.0445 40.2344,41.9303C40.2344,40.816 39.3075,39.9127 38.1642,39.9127C37.0209,39.9127 36.094,40.816 36.094,41.9303ZM22.946,36.8552L37.0593,36.8552C37.3996,36.8552 37.6916,36.7323 37.8712,36.5215C38.0655,36.3034 38.1432,36.0045 38.0928,35.6811C38.0887,35.6595 38.0842,35.638 38.0791,35.6166L36.97,30.9212C36.8313,30.1811 36.0793,29.5618 35.3052,29.5618L24.7,29.5618C23.926,29.5618 23.1739,30.1801 23.0342,30.9212L21.9261,35.6156C21.9209,35.637 21.9167,35.6585 21.9125,35.68C21.861,36.0035 21.9398,36.3024 22.1225,36.5081C22.3147,36.7323 22.6067,36.8552 22.946,36.8552ZM24.8145,31.347L35.1939,31.347L36.0719,35.0689L23.9354,35.0689L24.8145,31.347ZM19.773,41.9303C19.773,43.0445 20.6998,43.9478 21.8432,43.9478C22.9865,43.9478 23.9133,43.0445 23.9133,41.9303C23.9133,40.816 22.9865,39.9127 21.8432,39.9127C20.6998,39.9127 19.773,40.816 19.773,41.9303Z" fill="#fdfdfd"/>
  <path d="M32.7454,20.6953C32.5531,21.1185 32.0076,21.3243 31.527,21.155C31.0463,20.9858 30.8125,20.5055 31.0048,20.0823L31.9421,18.019C32.1344,17.5958 32.6799,17.39 33.1605,17.5592C33.6412,17.7285 33.875,18.2088 33.6827,18.632L32.7454,20.6953Z" fill="#ffffff"/>
  <path d="M40.2454,20.6953C40.0531,21.1185 39.5076,21.3243 39.027,21.155C38.5463,20.9858 38.3125,20.5055 38.5048,20.0823L39.4421,18.019C39.6344,17.5958 40.1799,17.39 40.6605,17.5592C41.1412,17.7285 41.375,18.2088 41.1827,18.632L40.2454,20.6953Z" fill="#ffffff"/>
  <path d="M21.4954,14.1953C21.3031,14.6185 20.7576,14.8243 20.277,14.655C19.7963,14.4858 19.5625,14.0055 19.7548,13.5823L20.6921,11.519C20.8844,11.0958 21.4299,10.89 21.9105,11.0592C22.3912,11.2285 22.625,11.7088 22.4327,12.132L21.4954,14.1953Z" fill="#ffffff"/>
  <path d="M24.3079,21.6238C24.1156,22.047 23.5701,22.2529 23.0895,22.0836C22.6088,21.9143 22.375,21.434 22.5673,21.0108L23.5046,18.9476C23.6969,18.5244 24.2424,18.3185 24.723,18.4878C25.2037,18.6571 25.4375,19.1374 25.2452,19.5606L24.3079,21.6238Z" fill="#ffffff"/>
  <path d="M29.9329,14.1953C29.7406,14.6185 29.1951,14.8243 28.7145,14.655C28.2338,14.4858 28,14.0055 28.1923,13.5823L29.1296,11.519C29.3219,11.0958 29.8674,10.89 30.348,11.0592C30.8287,11.2285 31.0625,11.7088 30.8702,12.132L29.9329,14.1953Z" fill="#ffffff"/>
  <path d="M37.4329,14.1953C37.2406,14.6185 36.6951,14.8243 36.2145,14.655C35.7338,14.4858 35.5,14.0055 35.6923,13.5823L36.6296,11.519C36.8219,11.0958 37.3674,10.89 37.848,11.0592C38.3287,11.2285 38.5625,11.7088 38.3702,12.132L37.4329,14.1953Z" fill="#ffffff"/>
</svg>
