<?xml version="1.0" encoding="UTF-8" standalone="no"?>
<svg viewBox="0 0 511.0 512.0">
  <g transform="translate(100 100) scale(0.6 0.6)">
    <path d="m113.207,363.582c-7.41,-3.707 -16.422,-0.703 -20.125,6.707l-30,60c-2.324,4.648 -2.074,10.172 0.656,14.594 2.734,4.422 7.563,7.113 12.762,7.113h35.727l-19.145,38.293c-3.703,7.406 -0.699,16.418 6.707,20.121 7.422,3.715 16.43,0.688 20.125,-6.707l30,-60c2.324,-4.648 2.078,-10.172 -0.656,-14.594 -2.734,-4.422 -7.563,-7.113 -12.762,-7.113h-35.727l19.145,-38.293c3.707,-7.406 0.703,-16.418 -6.707,-20.121zM113.207,363.582" fill="#ffffff"/>
    <path d="m413.203,363.582c-7.406,-3.707 -16.418,-0.703 -20.121,6.707l-30,60c-2.324,4.648 -2.078,10.172 0.656,14.594 2.73,4.422 7.559,7.113 12.758,7.113h35.73l-19.148,38.293c-3.703,7.406 -0.699,16.418 6.711,20.121 7.422,3.715 16.426,0.688 20.121,-6.707l30,-60c2.324,-4.648 2.078,-10.172 -0.656,-14.594 -2.73,-4.422 -7.563,-7.113 -12.758,-7.113h-35.73l19.148,-38.293c3.703,-7.406 0.699,-16.418 -6.711,-20.121zM413.203,363.582" fill="#ffffff"/>
    <path d="m383.473,91.336c-18.914,-54.309 -69.621,-91.336 -126.977,-91.336 -69.406,0 -126.75,53.039 -134.184,121h-15.813c-57.973,0 -106,47.883 -106,106 0,57.895 47.551,104.996 106,104.996h69.504l-22.367,37.281c-2.781,4.637 -2.855,10.406 -0.191,15.109 2.664,4.703 7.648,7.609 13.051,7.609h75v75c0,6.742 4.5,12.656 10.996,14.457 6.555,1.813 13.426,-1.008 16.867,-6.738l85.629,-142.719h36.508c66.719,0 121,-53.832 121,-119.996 0,-74.113 -63.418,-124.414 -129.023,-120.664zM271.496,412.84v-35.844c0,-8.281 -6.715,-15 -15,-15h-63.504l48.504,-80.844v35.844c0,8.285 6.719,15 15,15h63.508zM391.496,301.996h-120v-74.996c0,-6.742 -4.496,-12.656 -10.996,-14.457 -6.496,-1.801 -13.395,0.957 -16.863,6.738l-49.633,82.715h-87.504c-41.906,0 -76,-33.645 -76,-74.996 0,-41.199 34.805,-76 76,-76 20.031,0 38.867,7.801 53.031,21.965 5.855,5.859 15.355,5.859 21.215,0 5.855,-5.855 5.855,-15.355 0,-21.211 -8.613,-8.613 -18.457,-15.539 -29.133,-20.625 2.531,-56.195 48.605,-101.129 104.883,-101.129 43.023,0 81.266,26.973 97.09,67.02 -17.242,5.699 -33.285,15.473 -46.941,29.125 -5.859,5.859 -5.859,15.355 0,21.215 5.855,5.859 15.355,5.859 21.211,0 56.082,-56.078 154.641,-15.777 154.641,64.641 0,49.625 -40.82,89.996 -91,89.996zM391.496,301.996" fill="#ffffff"/>
  </g>
</svg>
