<?xml version="1.0" encoding="UTF-8" standalone="no"?>
<svg viewBox="0 0 512.0 512.0">
  <g transform="translate(140 140) scale(0.6 0.6)">
    <path d="M268.123,129.914c-2.859,-1.992 -6.508,-2.46 -9.781,-1.258l-10.984,4.039l4.734,-13.046c0.828,-2.258 0.859,-4.734 0.094,-7.016l-9.555,-28.672c-1.164,-3.484 -4.031,-6.125 -7.602,-6.992c-3.562,-0.867 -7.328,0.156 -9.953,2.719l-62.445,60.75l-30.867,9.352c-1.234,0.375 -2.398,0.977 -3.422,1.766c-0.859,0.664 -21.429,16.57 -47.382,40.617c-35.031,32.46 -61.695,62.757 -79.257,90.046c-2.117,3.281 -2.266,7.469 -0.398,10.891s5.461,5.547 9.367,5.547h22.211c-9.719,16.25 -21.664,42.594 -22.211,74.5c-0.07,4.094 2.219,7.875 5.891,9.719l15.781,7.889c1.273,14.297 7.227,48.016 34.796,75.453c3.172,3.156 7.977,4 12.031,2.125l20.266,-9.453c3.625,5.438 8.82,13.047 14.445,20.734c19.796,27.078 27.992,32.375 35.453,32.375c8.578,0 17,-7.25 30.039,-25.875c2.953,-4.219 5.695,-8.406 7.961,-12l19.688,14.469c4.102,3.016 9.765,2.719 13.523,-0.734c20.875,-19.156 24.82,-45.859 25.172,-61.203h10.281c5.766,0 10.492,-4.562 10.664,-10.344c1.453,-48.592 -26.445,-117.342 -31.984,-130.467l0.492,-79.421l35.562,-50.305c1.266,-1.797 1.953,-3.953 1.953,-6.156v-11.297C272.686,135.179 270.982,131.914 268.123,129.914zM215.811,196.843c-1.258,1.781 -1.938,3.906 -1.953,6.094l-0.477,77.875c-14.179,7.109 -26.007,21.031 -33.515,31.625c-11.141,-12.094 -32.289,-28.656 -67.82,-34.938c-5.797,-1.031 -11.336,2.844 -12.359,8.641s2.852,11.328 8.648,12.359c46.039,8.125 61.929,35.875 62.859,37.562c1.781,3.531 5.328,5.703 9.281,5.781c0.062,0 0.133,0 0.195,0c3.883,0 7.438,-2.188 9.312,-5.594c4.047,-7.344 15.68,-24.969 28.437,-33.719c7.969,20.25 24.68,66.484 26.75,102.811h-10.5c-3.07,0 -6,1.297 -8.023,3.594c-2.023,2.312 -2.961,5.375 -2.562,8.406c0.039,0.312 3.273,28.141 -12.14,48.406l-21.336,-15.688c-2.438,-1.781 -5.531,-2.453 -8.492,-1.844c-2.961,0.625 -5.523,2.469 -7.047,5.094c-8.906,15.344 -19.82,30.562 -25.555,35.953c-3.031,-2.766 -9.203,-9.422 -20.398,-24.969c-9.07,-12.609 -16.765,-24.609 -16.843,-24.719c-2.016,-3.141 -5.445,-4.922 -8.984,-4.922c-1.516,0 -3.047,0.328 -4.5,1l-21.586,10.062c-23.734,-27.75 -23.867,-61.281 -23.867,-61.594c0.047,-4.092 -2.242,-7.842 -5.898,-9.654l-15.125,-7.562c2.562,-33.188 19.382,-59.031 26.195,-68.25h5.688c5.891,0 10.664,-4.766 10.664,-10.656s-4.773,-10.656 -10.664,-10.656H53.319H31.124c38.531,-51.32 98.491,-99.625 108.741,-107.718l2.477,-0.75l-5.797,9.031c-3.18,4.953 -1.742,11.555 3.219,14.734c1.781,1.148 3.773,1.695 5.75,1.695c3.508,0 6.945,-1.734 8.984,-4.906l19.75,-30.766c0.492,-0.336 0.969,-0.703 1.398,-1.125l52.117,-50.71l3.016,9.031l-11.312,31.132c-1.422,3.906 -0.445,8.273 2.5,11.203c2.938,2.93 7.312,3.883 11.203,2.453l11.133,-4.094L215.811,196.843z" fill="#ffffff"/>
  </g>
</svg>
