<?xml version="1.0" encoding="UTF-8" standalone="no"?>
<svg viewBox="0 0 60.0 60.0">
  <path d="M19.9577,27.0623C19.9577,26.317 19.9577,24.9144 19.9577,22.8544C19.9577,18.5165 24.3046,15 29.6667,15C35.0288,15 39.3756,18.5165 39.3756,22.8544C39.3756,24.9037 39.3756,26.3064 39.3756,27.0623M20.2016,27.3568C16.4334,28.1918 14,29.5131 14,31.0004C14,33.5254 21.0142,35.5724 29.6667,35.5724C38.3191,35.5724 45.3333,33.5254 45.3333,31.0004C45.3333,29.5307 42.9572,28.223 39.2649,27.3866M19.9288,27.3131C22.6026,28.0311 25.9864,28.4601 29.6667,28.4601C33.3782,28.4601 36.7883,28.0238 39.4726,27.2947" fill="#00000000"/>
  <path d="M19.9595,39.1509L19.9595,39.1509A0.7912,0.7912 60,0 1,20.519 40.12L19.4541,44.0943A0.7912,0.7912 60,0 1,18.485 44.6538L18.485,44.6538A0.7912,0.7912 60,0 1,17.9255 43.6847L18.9904,39.7104A0.7912,0.7912 60,0 1,19.9595 39.1509z" fill="#ffffff"/>
  <path d="M39.3739,39.1509L39.3739,39.1509A0.7912,0.7912 120,0 0,38.8144 40.12L39.8793,44.0943A0.7912,0.7912 120,0 0,40.8484 44.6538L40.8484,44.6538A0.7912,0.7912 120,0 0,41.4078 43.6847L40.3429,39.7104A0.7912,0.7912 120,0 0,39.3739 39.1509z" fill="#ffffff"/>
  <path d="M29.6667,39.0539L29.6667,39.0539A0.7912,0.7912 0,0 0,28.8754 39.8451L28.8754,43.9596A0.7912,0.7912 0,0 0,29.6667 44.7508L29.6667,44.7508A0.7912,0.7912 0,0 0,30.4579 43.9596L30.4579,39.8451A0.7912,0.7912 0,0 0,29.6667 39.0539z" fill="#ffffff"/>
</svg>
