<?xml version="1.0" encoding="UTF-8" standalone="no"?>
<svg viewBox="0 0 60.0 60.0">
  <path d="M30.9037,32.9306L28.6343,35.2991L31.6828,38.1628L33.8981,35.8809L30.9037,32.9306ZM31.3628,27.5662L28.355,30.349L29.8158,31.9464L31.8638,29.6825C35.7371,26.0867 40.3363,31.1085 37.0283,34.9123L37.0283,35.0805L27.1409,44.7902C25.8211,46.0765 24.418,46.363 23.0992,46.1885C21.9079,46.0309 20.7972,45.5344 19.6666,44.3931L18.2605,45.7946C17.7841,46.3192 17.0002,46.5094 16.5238,45.9848C16.0474,45.4602 15.7714,44.8741 16.2478,44.3931L18.7733,42.2204C17.9937,40.2092 17.0744,38.1628 19.3661,36.2609L22.3544,33.3316L23.3958,32.4113L22.3544,31.4468C22.0513,31.1407 21.8802,30.4897 22.1833,30.1837C22.4865,29.8776 23.3506,29.8776 23.6537,30.1837L24.7255,31.2238L25.9058,29.8698L29.6485,26.2854L29.8158,26.2854C30.5822,25.5117 32.3818,23.8729 32.8935,22.9046C34.3216,20.2024 32.4757,15.2077 32.6191,14.4607C32.4892,13.7612 32.8773,13.1729 33.5702,13.0418C34.0033,12.9106 34.2144,13.1034 34.5176,13.4095L43.4955,22.5142C44.0151,23.0388 44.1638,23.4185 43.6441,23.8994C43.2977,24.2929 42.8844,23.8857 42.4513,23.7545C39.3788,23.0761 37.8003,22.8578 34.7607,24.5459C33.5868,25.1979 32.321,26.6274 31.3628,27.5662ZM40.1468,21.8173L35.1975,16.9378C35.1542,18.6866 35.3671,20.8527 34.7607,22.5142C36.3632,21.9021 37.9025,21.7019 39.635,21.6581L40.1468,21.8173ZM29.8158,31.9464L28.355,30.349L25.9058,32.7106C26.2681,33.1584 26.5157,33.4618 26.6487,33.6208C26.9017,33.9236 27.1691,34.2315 27.4548,34.1705C27.9657,34.0614 28.7527,33.3201 29.8158,31.9464ZM33.0724,30.7787L30.9037,32.9306L33.8981,35.8809L35.7371,33.4628C37.3395,31.8014 34.7181,29.1173 33.0724,30.7787ZM27.2817,36.4796L26.3822,37.4827L29.4572,40.3076L30.3208,39.4204L27.676,36.832L27.2817,36.4796ZM21.185,43.0815L21.2283,43.1253C22.6143,44.5243 24.6498,44.6555 26.1656,43.2127L26.2089,43.169L29.4572,40.3076L26.3822,37.4827L21.185,43.0815ZM25.018,36.1735C25.1065,36.1547 24.7402,35.7343 23.9192,34.9123L21.0033,38.1628C20.267,38.9061 20.3189,40.0089 20.3189,40.7959C23.3631,37.733 24.9295,36.1922 25.018,36.1735ZM25.018,36.1453L25.9058,35.5467C25.7429,35.3584 25.6085,35.203 25.5027,35.0805C25.3969,34.958 25.1378,34.6547 24.7255,34.1705L23.9192,34.9123L25.018,36.1453Z" fill="#ffffff"/>
</svg>
