<?xml version="1.0" encoding="UTF-8" standalone="no"?>
<svg viewBox="0 0 60.0 60.0">
  <path d="M31.7222,30.1613C32.1944,33.1349 35.8941,34.5962 40.8881,32.7147C40.8881,32.7147 38.8012,31.1061 39.6754,30.1613C40.5492,29.2159 43.952,26.3902 43.952,26.3902C43.952,26.3902 45.1019,29.8333 42.9774,32.0244C42.9774,32.0244 46.6759,29.5203 49.6667,31.1476C49.6667,31.1476 45.6144,36.1696 42.9774,34.1963C42.9774,34.1963 39.6754,34.998 32.1944,39.7081" fill="#00000000"/>
  <path d="M19.5736,22.0081C19.5736,22.0081 18.7551,21.0666 16.7088,21.1711C14.6625,21.2759 15.8903,18.8706 18.1412,19.1841C20.3925,19.4978 19.301,20.8573 19.5736,22.0081ZM19.7999,19.156C19.7999,19.156 19.8347,18.4472 18.7454,17.9242C17.6556,17.4012 19.4321,16.5252 20.4246,17.3181C21.4177,18.1113 20.2119,18.4946 19.7999,19.156ZM20.2597,22.0081C20.2597,22.0081 21.0782,21.0666 23.1242,21.1711C25.1708,21.2759 23.9434,18.8706 21.6921,19.1841C19.4412,19.4978 20.5323,20.8573 20.2597,22.0081Z" fill="#ffffff"/>
  <path d="M32.6667,32.3687C32.6667,31.8976 32.3519,31.7635 32.3519,31.7635C32.3111,31.5737 31.8925,30.9104 31.8356,30.7251C30.6871,26.9841 26.3005,24.1992 21.0645,24.1992C14.9537,24.1992 10,28.5974 10,33.2764" fill="#00000000"/>
  <path d="M10,33.8696C10,33.8696 13.801,35.0474 16.6467,33.6642C18.2607,32.8798 18.1105,38.5015 22.7929,39.4865C27.4751,40.4713 35.2469,39.0011 39.9074,35.2579C39.9074,35.2579 30.0612,46.4979 15.5633,41.289C15.5633,41.2892 10.2252,39.4989 10,33.8696Z" fill="#00000000"/>
  <path d="M15.6667,30.1463C15.6667,30.665 16.16,31.0854 16.7685,31.0854C17.3771,31.0854 17.8704,30.665 17.8704,30.1463C17.8704,29.6277 17.3771,29.2073 16.7685,29.2073C16.16,29.2073 15.6667,29.6277 15.6667,30.1463Z" fill="#ffffff"/>
</svg>
