<svg id="vector" xmlns="http://www.w3.org/2000/svg" width="24" height="24" viewBox="0 0 60 60"><path fill="none" d="M45.27,31.008C45.2481,30.9193 45.2262,30.8305 45.1823,30.7418L14.0378,30.7418C13.9939,30.8305 13.972,30.9193 13.95,31.008C13.4237,31.8511 13.1166,32.8496 13.1166,33.9367L13.1166,40.6518C13.1166,42.2492 15.7449,41.7916 16.0995,41.7916C16.454,41.7916 16.454,42.2714 16.454,40.6518L16.454,38.7808L42.8099,38.7808L42.8099,40.6518C42.8099,42.2492 42.5,41.7916 43.2721,41.7916C44.0443,41.7916 46.1474,42.2714 46.1474,40.6518L46.1474,33.9367C46.1254,32.8496 45.7964,31.8511 45.27,31.008Z" stroke="#ffffff" stroke-width="1.8333" fill-rule="evenodd" id="path_0"/><path fill="#00000000" d="M18.3333,36.6667C17.2222,36.6667 16.3333,35.7778 16.3333,34.6667C16.3333,33.5556 17.2222,32.6667 18.3333,32.6667C19.4444,32.6667 20.3333,33.5556 20.3333,34.6481C20.3333,35.7593 19.4444,36.6667 18.3333,36.6667Z" stroke="#ffffff" stroke-width="1.1258" fill-rule="nonzero" id="path_1"/><path fill="#00000000" d="M41,36.6667C39.8889,36.6667 39,35.7778 39,34.6667C39,33.5556 39.8889,32.6667 41,32.6667C42.1111,32.6667 43,33.5556 43,34.6667C43,35.7593 42.1111,36.6667 41,36.6667Z" stroke="#ffffff" stroke-width="1.1258" fill-rule="nonzero" id="path_2"/><path fill="none" d="M14.3639,30.4872L44.9741,30.4872L41.451,20.8237C41.0335,19.6786 39.9447,18.9167 38.7259,18.9167L20.6121,18.9167C19.3933,18.9167 18.3044,19.6786 17.887,20.8237L14.3639,30.4872Z" stroke="#ffffff" stroke-width="1.8333" fill-rule="nonzero" id="path_3"/><path fill="#00000000" d="M32.8333,21.1795L30,24.0641" stroke="#ffffff" stroke-width="1.4431" stroke-linecap="round" fill-rule="nonzero" id="path_4"/><path fill="#00000000" d="M24.6111,23.7308L22.7222,26.6154" stroke="#ffffff" stroke-width="1.4431" stroke-linecap="round" fill-rule="nonzero" id="path_5"/><path fill="#00000000" d="M37.2222,24.6923L35.3333,27.5769" stroke="#ffffff" stroke-width="1.4431" stroke-linecap="round" fill-rule="nonzero" id="path_6"/></svg>