<?xml version="1.0" encoding="UTF-8" standalone="no"?>
<svg viewBox="0 0 60.0 60.0">
  <path d="M17.0763,41L17.0763,41C17.6707,41 18.1525,40.5181 18.1525,39.9237L18.1525,23.0763C18.1525,22.4819 17.6707,22 17.0763,22L17.0763,22C16.4819,22 16,22.4819 16,23.0763L16,39.9237C16,40.5181 16.4819,41 17.0763,41ZM42.9069,41L42.9069,41C43.5014,41 43.9833,40.5181 43.9833,39.9236L43.9833,23.0764C43.9833,22.4819 43.5014,22 42.9069,22L42.9069,22C42.3125,22 41.8305,22.4819 41.8305,23.0764L41.8305,39.9236C41.8305,40.5181 42.3125,41 42.9069,41ZM23.534,41L23.534,41C24.1284,41 24.6103,40.5181 24.6103,39.9237L24.6103,31.0763C24.6103,30.4819 24.1284,30 23.534,30L23.534,30C22.9396,30 22.4577,30.4819 22.4577,31.0763L22.4577,39.9237C22.4577,40.5181 22.9396,41 23.534,41ZM36.4493,41L36.4493,41C37.0437,41 37.5255,40.5181 37.5255,39.9237L37.5255,26.6763C37.5255,26.0819 37.0437,25.6001 36.4493,25.6001L36.4493,25.6001C35.8549,25.6001 35.373,26.0819 35.373,26.6763L35.373,39.9237C35.373,40.5181 35.8549,41 36.4493,41ZM29.9915,41L29.9915,41C30.5859,41 31.0678,40.5181 31.0678,39.9237L31.0678,20.0763C31.0678,19.4819 30.5859,19 29.9915,19L29.9915,19C29.3971,19 28.9153,19.4819 28.9153,20.0763L28.9153,39.9237C28.9153,40.5181 29.3971,41 29.9915,41Z" fill="#ffffff"/>
</svg>
