<?xml version="1.0" encoding="UTF-8" standalone="no"?>
<svg viewBox="0 0 60.0 60.0">
  <path d="M28.99,24.86C28.8,25.35 28.25,25.59 27.77,25.39C27.29,25.2 27.05,24.64 27.24,24.15L28.18,21.76C28.38,21.28 28.93,21.04 29.41,21.23C29.89,21.43 30.13,21.98 29.93,22.47L28.99,24.86ZM33.29,44.09L33.29,44.09L33.29,41.12C31.41,40.68 30,38.97 30,36.93C30,34.55 31.9,32.63 34.24,32.63C35.76,32.63 37.12,33.45 37.87,34.72C38.21,34.6 38.57,34.54 38.94,34.54C40.76,34.54 42.24,36.03 42.24,37.88C42.24,39.4 41.24,40.67 39.88,41.09L39.88,44.09L45.06,44.09C45.58,44.09 46,44.52 46,45.04C46,45.57 45.58,46 45.06,46L14.94,46C14.42,46 14,45.57 14,45.04C14,44.52 14.42,44.09 14.94,44.09L15.88,44.09L15.88,28.81C15.88,28.28 16.3,27.85 16.82,27.85L18.24,27.85L18.24,24.99C18.24,24.46 18.66,24.03 19.18,24.03L21.06,24.03L21.06,22.12C21.06,21.59 21.48,21.16 22,21.16C22.52,21.16 22.94,21.59 22.94,22.12L22.94,24.03L24.82,24.03C25.34,24.03 25.76,24.46 25.76,24.99L25.76,27.85L27.18,27.85C27.7,27.85 28.12,28.28 28.12,28.81L28.12,44.09L33.29,44.09ZM35.18,44.09L38,44.09L38,41.09C37.53,40.94 37.11,40.7 36.75,40.38C36.29,40.73 35.75,40.98 35.18,41.12L35.18,44.09ZM24.82,44.09L26.24,44.09L26.24,29.76L17.76,29.76L17.76,44.09L19.18,44.09L19.18,40.27C19.18,39.74 19.6,39.31 20.12,39.31L23.88,39.31C24.4,39.31 24.82,39.74 24.82,40.27L24.82,44.09ZM23.88,27.85L23.88,25.94L20.12,25.94L20.12,27.85L23.88,27.85ZM35.65,37.88C35.65,37.13 35.89,36.42 36.33,35.84C35.94,35.06 35.14,34.54 34.24,34.54C32.94,34.54 31.88,35.61 31.88,36.93C31.88,38.24 32.94,39.31 34.24,39.31C34.81,39.31 35.34,39.11 35.76,38.75C35.69,38.47 35.65,38.18 35.65,37.88ZM38.94,39.31C39.72,39.31 40.35,38.67 40.35,37.88C40.35,37.09 39.72,36.45 38.94,36.45C38.16,36.45 37.53,37.09 37.53,37.88C37.53,38.67 38.16,39.31 38.94,39.31ZM22.94,44.09L22.94,41.22L21.06,41.22L21.06,44.09L22.94,44.09ZM23.88,35.49C24.4,35.49 24.82,35.92 24.82,36.45C24.82,36.98 24.4,37.4 23.88,37.4L20.12,37.4C19.6,37.4 19.18,36.98 19.18,36.45C19.18,35.92 19.6,35.49 20.12,35.49L23.88,35.49ZM23.88,31.67C24.4,31.67 24.82,32.1 24.82,32.63C24.82,33.15 24.4,33.58 23.88,33.58L20.12,33.58C19.6,33.58 19.18,33.15 19.18,32.63C19.18,32.1 19.6,31.67 20.12,31.67L23.88,31.67ZM35.58,24.86C35.39,25.35 34.84,25.59 34.36,25.39C33.87,25.2 33.64,24.64 33.83,24.15L34.77,21.76C34.97,21.28 35.51,21.04 36,21.23C36.48,21.43 36.71,21.98 36.52,22.47L35.58,24.86ZM42.17,24.86C41.97,25.35 41.43,25.59 40.94,25.39C40.46,25.2 40.23,24.64 40.42,24.15L41.36,21.76C41.55,21.28 42.1,21.04 42.58,21.23C43.07,21.43 43.3,21.98 43.11,22.47L42.17,24.86ZM20.52,17.7C20.33,18.19 19.78,18.43 19.3,18.23C18.81,18.03 18.58,17.48 18.77,16.99L19.71,14.6C19.91,14.11 20.46,13.87 20.94,14.07C21.42,14.26 21.66,14.82 21.46,15.31L20.52,17.7ZM27.11,17.7C26.92,18.19 26.37,18.43 25.89,18.23C25.4,18.03 25.17,17.48 25.36,16.99L26.3,14.6C26.5,14.11 27.04,13.87 27.53,14.07C28.01,14.26 28.24,14.82 28.05,15.31L27.11,17.7ZM33.7,17.7C33.5,18.19 32.96,18.43 32.47,18.23C31.99,18.03 31.76,17.48 31.95,16.99L32.89,14.6C33.08,14.11 33.63,13.87 34.11,14.07C34.6,14.26 34.83,14.82 34.64,15.31L33.7,17.7ZM40.29,17.7C40.09,18.19 39.54,18.43 39.06,18.23C38.58,18.03 38.34,17.48 38.54,16.99L39.48,14.6C39.67,14.11 40.22,13.87 40.7,14.07C41.19,14.26 41.42,14.82 41.23,15.31L40.29,17.7Z" fill="#ffffff"/>
</svg>
