<?xml version="1.0" encoding="UTF-8" standalone="no"?>
<svg viewBox="0 0 60.0 60.0">
  <path d="M48,22.74C48,17.92 44.34,14 39.84,14C37.29,14 34.95,15.24 33.39,17.4C32.41,17.09 31.38,16.91 30.32,16.91C24.32,16.91 19.44,22.14 19.44,28.57C16.44,28.57 14,31.19 14,34.4C14,37.61 16.44,40.23 19.44,40.23L41.2,40.23C44.95,40.23 48,36.96 48,32.94C48,31.09 47.34,29.39 46.27,28.1C47.38,26.58 48,24.7 48,22.74ZM39.8,16.68C42.95,16.68 45.51,19.43 45.51,22.8C45.51,24.18 45.06,25.51 44.27,26.59C43.24,26.06 42.08,25.79 40.86,25.86C40.11,22.73 38.24,20.12 35.76,18.49C36.82,17.34 38.26,16.68 39.8,16.68ZM41.77,37.8L18.8,37.8C17.21,37.8 15.93,36.42 15.93,34.72C15.93,33.03 17.21,31.65 18.8,31.65C19.16,31.65 19.52,31.72 19.86,31.87C20.35,32.08 20.9,31.99 21.3,31.64C21.7,31.28 21.9,30.72 21.81,30.18C21.71,29.6 21.67,29.08 21.67,28.57C21.67,23.48 25.53,19.34 30.28,19.34C34.63,19.34 38.3,22.83 38.82,27.44C38.87,27.89 39.1,28.29 39.45,28.53C39.79,28.78 40.22,28.86 40.63,28.74C43.47,27.91 46.07,30.24 46.07,33.19C46.07,35.73 44.14,37.8 41.77,37.8Z" fill="#ffffff"/>
  <path d="M22.31,42.98C21.59,42.78 20.83,43.2 20.63,43.92L20.25,45.24C20.04,45.96 20.46,46.72 21.18,46.92C21.9,47.13 22.66,46.71 22.86,45.99L23.24,44.67C23.45,43.95 23.03,43.19 22.31,42.98Z" fill="#ffffff"/>
  <path d="M31.38,42.98C30.65,42.78 29.9,43.2 29.69,43.92L29.32,45.24C29.11,45.96 29.52,46.72 30.25,46.92C30.97,47.13 31.72,46.71 31.93,45.99L32.31,44.67C32.51,43.95 32.1,43.19 31.38,42.98Z" fill="#ffffff"/>
  <path d="M40.44,42.98C39.72,42.78 38.97,43.2 38.76,43.92L38.38,45.24C38.17,45.96 38.59,46.72 39.31,46.92C40.03,47.13 40.79,46.71 41,45.99L41.37,44.67C41.58,43.95 41.16,43.19 40.44,42.98Z" fill="#ffffff"/>
</svg>
