<?xml version="1.0" encoding="UTF-8" standalone="no"?>
<svg viewBox="0 0 67.7 67.7">
  <g transform="translate(12 12) scale(0.6 0.6)">
    <path d="M38.13,60.91l-0.3,0c-2.79,-0.31 -3.09,-3.47 -4.09,-18.37 -0.65,-9.74 -1.45,-21.8 -3.44,-29.19 -1.46,6.86 -2.76,24 -3.3,39.74v0.23l-0.06,0.23c-0.28,1 -1,3.73 -3.28,3.58 -2.87,-0.18 -3.81,-3.58 -6.66,-24.21 -0.28,-2 -0.55,-4 -0.82,-5.77 -0.65,5.29 -1.26,12.06 -1.64,16.2 -0.2,2.26 -0.38,4.29 -0.54,5.87 -0.19,1.88 -0.47,4.73 -2.82,4.74 -1.35,0 -3.55,0 -5.86,-19.16 -0.15,0.55 -0.3,1.11 -0.43,1.66A2,2 0,1 1,1 35.52c2.09,-8.87 4,-8.75 5.06,-8.69 2.4,0.14 2.75,3.27 2.94,5 0.41,3.7 1,7.65 1.58,11 2.28,-25.26 3,-26.34 5.48,-26.5 2.14,-0.14 2.67,2.28 2.9,3.32 0.6,2.68 1.28,7.59 2,12.78 0.6,4.34 1.44,10.42 2.29,15 0.19,-4.23 0.51,-10.32 1,-16.39 0.48,-6.42 1,-11.57 1.62,-15.3 1,-6.29 2,-8.5 4.08,-8.76 2.57,-0.33 3.53,3 4,4.54 2.27,7.73 3.13,20.53 3.81,30.82 0.25,3.62 0.51,7.52 0.81,10.49 2.11,-8.48 2.78,-21.11 3.24,-29.66 0.56,-10.51 0.63,-11.86 2.92,-12s2.65,2.25 3.27,5.55c1,5.57 1.85,12.72 2.56,19 0.39,3.41 0.82,7.27 1.26,10.33 0.72,-4.1 1.12,-8.68 1.46,-12.53 0.67,-7.63 0.87,-9.93 3.2,-10.17 2.16,-0.22 2.92,2.29 3.47,4.13 0.94,3.13 1.68,6.92 2.34,10.25 0.28,1.4 0.6,3 0.92,4.48a2,2 0,0 1,3.76 1.32c-0.75,3 -1.57,5.72 -3.9,5.65 -2.61,-0.07 -3.23,-3.17 -4.7,-10.67C58,36.8 57.66,35 57.28,33.3c0,0.17 0,0.34 -0.05,0.52a114.6,114.6 0,0 1,-2.29 16.66c-0.42,1.69 -1.11,4.51 -3.42,4.35 -2.67,-0.18 -3.16,-2.75 -5,-18.71 -0.32,-2.79 -0.65,-5.76 -1,-8.66 -0.51,9 -1.38,20.49 -3.62,28.1C41.06,58.48 40.17,60.91 38.13,60.91Z" fill="#ffffff"/>
  </g>
</svg>
