<?xml version="1.0" encoding="UTF-8" standalone="no"?>
<svg viewBox="0 0 60.0 60.0">
  <path d="M27.9407,27.8162C28.0003,28.0059 28.059,28.184 28.1169,28.3506C28.5024,29.4604 28.5164,30.4909 28.1588,31.442C27.7207,32.6073 29.3469,32.5448 33.0375,31.2547L33.2889,29.1319L34.6448,28.5082L34.9778,28.5082L35.4274,28.6552L36.3858,29.7877L36.3858,30.8153C36.2685,31.4441 36.0738,31.8348 35.8019,31.9875C32.7436,33.7047 30.8739,34.5632 30.1928,34.5632C29.035,34.5632 31.0367,35.4897 31.6,36.7069C32.1633,37.9242 36.0235,31.3843 39.6222,37.4083C39.6848,37.6268 40.144,38.2463 40.144,40.6809C40.2066,41.0242 40.5195,38.7457 41.1141,38.7457C41.7086,38.7457 43.8679,39.9006 42.6161,42.4288C42.4284,42.8346 41.1704,45.2597 39.6222,44.8431C38.0741,44.4264 37.9333,43.7208 37.9333,43.1597C37.9333,42.5986 36.3931,39.2414 36.9521,38.7457C37.5111,38.25 32.2582,51.3244 22.6825,44.4264C22.3696,44.4264 11.0415,33.0963 23.4961,23.0146C23.5587,23.1083 21.3056,9.0002 34.2922,14.119C34.167,14.4 43.2815,18.7514 34.9778,24.9236C34.9902,24.936 34.8014,25.144 34.6963,25.3444C34.4783,25.7603 34.2283,26.3264 34.1333,26.3264C34.1474,26.4248 32.0435,27.6547 30.3333,28.0097C29.9092,28.0978 29.3064,28.0332 28.5248,27.8162C28.3737,27.7742 28.1791,27.7742 27.9407,27.8162Z" fill="#00000000"/>
  <path d="M32.3322,22.8529L31.9559,22.8A0.6333,0.6333 53,0 0,31.2406 23.3391L31.2155,23.5177A0.6333,0.6333 53,0 0,31.7545 24.233L32.1308,24.2859A0.6333,0.6333 53,0 0,32.8461 23.7468L32.8712,23.5682A0.6333,0.6333 53,0 0,32.3322 22.8529z" fill="#ffffff"/>
</svg>
