<?xml version="1.0" encoding="UTF-8" standalone="no"?>
<svg viewBox="0 0 654.7 654.0">
  <g transform="translate(120 120) scale(0.6 0.6)">
    <path d="m619.613,224.395 l14.137,-14.137 -57.051,-57.047v-31.711l32.918,32.918 14.137,-14.137 -49.984,-49.984c-3.906,-3.898 -10.23,-3.898 -14.137,0l-22.922,22.926 -29.988,-29.988v-21.715l32.918,32.918 14.137,-14.137 -49.984,-49.984c-3.906,-3.898 -10.23,-3.898 -14.137,0l-49.984,49.984 14.137,14.137 32.918,-32.918v21.715l-47.055,47.051 14.137,14.137 32.918,-32.922v85.832h19.996v-85.832l15.852,15.855 -12.926,12.926 14.137,14.137 32.918,-32.918v31.711l-57.051,57.047 14.137,14.137 42.914,-42.914v31.711l-47.055,47.051 14.137,14.137 32.918,-32.918v31.711l-57.051,57.047 14.137,14.137 42.914,-42.914v31.711l-47.055,47.051 14.137,14.137 32.918,-32.918v155.809h19.996v-155.809l32.918,32.918 14.137,-14.137 -47.055,-47.051v-31.711l42.914,42.914 14.137,-14.137 -57.051,-57.047v-31.711l32.918,32.918 14.137,-14.137 -47.055,-47.051v-31.711zM619.613,224.395" fill="#fff"/>
    <path d="m149.766,274.379 l14.137,-14.137 -57.051,-57.047v-31.715l32.918,32.922 14.137,-14.137 -49.984,-49.984c-3.902,-3.898 -10.23,-3.898 -14.137,0l-49.98,49.984 14.133,14.137 32.922,-32.922v31.715l-57.055,57.047 14.137,14.137 42.918,-42.918v31.715l-47.055,47.051 14.133,14.137 32.922,-32.922v135.816h19.992v-135.816l32.918,32.922 14.137,-14.137 -47.055,-47.051v-31.715zM149.766,274.379" fill="#fff"/>
    <path d="m239.738,104.434 l14.137,-14.137 -59.98,-59.98c-3.906,-3.898 -10.23,-3.898 -14.137,0l-59.98,59.98 14.137,14.137 42.914,-42.914v31.711l-47.055,47.051 14.137,14.137 32.918,-32.918v125.816h19.992v-125.816l32.922,32.918 14.137,-14.137 -47.059,-47.051v-31.711zM239.738,104.434" fill="#fff"/>
    <path d="m210.34,376.727c8.09,-7.688 12.738,-18.324 12.887,-29.488 0.141,-11.16 -4.234,-21.91 -12.125,-29.805 -8.352,-8.359 -8.352,-21.906 0,-30.266l80.547,-80.555c16.152,-16.176 16.152,-42.375 0,-58.551l-5.563,-5.57c-8.363,-8.355 -8.363,-21.91 0,-30.27l77.762,-77.766 -14.145,-14.137 -77.766,77.77c-16.176,16.164 -16.176,42.383 0,58.547l5.566,5.57c8.352,8.363 8.352,21.906 0,30.27l-80.551,80.555c-16.141,16.176 -16.141,42.363 0,58.539 4.082,4.082 6.34,9.641 6.27,15.41 -0.074,5.777 -2.477,11.273 -6.66,15.25l-176.563,167.746 13.754,14.496zM210.34,376.727" fill="#fff"/>
    <path d="m445.5,32.211 l-17.512,-9.641 -43.984,79.914c-8.723,15.75 -6.227,35.328 6.172,48.375l48.297,51.145c8.008,8.402 7.824,21.668 -0.422,29.84l-35.645,35.637c-7.895,7.887 -12.27,18.629 -12.125,29.781 0.137,11.152 4.773,21.785 12.855,29.473l59.602,56.719c8.434,7.973 8.941,21.23 1.137,29.82l-5.199,5.77c-14.313,16.07 -14.02,40.402 0.684,56.121l150.059,158.898 14.535,-13.738 -150.063,-158.883c-7.586,-8.121 -7.738,-20.691 -0.348,-28.996l5.188,-5.762c15.105,-16.617 14.117,-42.262 -2.211,-57.672l-59.559,-56.715c-4.18,-3.977 -6.574,-9.473 -6.648,-15.242 -0.07,-5.762 2.191,-11.316 6.266,-15.398l35.648,-35.637c15.949,-15.801 16.309,-41.453 0.82,-57.703l-48.293,-51.184c-6.391,-6.746 -7.684,-16.852 -3.199,-24.992zM445.5,32.211" fill="#fff"/>
    <path d="m321.352,346.863c13.57,-13.57 13.57,-35.57 0,-49.145 -5.758,-5.754 -5.758,-15.086 0,-20.84l32.488,-32.492c14.93,-14.949 14.93,-39.164 0,-54.121l-14.133,14.137c7.129,7.145 7.129,18.707 0,25.848l-32.492,32.48c-13.57,13.574 -13.57,35.574 0,49.145 5.762,5.754 5.762,15.09 0,20.844l-32.488,32.488 14.137,14.137zM321.352,346.863" fill="#fff"/>
    <path d="m433.816,560.145 l-64.98,-64.98c-9.875,-9.906 -9.875,-25.938 0,-35.848 17.684,-17.711 17.684,-46.398 0,-64.117l-14.996,-14.996 -14.133,14.137 14.992,14.996c9.875,9.906 9.875,25.938 0,35.848 -17.684,17.719 -17.684,46.402 0,64.117l64.98,64.98zM433.816,560.145" fill="#fff"/>
    <path d="m269.727,450.18 l-39.984,39.988c-14.93,14.957 -14.93,39.172 0,54.121 7.125,7.148 7.125,18.711 0,25.852l-39.988,39.988 14.137,14.137 39.988,-39.988c14.926,-14.953 14.926,-39.168 0,-54.125 -7.129,-7.141 -7.129,-18.703 0,-25.848l39.984,-39.988zM269.727,450.18" fill="#fff"/>
  </g>
</svg>
