<?xml version="1.0" encoding="UTF-8" standalone="no"?>
<svg viewBox="0 0 60.0 60.0">
  <path d="M30.3418,43.3482C33.9803,43.0298 37.2392,41.2947 39.5869,38.4968C41.9346,35.699 42.918,32.3537 42.5997,28.7152C42.2813,25.0767 40.719,21.8446 37.9211,19.4969C36.5833,18.3744 35.219,17.6174 33.5725,17.0738C33.1078,16.9203 32.776,16.9996 32.4615,17.3744C32.147,17.7492 32.2297,18.2646 32.4615,18.6955C34.6636,22.7897 33.8548,27.8395 30.8664,31.4009C28.9293,33.7095 26.025,34.8954 23.0229,35.1581C21.4811,35.293 20.0633,35.3674 18.6015,34.8846C18.1367,34.7313 17.5204,34.7833 17.206,35.1581C16.8915,35.5329 16.9743,36.054 17.206,36.4849C18.0273,38.0119 19.3006,39.0786 20.6384,40.2012C23.4364,42.549 26.7033,43.6665 30.3418,43.3482ZM35.3873,20.1682C35.7728,20.4189 36.0867,20.5562 36.4434,20.8555C37.7008,21.9106 38.8794,23.3575 39.5869,24.7674C41.5613,28.702 41.0471,33.7913 38.1029,37.3C36.1656,39.6089 33.0863,41.0388 30.0839,41.3015C27.0814,41.5641 24.168,40.4342 21.8592,38.4968C21.5022,38.1973 20.514,37.5679 20.1589,37.1122C20.9856,37.1122 22.1978,37.4461 23.0229,37.3C26.7561,36.6389 30.0839,35.6014 32.4615,32.5505C34.1748,30.352 35.1272,27.9999 35.3873,25.2316C35.5409,23.5965 35.3873,21.878 35.3873,20.1682ZM24.7088,21.2481L23.2939,21.7768C23.2414,21.7962 23.1654,21.8807 23.1519,21.9356L22.7762,23.4045C22.7352,23.5645 22.6329,23.6727 22.4953,23.7017C22.3578,23.7304 22.2208,23.6729 22.1197,23.5435L21.19,22.3575C21.1567,22.3153 21.0537,22.2694 21.0003,22.2731L19.4964,22.3761C19.4174,22.3812 19.3454,22.3692 19.2841,22.3419C19.218,22.3124 19.1644,22.2653 19.128,22.2024C19.0571,22.0807 19.0693,21.932 19.161,21.7944L20.001,20.5327C20.0323,20.4858 20.0445,20.3728 20.0241,20.3209L19.47,18.9156C19.4099,18.7625 19.4292,18.6151 19.5232,18.5111C19.6172,18.4071 19.7616,18.3727 19.9194,18.4168L21.3682,18.8234C21.4217,18.8382 21.5307,18.8146 21.5733,18.7785L22.7349,17.8075C22.8611,17.7014 23.0074,17.6738 23.1358,17.731C23.2644,17.7882 23.3416,17.9153 23.3477,18.0803L23.4033,19.5932C23.4053,19.6492 23.4605,19.7462 23.5071,19.7757L24.7788,20.5804C24.9174,20.6681 24.9884,20.7985 24.9738,20.9378C24.9595,21.0773 24.8627,21.1905 24.7088,21.2481ZM29.1773,27.5988L28.1555,27.9807C28.1175,27.9947 28.0626,28.0558 28.0529,28.0954L27.7815,29.1563C27.7519,29.2718 27.6781,29.35 27.5787,29.3709C27.4793,29.3916 27.3804,29.3501 27.3074,29.2566L26.6359,28.4001C26.6119,28.3696 26.5375,28.3365 26.4989,28.3391L25.4128,28.4135C25.3557,28.4172 25.3037,28.4085 25.2595,28.3888C25.2117,28.3675 25.173,28.3335 25.1467,28.2881C25.0955,28.2002 25.1043,28.0928 25.1706,27.9934L25.7772,27.0822C25.7999,27.0483 25.8087,26.9667 25.7939,26.9292L25.3937,25.9143C25.3503,25.8037 25.3642,25.6972 25.4321,25.6221C25.5,25.547 25.6044,25.5222 25.7183,25.5541L26.7647,25.8477C26.8033,25.8584 26.882,25.8413 26.9128,25.8152L27.7517,25.114C27.8429,25.0373 27.9485,25.0175 28.0412,25.0587C28.1341,25.1001 28.1899,25.1918 28.1942,25.311L28.2344,26.4037C28.2359,26.4441 28.2758,26.5141 28.3094,26.5355L29.2278,27.1166C29.3279,27.18 29.3793,27.2742 29.3687,27.3748C29.3583,27.4755 29.2885,27.5573 29.1773,27.5988Z" fill="#ffffff"/>
</svg>
