<?xml version="1.0" encoding="UTF-8" standalone="no"?>
<svg viewBox="0 0 60.0 60.0">
  <path d="M39.7618,33.7405L39.7618,26.7171C39.7618,26.1314 39.7026,25.5523 39.5691,24.9771C38.6111,20.7638 34.1013,17.7286 29.0543,18.6146C24.8191,19.3569 21.8005,22.7564 21.8005,26.694C21.8005,31.4043 21.79,36.1117 21.8035,40.8227C21.811,42.9547 22.5934,44.8348 24.2002,46.3885C26.3553,48.4728 28.9486,49.2732 32.0542,48.8819C34.1846,48.6129 36.0231,47.7507 37.4589,46.2894C39.038,44.6813 39.7679,42.7878 39.7603,40.6349C39.7551,38.339 39.7618,36.0394 39.7618,33.7405ZM26.6126,20.6505C29.2696,19.1311 32.0527,19.108 34.7644,20.535C37.3411,21.8905 38.6321,24.3533 38.5834,26.7037C38.2781,26.6589 38.1018,26.5397 37.9758,26.2476C36.8641,23.6312 34.7892,22.0306 31.7504,21.6014C28.0867,21.0797 24.9136,23.2423 23.8191,26.2334C23.7389,26.4548 23.6331,26.5807 23.3773,26.6083C23.2513,26.6217 23.1282,26.6731 22.9632,26.7171C23.0435,24.1007 24.2084,22.0298 26.6126,20.6505ZM23.2858,27.8445C23.4966,27.6471 23.7629,27.5852 24.0577,27.5852C24.4852,27.5852 24.6398,27.4697 24.7523,27.0912C25.3907,24.986 26.7702,23.4979 29.0866,22.813C29.722,22.626 30.3851,22.5232 31.0625,22.6223C31.6243,22.7072 31.9649,22.9904 32.0594,23.4368C32.1262,23.7497 32.0129,23.9986 31.7541,24.1931C31.4848,24.3943 31.1682,24.4621 30.8277,24.3735C30.6206,24.3191 30.5711,24.1521 30.5329,23.9711C30.4699,23.6886 30.2201,23.5284 29.9185,23.5493C29.6447,23.5657 29.4167,23.7535 29.3852,24.0024C29.3604,24.176 29.4137,24.3429 29.4767,24.5061C29.7857,25.3027 30.7332,25.6746 31.7436,25.3914C32.6693,25.1291 33.4592,24.4003 33.1899,23.0515C34.2528,23.4599 35.1305,24.0664 35.8386,24.8839C36.4117,25.5449 36.8536,26.267 37.0606,27.0941C37.1341,27.3974 37.3201,27.5539 37.6532,27.5882C37.9863,27.6217 38.2608,27.7447 38.4469,28.0174C38.8264,28.583 38.4784,29.3014 37.759,29.3901C37.3479,29.4407 37.1341,29.6151 37.0283,29.9825C36.3585,32.3842 34.0743,34.1004 31.364,34.2643C28.2659,34.4484 25.5737,32.6905 24.7808,29.9594C24.651,29.513 24.5212,29.4243 23.9841,29.4109C23.5311,29.4005 23.216,29.1993 23.054,28.8185C22.8852,28.4504 22.991,28.1232 23.2858,27.8445ZM22.9805,31.5608C22.991,31.1413 22.9842,30.7195 22.9842,30.297C23.1875,30.3446 23.3735,30.4028 23.5663,30.4333C23.7208,30.4609 23.7419,30.563 23.7839,30.6681C24.6615,32.9193 26.3351,34.4283 28.8518,35.0893C32.7608,36.1184 36.7868,34.1421 38.0425,30.6107C38.1408,30.3379 38.3936,30.3789 38.5834,30.2731C38.5834,31.0839 38.6464,31.8775 38.5691,32.6607C38.4536,33.8157 37.702,34.6697 36.7755,35.3993C35.0877,36.7279 33.0863,37.45 30.9357,37.8658C29.8743,38.0739 28.7957,38.1831 27.7138,38.1922C27.5665,38.1981 27.4211,38.1563 27.2998,38.073C25.8047,37.0647 24.5197,35.8896 23.6953,34.3403C23.222,33.464 22.9557,32.5444 22.9805,31.5608ZM37.3021,44.7357C36.0247,46.469 34.2558,47.5518 31.9889,47.8692C27.7386,48.4646 24.0157,45.9071 23.156,42.3578C23.0352,41.8467 22.9752,41.3232 22.9775,40.7981C22.9842,39.1118 22.9805,37.4224 22.9805,35.7368L22.9805,35.4164C23.363,35.9812 23.7419,36.4686 24.1739,36.9187C25.936,38.7541 28.1287,40.0142 30.5891,40.9166C32.0107,41.4375 33.4772,41.793 35.0112,41.8772C36.2324,41.9457 37.4154,41.8399 38.4926,41.2408C38.5076,41.2341 38.5279,41.2408 38.5706,41.2408C38.4844,42.5106 38.0778,43.6865 37.3021,44.7357ZM38.5976,38.9381C38.5976,39.769 38.1273,40.3488 37.2534,40.6141C36.4395,40.863 35.6001,40.8697 34.7652,40.7944C32.8988,40.6312 31.1607,40.0649 29.4984,39.3025C29.4354,39.275 29.3507,39.2616 29.3229,39.187C32.8433,38.7437 36.0929,37.7764 38.5669,35.2696C38.6299,35.3277 38.5909,35.4067 38.5909,35.4775C38.5976,36.6318 38.5939,37.7868 38.5976,38.9381Z" fill="#ffffff"/>
  <path d="M31.8112,14.6748C32.0038,14.3711 32.1986,14.0688 32.392,13.7655C32.6602,13.3464 32.9282,12.9271 33.1965,12.508C33.2848,12.6871 33.4023,12.8555 33.5591,12.9828C33.6419,13.0507 33.7409,13.0975 33.8442,13.1299C34.0527,13.1915 34.2863,13.1694 34.4885,13.0783C34.6471,13.0077 34.7869,12.9 34.9069,12.7764C34.8235,12.782 34.7426,12.7579 34.6684,12.7258C34.5511,12.6737 34.4475,12.5974 34.3544,12.512C34.2849,12.4495 34.2219,12.3807 34.1618,12.3096C34.1212,12.2627 34.0867,12.2108 34.043,12.1665C33.9219,12.0392 33.7865,11.923 33.6321,11.8348C33.5342,11.7796 33.4267,11.7355 33.312,11.7243C33.2393,11.7169 33.1644,11.7257 33.0947,11.7509C33.0634,11.7629 33.0382,11.7883 33.023,11.8174C32.6591,12.5324 32.295,13.2473 31.931,13.9622C31.9189,13.9865 31.9043,14.01 31.8977,14.0363C31.8127,13.5567 31.4263,13.1563 30.9466,13.0346C30.7501,12.9845 30.5371,12.9824 30.338,13.0411C30.118,13.1044 29.9203,13.2479 29.7965,13.4385C29.6945,13.5931 29.6426,13.7754 29.6388,13.9555C29.6334,14.1851 29.7026,14.4108 29.8234,14.6023C30.0134,14.9034 30.3313,15.1271 30.693,15.1918C30.8943,15.228 31.1093,15.2131 31.3037,15.1359C31.5227,15.0507 31.7078,14.882 31.8112,14.6748Z" fill="#ececec"/>
  <path d="M46.9799,19.5829L45.3335,19.1769C45.3282,19.1756 45.323,19.175 45.3177,19.1747L45.2621,19.1511C45.2241,19.135 45.1815,19.1515 45.1662,19.1876L44.4453,20.8859C44.3994,20.8269 44.3376,20.7781 44.2631,20.7464C44.0371,20.6505 43.7792,20.7489 43.6869,20.9663C43.5947,21.1836 43.7031,21.4375 43.929,21.5334C44.1549,21.6293 44.4129,21.531 44.5052,21.3136C44.5119,21.2977 44.5176,21.2816 44.5222,21.2655C44.5266,21.2603 44.5303,21.2544 44.5331,21.2477L45.1194,19.8665L46.6546,20.2309L46.2488,21.1869C46.2029,21.128 46.1411,21.079 46.0666,21.0474C45.8407,20.9515 45.5827,21.05 45.4904,21.2674C45.3982,21.4846 45.5066,21.7387 45.7325,21.8346C45.9584,21.9305 46.2164,21.8319 46.3087,21.6147C46.3154,21.5988 46.3211,21.5827 46.3257,21.5665C46.3302,21.5613 46.3338,21.5554 46.3367,21.5487L47.1161,19.7124C47.1298,19.6803 47.117,19.6432 47.0875,19.6243C47.0792,19.6129 47.0663,19.6042 47.0499,19.6001L47.0112,19.5907L47.0075,19.5891C46.9984,19.5853 46.989,19.5832 46.9799,19.5829Z" fill="#ffffff"/>
  <path d="M17.6444,16.4998L14.8257,17.9827C14.8165,17.9874 14.8085,17.9933 14.8008,17.9996L14.693,18.0346C14.6194,18.0585 14.5807,18.138 14.6049,18.2125L15.7452,21.7219C15.6062,21.6905 15.4579,21.695 15.3135,21.7419C14.8759,21.8841 14.6393,22.3634 14.7852,22.8126C14.9311,23.2617 15.4043,23.5104 15.842,23.3682C16.2796,23.226 16.5162,22.7467 16.3703,22.2975C16.3596,22.2646 16.3472,22.2329 16.3333,22.2025C16.3328,22.1889 16.3306,22.1752 16.3261,22.1614L15.3987,19.3073L18.0092,17.903L18.6511,19.8785C18.5122,19.8473 18.3638,19.8515 18.2194,19.8984C17.7817,20.0406 17.5452,20.5202 17.6912,20.9694C17.837,21.4183 18.3103,21.6672 18.7479,21.525C19.1856,21.3828 19.4221,20.9032 19.2763,20.4543C19.2656,20.4214 19.2531,20.3897 19.2392,20.359C19.2387,20.3454 19.2365,20.3318 19.232,20.318L17.999,16.5234C17.9775,16.457 17.9126,16.4168 17.8474,16.4257C17.8213,16.4189 17.7924,16.4221 17.7643,16.4368L17.6981,16.4718L17.6908,16.4742C17.6733,16.4799 17.6576,16.4888 17.6444,16.4998Z" fill="#ffffff"/>
  <path d="M29.0941,30.9982C28.9148,31.291 29.0206,31.5876 29.3919,31.768C29.8717,32.0008 30.3953,32.1308 30.9289,32.1495C31.5291,32.1361 32.1044,32.0303 32.6168,31.727C32.9153,31.5496 33.0001,31.2433 32.8351,30.9915C32.6693,30.7396 32.3257,30.6539 32.0204,30.8141C31.3288,31.1822 30.6416,31.1413 29.95,30.8283C29.5922,30.6643 29.2621,30.7292 29.0941,30.9982Z" fill="#ffffff"/>
  <path d="M27.0058,27.6172a1.0171,1.0182 0,1 0,2.0343 0a1.0171,1.0182 0,1 0,-2.0343 0z" fill="#ffffff"/>
  <path d="M32.8181,27.6172a1.0171,1.0182 0,1 0,2.0343 0a1.0171,1.0182 0,1 0,-2.0343 0z" fill="#ffffff"/>
</svg>
