<svg id="vector" xmlns="http://www.w3.org/2000/svg" width="24" height="24" viewBox="0 0 60 60"><path fill="#00000000" d="M14,44.0077C14,28.8697 15.4164,22.9664 20.7106,19.4992C26.0032,16.0336 32.0079,19.4992 32.4737,20.7252C29.9642,20.0203 25.7327,21.6524 24.5068,25.321C23.2808,28.988 25.307,32.7893 28.487,33.67C31.6655,34.5492 33.6964,32.89 35.3208,30.9925C36.7683,29.3051 39.2246,28.6369 40.4803,29.7565C40.6365,29.8958 40.7656,30.4023 40.8807,30.5865C39.4339,30.2236 37.571,31.5168 37.2109,33.67C36.8492,35.8216 38.6433,37.3195 41.3928,37.0221C44.1408,36.7232 45.6603,31.757 45.6603,31.757C46.14,31.3113 46.3799,31.1763 46.38,31.3522C46.3813,33.9887 46.2575,38.2071 46.0084,44.0077L14,44.0077ZM38.4559,16.9427C37.822,16.7233 36.99,15.4866 37.0063,15.4191C37.0215,15.3517 38.271,14.8345 38.9059,15.0539C39.4393,15.2377 39.7714,15.8138 39.6475,16.3335C39.5246,16.8533 38.9892,17.1278 38.4559,16.9427ZM40.4803,24.7846C39.5851,24.1209 38.9468,22.0915 39.011,22.0183C39.0753,21.9463 41.3754,22.0963 42.2706,22.76C43.0242,23.318 43.2339,24.2277 42.7411,24.7846C42.2483,25.3415 41.2339,25.3427 40.4803,24.7846Z" stroke="#fefefe" stroke-width="1.6" fill-rule="evenodd" id="path_0"/><path fill="#00000000" d="M14,44.0077C14,28.8697 15.4164,22.9664 20.7106,19.4992C26.0032,16.0336 32.0079,19.4992 32.4737,20.7252C29.9642,20.0203 25.7327,21.6524 24.5068,25.321C23.2808,28.988 25.307,32.7893 28.487,33.67C31.6655,34.5492 33.6964,32.89 35.3208,30.9925C36.7683,29.3051 39.2246,28.6369 40.4803,29.7565C40.6365,29.8958 40.7656,30.4023 40.8807,30.5865C39.4339,30.2236 37.571,31.5168 37.2109,33.67C36.8492,35.8216 38.6433,37.3195 41.3928,37.0221C44.1408,36.7232 45.6603,31.757 45.6603,31.757C46.14,31.3113 46.3799,31.1763 46.38,31.3522C46.3813,33.9887 46.2575,38.2071 46.0084,44.0077L14,44.0077ZM38.4559,16.9427C37.822,16.7233 36.99,15.4866 37.0063,15.4191C37.0215,15.3517 38.271,14.8345 38.9059,15.0539C39.4393,15.2377 39.7714,15.8138 39.6475,16.3335C39.5246,16.8533 38.9892,17.1278 38.4559,16.9427ZM40.4803,24.7846C39.5851,24.1209 38.9468,22.0915 39.011,22.0183C39.0753,21.9463 41.3754,22.0963 42.2706,22.76C43.0242,23.318 43.2339,24.2277 42.7411,24.7846C42.2483,25.3415 41.2339,25.3427 40.4803,24.7846Z" stroke="#ffffff" stroke-width="1.6" fill-rule="evenodd" id="path_1"/><path fill="none" d="M14,44.0077C14,28.8697 15.4164,22.9664 20.7106,19.4992C26.0032,16.0336 32.0079,19.4992 32.4737,20.7252C29.9642,20.0203 25.7327,21.6524 24.5068,25.321C23.2808,28.988 25.307,32.7893 28.487,33.67C31.6655,34.5492 33.6964,32.89 35.3208,30.9925C36.7683,29.3051 39.2246,28.6369 40.4803,29.7565C40.6365,29.8958 40.7656,30.4023 40.8807,30.5865C39.4339,30.2236 37.571,31.5168 37.2109,33.67C36.8492,35.8216 38.6433,37.3195 41.3928,37.0221C44.1408,36.7232 45.6603,31.757 45.6603,31.757C46.14,31.3113 46.3799,31.1763 46.38,31.3522C46.3813,33.9887 46.2575,38.2071 46.0084,44.0077L14,44.0077ZM38.4559,16.9427C37.822,16.7233 36.99,15.4866 37.0063,15.4191C37.0215,15.3517 38.271,14.8345 38.9059,15.0539C39.4393,15.2377 39.7714,15.8138 39.6475,16.3335C39.5246,16.8533 38.9892,17.1278 38.4559,16.9427ZM40.4803,24.7846C39.5851,24.1209 38.9468,22.0915 39.011,22.0183C39.0753,21.9463 41.3754,22.0963 42.2706,22.76C43.0242,23.318 43.2339,24.2277 42.7411,24.7846C42.2483,25.3415 41.2339,25.3427 40.4803,24.7846Z" stroke="#ffffff" stroke-width="1.6" fill-rule="evenodd" id="path_2"/></svg>