<?xml version="1.0" encoding="UTF-8" standalone="no"?>
<svg viewBox="0 0 60.0 60.0">
  <path d="M24.75,17.7491L24.75,36.3709C23.8207,35.677 22.5966,35.2509 21.25,35.2509C18.3511,35.2509 16,37.2091 16,39.625C16,42.0418 18.3511,44 21.25,44C23.7892,44 25.9076,42.4967 26.395,40.5L26.5,40.5L26.5,25.6057L42.25,23.84L42.25,33.7459C41.3208,33.0511 40.0966,32.625 38.75,32.625C35.8511,32.625 33.5,34.5841 33.5,37C33.5,39.4168 35.8511,41.375 38.75,41.375C41.6489,41.375 44,39.4168 44,37L44,16L24.75,17.7491ZM21.25,42.25C19.3171,42.25 17.75,41.0749 17.75,39.625C17.75,38.176 19.3171,37 21.25,37C23.1829,37 24.75,38.176 24.75,39.625C24.75,41.0749 23.1829,42.25 21.25,42.25ZM38.75,39.625C36.8171,39.625 35.25,38.4499 35.25,37C35.25,35.5501 36.8171,34.375 38.75,34.375C40.6829,34.375 42.25,35.5501 42.25,37C42.25,38.4499 40.6829,39.625 38.75,39.625ZM42.25,21.9063L26.5,23.6834L26.5,19.7188L42.25,17.9416L42.25,21.9063Z" fill="#ffffff"/>
</svg>
