<?xml version="1.0" encoding="UTF-8" standalone="no"?>
<svg viewBox="0 0 60.0 60.0">
  <path d="M32.17,25.68C32.17,26.46 32.81,27.1 33.6,27.09C34.4,27.09 35.05,26.44 35.06,25.66C35.06,24.87 34.42,24.24 33.62,24.24C32.83,24.25 32.18,24.89 32.17,25.68Z" fill="#ffffff"/>
  <path d="M24.94,25.67C24.94,26.46 25.58,27.1 26.38,27.09C27.18,27.09 27.83,26.44 27.84,25.65C27.84,24.86 27.2,24.22 26.4,24.23C25.6,24.24 24.95,24.88 24.94,25.67Z" fill="#ffffff"/>
  <path d="M42.68,30.12C42.48,29.99 42.22,29.96 42,30.06L41.43,30.3L40.83,14.7C40.82,14.35 40.56,14.06 40.21,14.01C39.87,13.96 39.54,14.16 39.43,14.5C38.89,16.13 37.92,16.78 36.43,17.36C36.08,17.5 35.69,17.49 35.37,17.33C32.11,15.81 27.89,15.81 24.63,17.33C24.31,17.49 23.92,17.49 23.57,17.36C22.08,16.78 21.11,16.12 20.57,14.5C20.46,14.16 20.13,13.96 19.79,14.01C19.44,14.06 19.18,14.35 19.17,14.7L18.59,30.31L18,30.06C17.78,29.96 17.52,29.99 17.32,30.12C17.12,30.26 17,30.48 17,30.73C17,41 20.54,46 27.83,46L32.17,46C39.46,46 43,41 43,30.73C43,30.48 42.88,30.26 42.68,30.12ZM18.46,31.83L22.06,33.35C22.06,33.35 22.06,33.35 22.06,33.35C23.94,34.14 25.25,35.63 25.59,37.34C25.99,39.41 26.53,42.19 26.89,44.17L26.96,44.52C21.4,44.14 18.68,40.07 18.46,31.83ZM31.69,43.9L31.57,44.55L28.43,44.55L28.31,43.9C27.94,41.91 27.41,39.13 27,37.07C26.58,34.87 24.94,32.98 22.62,32.01L20.02,30.91L20.52,17.18C21.26,17.93 22.15,18.37 23.05,18.71C23.76,18.99 24.56,18.97 25.24,18.65C28.13,17.3 31.87,17.3 34.76,18.65C35.44,18.97 36.24,18.99 36.96,18.71C37.85,18.36 38.74,17.93 39.48,17.18L40.01,30.9L40.01,30.9L37.38,32.01C35.06,32.98 33.42,34.87 33,37.06C32.59,39.13 32.06,41.91 31.69,43.9ZM33.04,44.52L33.11,44.17C33.48,42.19 34.01,39.41 34.42,37.34C34.75,35.63 36.06,34.14 37.94,33.35C37.94,33.35 37.94,33.35 37.94,33.35L41.54,31.83C41.32,40.07 38.6,44.14 33.04,44.52Z" fill="#ffffff"/>
  <path d="M38.51,20.09C38.26,19.78 37.8,19.73 37.49,19.98C36.46,20.81 35.08,21.27 33.61,21.27C32.1,21.27 30.78,22.05 30,23.23C29.22,22.05 27.9,21.27 26.39,21.27C24.92,21.27 23.54,20.81 22.51,19.98C22.2,19.73 21.74,19.78 21.49,20.09C21.24,20.4 21.29,20.86 21.6,21.11C22.21,21.6 22.9,21.98 23.66,22.25C22.68,23.05 22.06,24.27 22.06,25.64C22.06,28.04 24,30 26.39,30C26.75,30 27.09,29.95 27.42,29.87C27.42,29.87 27.41,29.87 27.41,29.87L29.49,31.97C29.63,32.11 29.82,32.18 30,32.18C30.18,32.18 30.37,32.11 30.51,31.97L32.59,29.87C32.59,29.87 32.58,29.87 32.57,29.87C32.91,29.95 33.25,30 33.61,30C36,30 37.94,28.04 37.94,25.64C37.94,24.27 37.32,23.05 36.34,22.25C37.1,21.98 37.79,21.6 38.4,21.11C38.71,20.86 38.76,20.4 38.51,20.09ZM26.39,28.55C24.8,28.55 23.5,27.24 23.5,25.64C23.5,24.03 24.8,22.73 26.39,22.73C27.98,22.73 29.28,24.03 29.28,25.64C29.28,27.24 27.98,28.55 26.39,28.55ZM30,30.43L28.82,29.24C29.29,28.92 29.69,28.52 30,28.04C30.31,28.52 30.71,28.92 31.18,29.24L30,30.43ZM36.5,25.64C36.5,27.24 35.2,28.55 33.61,28.55C32.02,28.55 30.72,27.24 30.72,25.64C30.72,24.03 32.02,22.73 33.61,22.73C35.2,22.73 36.5,24.03 36.5,25.64Z" fill="#ffffff"/>
</svg>
