<?xml version="1.0" encoding="UTF-8" standalone="no"?>
<svg viewBox="0 0 60.0 60.0">
  <path d="M19.9,13.9L40.7667,13.9A3,3 0,0 1,43.7667 16.9L43.7667,42.4333A3,3 0,0 1,40.7667 45.4333L19.9,45.4333A3,3 0,0 1,16.9 42.4333L16.9,16.9A3,3 0,0 1,19.9 13.9z" fill="none"/>
  <path d="M17,21.3333h26.6667v1.8h-26.6667z" fill="#ffffff"/>
  <path d="M21.6667,16L21.6667,16A0.6667,0.6667 0,0 1,22.3333 16.6667L22.3333,19.6667A0.6667,0.6667 0,0 1,21.6667 20.3333L21.6667,20.3333A0.6667,0.6667 0,0 1,21 19.6667L21,16.6667A0.6667,0.6667 0,0 1,21.6667 16z" fill="#ffffff"/>
  <path d="M25.6667,16L25.6667,16A0.6667,0.6667 0,0 1,26.3333 16.6667L26.3333,19.6667A0.6667,0.6667 0,0 1,25.6667 20.3333L25.6667,20.3333A0.6667,0.6667 0,0 1,25 19.6667L25,16.6667A0.6667,0.6667 0,0 1,25.6667 16z" fill="#ffffff"/>
  <path d="M25.9823,37.8851C25.9823,37.0328 27.2415,36.5669 27.2415,35.3279C27.2415,34.0889 25.9823,33.5033 25.9823,32.7707C25.9823,32.038 27.2415,30.9062 27.2415,30.64C27.2415,30.3738 27.0046,30.0951 26.4011,30.64C25.8815,31.1105 25.142,31.9053 25.142,32.7708C25.142,33.6362 26.4011,34.3826 26.4011,35.328C26.4011,36.2735 25.142,36.8599 25.142,37.8853" fill="#ffffff"/>
  <path d="M30.4268,37.8851C30.4268,37.0328 31.6859,36.5669 31.6859,35.3279C31.6859,34.0889 30.4268,33.5033 30.4268,32.7707C30.4268,32.038 31.6859,30.9062 31.6859,30.64C31.6859,30.3738 31.4491,30.0951 30.8455,30.64C30.3259,31.1105 29.5864,31.9053 29.5864,32.7708C29.5864,33.6362 30.8455,34.3826 30.8455,35.328C30.8455,36.2735 29.5864,36.8599 29.5864,37.8853" fill="#ffffff"/>
  <path d="M34.8712,37.8851C34.8712,37.0328 36.1303,36.5669 36.1303,35.3279C36.1303,34.0889 34.8712,33.5033 34.8712,32.7707C34.8712,32.038 36.1303,30.9062 36.1303,30.64C36.1303,30.3738 35.8935,30.0951 35.29,30.64C34.7704,31.1105 34.0309,31.9053 34.0309,32.7708C34.0309,33.6362 35.29,34.3826 35.29,35.328C35.29,36.2735 34.0309,36.8599 34.0309,37.8853" fill="#ffffff"/>
</svg>
