<?xml version="1.0" encoding="UTF-8" standalone="no"?>
<svg viewBox="0 0 60.0 60.0">
  <path d="M46.2264,19.8141C45.3688,18.09 42.224,18.1494 37.6498,19.2988C35.6486,17.5747 33.3615,17 30.7885,17C23.9272,17 18.2095,22.4596 18.2095,29.3559L18.4464,29.3559C17.3659,30.4419 16.4475,31.222 15.7831,32.0971C14.5139,33.7688 13.7299,35.6068 14.0862,36.6749C14.4842,37.8683 16.2083,39.2437 18.2095,39.2437C19.0671,39.2437 20.7063,39.1687 21.8498,38.8814L22.4121,38.8814C24.6992,40.8928 27.845,42.7379 31.1816,42.4267C37.996,41.7909 44.3144,36.1114 43.71,29.3559C43.1055,22.6004 43.147,28.247 42.8611,27.6723C46.0059,24.5114 47.0841,21.8849 46.2264,20.1608L46.2264,19.8141ZM30.3853,18.4167C35.7051,18.4167 39.9423,22.0301 40.5023,27.2118C39.6623,27.7875 38.8223,28.6511 37.9824,29.2269C37.7024,28.939 37.1424,28.6511 36.5824,28.6511C35.4625,28.6511 34.6225,29.5147 34.6225,30.6662C34.6225,30.9541 34.6225,31.242 34.9025,31.5298C34.0625,32.1056 33.2505,32.1067 32.4105,32.6824C29.0506,34.4096 26.1504,36.0642 23.3505,36.9278C21.1106,34.9127 20.2683,32.3934 20.2683,29.2269C20.2683,27.0482 20.3211,26.2899 21.3003,24.6069C23.0382,21.62 26.6245,18.4167 30.3853,18.4167ZM15.7831,36.0817C15.2274,34.9617 15.9455,33.5195 18.4464,30.9995C18.7242,33.5195 19.6331,35.7083 21.3003,37.3883C18.2437,37.9482 16.6167,37.2016 15.7831,36.0817ZM31.1816,39.523C28.5687,39.523 26.5523,39.605 24.8104,38.1416C27.8242,37.3883 31.0317,35.8104 34.2252,33.7617C35.0961,33.1764 35.825,32.6824 36.696,32.0971C36.9863,32.3897 37.5669,32.6824 38.1475,32.6824C39.3088,32.6824 40.1797,31.8044 40.1797,30.6337L40.1797,29.7557C41.0507,29.1703 41.6313,28.585 42.5022,27.9996L42.0459,28.6511C41.8186,31.0579 41.448,33.4128 40.1797,35.1854C38.2092,37.9396 34.7141,39.523 31.1816,39.523ZM42.5022,25.4279C41.679,22.703 40.4231,21.0948 38.5024,19.4598C42.0695,18.6423 43.9766,18.7983 44.7998,20.1608C45.3486,21.2508 44.6974,22.9755 42.5022,25.4279Z" fill="#ffffff"/>
</svg>
