<?xml version="1.0" encoding="UTF-8" standalone="no"?>
<svg viewBox="0 0 70.3 70.3">
  <g transform="translate(15 15) scale(0.6 0.6)">
    <path d="M47.5,68H11a2,2 0,0 1,-1.82 -2.82L27.2,25l-2.53,-5.71a2,2 0,1 1,3.66 -1.62l1.07,2.42 1.09,-2.43a2,2 0,1 1,3.65 1.64L31.58,25 49.33,65.19a2,2 0,0 1,-0.15 1.9A2,2 0,0 1,47.5 68ZM14.09,64H44.43L29.37,29.94Z" fill="#fff"/>
    <path d="M29.39,53.5a2,2 0,0 1,-2 -2V24a2,2 0,1 1,4 0V51.5A2,2 0,0 1,29.39 53.5Z" fill="#fff"/>
    <path d="M22.5,68a1.93,1.93 0,0 1,-0.81 -0.17,2 2,0 0,1 -1,-2.64l8.7,-19.64 8.61,19a2,2 0,0 1,-3.64 1.65L29.41,55.34 24.33,66.81A2,2 0,0 1,22.5 68Z" fill="#fff"/>
    <path d="M9.15,24.68a1.94,1.94 0,0 1,-0.93 -0.23,2 2,0 0,1 -0.84,-2.69L11.94,13a2,2 0,0 1,3.55 1.85l-4.57,8.75A2,2 0,0 1,9.15 24.68Z" fill="#fff"/>
    <path d="M15.15,33.68a1.94,1.94 0,0 1,-0.93 -0.23,2 2,0 0,1 -0.84,-2.69L17.94,22a2,2 0,0 1,3.55 1.85l-4.57,8.75A2,2 0,0 1,15.15 33.68Z" fill="#fff"/>
    <path d="M22.15,15.68a1.94,1.94 0,0 1,-0.93 -0.23,2 2,0 0,1 -0.84,-2.69L24.94,4a2,2 0,1 1,3.55 1.85l-4.57,8.75A2,2 0,0 1,22.15 15.68Z" fill="#fff"/>
    <path d="M36.15,15.68a1.94,1.94 0,0 1,-0.93 -0.23,2 2,0 0,1 -0.84,-2.69L38.94,4a2,2 0,0 1,3.55 1.85l-4.57,8.75A2,2 0,0 1,36.15 15.68Z" fill="#fff"/>
    <path d="M52.15,15.68a1.94,1.94 0,0 1,-0.93 -0.23,2 2,0 0,1 -0.84,-2.69L54.94,4a2,2 0,0 1,3.55 1.85l-4.57,8.75A2,2 0,0 1,52.15 15.68Z" fill="#fff"/>
    <path d="M41.15,24.68a1.94,1.94 0,0 1,-0.93 -0.23,2 2,0 0,1 -0.84,-2.69L43.94,13a2,2 0,0 1,3.55 1.85l-4.57,8.75A2,2 0,0 1,41.15 24.68Z" fill="#fff"/>
    <path d="M46.15,37.68a1.94,1.94 0,0 1,-0.93 -0.23,2 2,0 0,1 -0.84,-2.69L48.94,26a2,2 0,0 1,3.55 1.85l-4.57,8.75A2,2 0,0 1,46.15 37.68Z" fill="#fff"/>
    <path d="M57.15,26.68a1.94,1.94 0,0 1,-0.93 -0.23,2 2,0 0,1 -0.84,-2.69L59.94,15a2,2 0,0 1,3.55 1.85l-4.57,8.75A2,2 0,0 1,57.15 26.68Z" fill="#fff"/>
  </g>
</svg>
