<?xml version="1.0" encoding="UTF-8" standalone="no"?>
<svg viewBox="0 0 60.0 60.0">
  <path d="M37.4,23.7825C37.4,20.0425 34.305,17 30.4999,17C26.695,17 23.6,20.0424 23.6,23.7825C23.6,25.9463 24.64,27.8717 26.2493,29.1146C22.0086,30.7805 19.1951,34.853 19.1951,39.6087C19.1951,42.7791 19.13,43.5327 19,41.8695C19,42.4944 19.5883,42.8566 20.224,42.8566L40.8665,42.8566C41.5022,42.8566 42,42.4944 42,41.8695L41.866,39.7457C41.8661,34.9889 38.9924,30.7805 34.7507,29.1146C36.3611,27.8716 37.4,25.9463 37.4,23.7825ZM35.5684,23.7856C35.5684,26.2795 33.1145,28.7764 30.5776,28.7764C28.0405,28.7764 25.5868,26.2795 25.5868,23.7856C25.5868,21.2919 27.9354,18.7397 30.4725,18.7397C33.0094,18.7397 35.5684,21.2919 35.5684,23.7856ZM39.9154,41.1965L21.1261,41.1965L21.1261,39.6087C21.1261,34.6222 25.426,30.2446 30.5,30.2446C35.5727,30.2446 39.9154,34.6222 39.9154,39.6087L39.9154,40.8156L39.9154,41.1965Z" fill="#ffffff"/>
  <path d="M22.1566,29.0093C22.1872,28.9417 22.1872,28.8696 22.2024,28.7998C22.2133,28.7572 22.2254,28.7168 22.2309,28.672C22.2395,28.5836 22.2342,28.4996 22.2221,28.4133C22.2177,28.3674 22.2286,28.3237 22.2177,28.2779C22.2112,28.2516 22.1927,28.2331 22.185,28.2068C22.1676,28.1566 22.1437,28.1119 22.1197,28.065C22.0737,27.9689 22.0236,27.8815 21.9549,27.804C21.945,27.7932 21.9332,27.7854 21.9223,27.7745C21.8209,27.6686 21.7042,27.5879 21.5712,27.53C20.3631,26.9906 19.5824,25.7895 19.5824,24.4662C19.5824,22.9092 20.6356,21.5683 22.1445,21.2049C22.7442,21.0596 23.1127,20.4558 22.9689,19.8552C22.8228,19.2547 22.2176,18.8901 21.6211,19.0298C19.1059,19.6369 17.3493,21.873 17.3493,24.4662C17.3493,25.8813 17.8869,27.2079 18.8005,28.2167C15.895,29.7246 14,32.7402 14,36.1524L14,37.8818C14,38.4999 14.4994,39 15.1164,39C15.7335,39 16.233,38.4999 16.233,37.8818L16.233,36.1524C16.233,33.0601 18.3089,30.4069 21.2877,29.6557C21.6583,29.6033 21.9953,29.3773 22.1566,29.0093Z" fill="#ffffff"/>
  <path d="M41.1388,28.2018C42.064,27.1916 42.6081,25.8631 42.6081,24.4461C42.6081,21.9172 40.888,19.6933 38.4249,19.0384C37.8231,18.8787 37.2026,19.2319 37.0391,19.8288C36.8768,20.427 37.2346,21.0403 37.8375,21.2011C39.3147,21.5935 40.347,22.9286 40.347,24.4462C40.347,25.7713 39.5576,26.9719 38.3353,27.5132C38.1986,27.5722 38.0781,27.6542 37.9744,27.7613C37.9655,27.7712 37.9545,27.7778 37.9456,27.7876C37.8749,27.8652 37.8242,27.9549 37.7767,28.0522C37.7535,28.0991 37.7282,28.1429 37.7116,28.1921C37.7039,28.2173 37.685,28.237 37.6785,28.2632C37.6675,28.3091 37.6785,28.3528 37.674,28.3988C37.6619,28.4852 37.6565,28.5693 37.6652,28.658C37.6708,28.7027 37.6829,28.7432 37.6939,28.7858C37.7093,28.8557 37.7093,28.9279 37.7403,28.9958C37.9037,29.3642 38.2449,29.5906 38.6202,29.6429C41.6366,30.3953 43.7388,33.052 43.7388,36.1485L43.7388,37.8805C43.7388,38.4992 44.2445,39 44.8695,39C45.4943,39 46,38.4992 46,37.8805L46,36.1485C46,32.7316 44.0812,29.7118 41.1388,28.2018Z" fill="#ffffff"/>
</svg>
