<svg id="vector" xmlns="http://www.w3.org/2000/svg" width="24" height="24" viewBox="0 0 60 60"><path fill="none" d="M29.5156,22.247C31.8624,21.8696 36.0746,20.6869 36.0746,18.9413C36.0746,17.1957 34.2213,16 30.0825,16C25.9437,16 24.0381,17.5355 22.9246,19.8913C21.8111,22.247 27.1689,22.6245 29.5156,22.247Z" stroke="#ffffff" stroke-width="1.8" fill-rule="nonzero" id="path_0"/><path fill="none" d="M29.5815,32.7429C31.0344,32.7429 40.1696,32.5898 40.1696,29.6361C40.1696,26.6825 34.898,22.7742 29.5815,22.7742C24.2649,22.7742 19.3871,24.8049 19.3871,27.7586C19.3871,30.7122 28.1285,32.7429 29.5815,32.7429Z" stroke="#ffffff" stroke-width="1.8" fill-rule="nonzero" id="path_1"/><path fill="none" d="M29.7111,42.9662C35.0277,42.9662 43.4223,41.7296 43.4223,38.0865C43.4223,34.4433 34.2946,32.9355 28.9781,32.9355C23.6615,32.9355 16.0767,34.9972 16.0767,37.9509C16.0767,40.9045 24.3946,42.9662 29.7111,42.9662Z" stroke="#ffffff" stroke-width="1.8" fill-rule="nonzero" id="path_2"/></svg>