<?xml version="1.0" encoding="UTF-8" standalone="no"?>
<svg viewBox="0 0 60.0 60.0">
  <path d="M29.92,13C29.53,13.05 29.24,13.39 29.25,13.79L29.25,17.93L25.99,15.12C25.84,14.98 25.64,14.91 25.43,14.93C25.13,14.96 24.87,15.18 24.78,15.48C24.7,15.79 24.8,16.11 25.04,16.31L29.25,19.94L29.25,28.68L21.95,24.39L21.01,18.71C20.95,18.31 20.59,18.02 20.2,18.06C19.99,18.08 19.8,18.19 19.67,18.37C19.54,18.54 19.5,18.76 19.54,18.98L20.27,23.4L16.55,21.22C16.42,21.14 16.27,21.1 16.11,21.11C15.78,21.13 15.5,21.38 15.43,21.71C15.36,22.05 15.51,22.39 15.8,22.56L19.4,24.67L15.53,26.14C15.26,26.23 15.07,26.45 15.01,26.73C14.96,27.02 15.06,27.3 15.28,27.48C15.5,27.66 15.79,27.7 16.04,27.59L21.1,25.67L28.48,30L21.1,34.33L16.04,32.4C15.93,32.35 15.8,32.34 15.67,32.36C15.33,32.4 15.06,32.69 15.03,33.05C14.99,33.4 15.2,33.74 15.53,33.85L19.4,35.32L15.8,37.43C15.44,37.65 15.32,38.12 15.53,38.49C15.73,38.86 16.19,38.98 16.55,38.77L20.28,36.58L19.54,41.02C19.48,41.29 19.57,41.58 19.78,41.77C19.99,41.95 20.28,42 20.53,41.9C20.79,41.8 20.97,41.56 21.01,41.28L21.95,35.6L29.25,31.32L29.25,40.05L25.04,43.68C24.83,43.86 24.73,44.14 24.78,44.41C24.82,44.68 25,44.91 25.25,45.01C25.51,45.1 25.79,45.05 25.99,44.88L29.25,42.07L29.25,46.22C29.25,46.5 29.39,46.75 29.62,46.89C29.86,47.04 30.14,47.04 30.38,46.89C30.61,46.75 30.75,46.5 30.75,46.22L30.75,42.07L34.01,44.88C34.21,45.05 34.49,45.1 34.75,45.01C35,44.91 35.18,44.68 35.22,44.41C35.27,44.14 35.17,43.86 34.96,43.68L30.75,40.05L30.75,31.32L38.05,35.6L38.99,41.28C39.03,41.56 39.21,41.8 39.47,41.9C39.72,42 40.01,41.95 40.22,41.77C40.43,41.58 40.52,41.29 40.46,41.02L39.72,36.58L43.45,38.77C43.81,38.98 44.27,38.86 44.47,38.49C44.68,38.12 44.56,37.65 44.2,37.43L40.6,35.32L44.47,33.85C44.82,33.72 45.03,33.34 44.95,32.96C44.87,32.58 44.53,32.32 44.15,32.36C44.09,32.36 44.02,32.38 43.96,32.4L38.9,34.33L31.52,30L38.9,25.67L43.96,27.59C44.21,27.7 44.5,27.66 44.72,27.48C44.94,27.3 45.04,27.02 44.99,26.73C44.93,26.45 44.74,26.23 44.47,26.14L40.6,24.67L44.2,22.56C44.51,22.39 44.66,22.01 44.56,21.67C44.46,21.32 44.14,21.09 43.79,21.11C43.67,21.12 43.56,21.16 43.45,21.22L39.73,23.4L40.46,18.98C40.51,18.75 40.45,18.51 40.3,18.33C40.15,18.15 39.93,18.05 39.71,18.06C39.35,18.07 39.05,18.35 38.99,18.71L38.05,24.39L30.75,28.68L30.75,19.94L34.96,16.31C35.17,16.13 35.27,15.86 35.22,15.58C35.18,15.31 35,15.08 34.75,14.99C34.49,14.89 34.21,14.94 34.01,15.12L30.75,17.93L30.75,13.79C30.75,13.57 30.66,13.35 30.5,13.2C30.35,13.05 30.13,12.98 29.92,13Z" fill="#ffffff"/>
</svg>
