<?xml version="1.0" encoding="UTF-8" standalone="no"?>
<svg viewBox="0 0 60.0 60.0">
  <path d="M30.2677,28.1871L30.2677,28.1871C29.7296,28.1871 29.2934,27.7509 29.2934,27.2128L29.2934,19.6336C29.2934,19.0955 29.7296,18.6593 30.2677,18.6593L30.2677,18.6593C30.8058,18.6593 31.242,19.0955 31.242,19.6336L31.242,27.2128C31.242,27.7509 30.8058,28.1871 30.2677,28.1871ZM46.5614,27.1584L46.5614,27.1584C46.0233,27.1584 45.5872,26.7222 45.5872,26.1841L45.5872,20.4631C45.5872,19.9251 46.0233,19.4889 46.5614,19.4889L46.5614,19.4889C47.0994,19.4889 47.5356,19.9251 47.5356,20.4631L47.5356,26.1841C47.5356,26.7222 47.0994,27.1584 46.5614,27.1584ZM35.699,27.08L35.699,27.08C35.1609,27.08 34.7248,26.6438 34.7248,26.1058L34.7248,19.6335C34.7248,19.0954 35.1609,18.6593 35.699,18.6593L35.699,18.6593C36.237,18.6593 36.6732,19.0954 36.6732,19.6335L36.6732,26.1058C36.6732,26.6438 36.237,27.08 35.699,27.08ZM41.1302,29.4444C41.6682,29.4444 42.1044,29.0083 42.1044,28.4702L42.1044,17.9742C42.1044,17.4362 41.6682,17 41.1302,17C40.5921,17 40.156,17.4362 40.156,17.9742L40.156,28.4702C40.156,29.0083 40.5921,29.4444 41.1302,29.4444ZM24.8366,26.4615C25.3747,26.4615 25.8108,26.0253 25.8108,25.4872L25.8108,21.2927C25.8108,20.7547 25.3747,20.3185 24.8366,20.3185C24.2986,20.3185 23.8624,20.7547 23.8624,21.2927L23.8624,25.4872C23.8624,26.0253 24.2986,26.4615 24.8366,26.4615ZM19.4054,28.3493C19.9435,28.3493 20.3796,27.9132 20.3796,27.3751L20.3796,19.6335C20.3796,19.0954 19.9435,18.6593 19.4054,18.6593C18.8674,18.6593 18.4312,19.0954 18.4312,19.6335L18.4312,27.3751C18.4312,27.9132 18.8674,28.3493 19.4054,28.3493ZM13.9742,27.5197C14.5123,27.5197 14.9485,27.0835 14.9485,26.5455L14.9485,20.4631C14.9485,19.9251 14.5123,19.4889 13.9742,19.4889C13.4362,19.4889 13,19.9251 13,20.4631L13,26.5455C13,27.0835 13.4362,27.5197 13.9742,27.5197Z" fill="#ffffff"/>
  <path d="M30.2677,32.4796L30.2677,32.4796C29.7296,32.4796 29.2934,32.9158 29.2934,33.4539L29.2934,41.0331C29.2934,41.5712 29.7296,42.0074 30.2677,42.0074L30.2677,42.0074C30.8058,42.0074 31.242,41.5712 31.242,41.0331L31.242,33.4539C31.242,32.9158 30.8058,32.4796 30.2677,32.4796ZM46.5614,33.5083L46.5614,33.5083C46.0233,33.5083 45.5872,33.9445 45.5872,34.4825L45.5872,40.2036C45.5872,40.7416 46.0233,41.1778 46.5614,41.1778L46.5614,41.1778C47.0994,41.1778 47.5356,40.7416 47.5356,40.2036L47.5356,34.4825C47.5356,33.9445 47.0994,33.5083 46.5614,33.5083ZM35.699,33.5867L35.699,33.5867C35.1609,33.5867 34.7248,34.0228 34.7248,34.5609L34.7248,41.0332C34.7248,41.5712 35.1609,42.0074 35.699,42.0074L35.699,42.0074C36.237,42.0074 36.6732,41.5712 36.6732,41.0332L36.6732,34.5609C36.6732,34.0228 36.237,33.5867 35.699,33.5867ZM41.1302,31.2222C41.6682,31.2222 42.1044,31.6584 42.1044,32.1964L42.1044,42.6924C42.1044,43.2305 41.6682,43.6667 41.1302,43.6667C40.5921,43.6667 40.156,43.2305 40.156,42.6924L40.156,32.1964C40.156,31.6584 40.5921,31.2222 41.1302,31.2222ZM24.8366,34.2052C25.3747,34.2052 25.8108,34.6414 25.8108,35.1794L25.8108,39.3739C25.8108,39.912 25.3747,40.3481 24.8366,40.3481C24.2986,40.3481 23.8624,39.912 23.8624,39.3739L23.8624,35.1794C23.8624,34.6414 24.2986,34.2052 24.8366,34.2052ZM19.4054,32.3173C19.9435,32.3173 20.3796,32.7535 20.3796,33.2916L20.3796,41.0332C20.3796,41.5712 19.9435,42.0074 19.4054,42.0074C18.8674,42.0074 18.4312,41.5712 18.4312,41.0332L18.4312,33.2916C18.4312,32.7535 18.8674,32.3173 19.4054,32.3173ZM13.9742,33.147C14.5123,33.147 14.9485,33.5831 14.9485,34.1212L14.9485,40.2036C14.9485,40.7416 14.5123,41.1778 13.9742,41.1778C13.4362,41.1778 13,40.7416 13,40.2036L13,34.1212C13,33.5831 13.4362,33.147 13.9742,33.147Z" fill="#ffffff"/>
</svg>
