<?xml version="1.0" encoding="UTF-8" standalone="no"?>
<svg viewBox="0 0 60.0 60.0">
  <path d="M33.25,20.32C33.63,20.32 33.94,20.01 33.94,19.63C33.94,19.25 33.63,18.94 33.25,18.94C32.87,18.94 32.56,19.25 32.56,19.63C32.56,20.01 32.87,20.32 33.25,20.32Z" fill="#ffffff"/>
  <path d="M46.31,40.41L34.62,40.41L34.62,38.66C35.76,37.94 36.7,37.15 37.44,36.32C38.76,34.82 39.44,33.16 39.44,31.39C39.44,27.99 37.77,24.96 36.98,23.72C38.96,23.6 40.38,22.55 40.99,22L41.97,22.33C42.04,22.36 42.11,22.37 42.19,22.37C42.33,22.37 42.47,22.33 42.59,22.24C42.77,22.11 42.87,21.9 42.87,21.68C42.87,19.85 42.32,18.37 41.24,17.3C39.76,15.82 37.72,15.56 36.97,15.51C35.99,14.6 34.68,14.05 33.25,14.05C30.22,14.05 27.75,16.54 27.75,19.59L27.75,25.51C27.41,25.83 26.89,26.48 26.32,27.74C25.83,28.29 25.36,28.92 24.91,29.63C23.79,31.45 22.99,34.23 22.55,37.91C22.44,38.82 22.37,39.67 22.32,40.41L14.69,40.41C14.31,40.41 14,40.72 14,41.1C14,41.48 14.31,41.79 14.69,41.79L22.25,41.79C22.22,42.43 22.22,42.82 22.22,42.86C22.22,43.1 22.34,43.31 22.52,43.43C22.35,44.49 22.26,45.14 22.26,45.16C22.23,45.36 22.29,45.56 22.42,45.72C22.55,45.87 22.74,45.95 22.94,45.95L24.31,45.95C24.54,45.95 24.76,45.84 24.89,45.65L26.68,42.93C27.38,42.7 28.08,42.41 28.78,42.04C28.93,41.96 29.09,41.88 29.24,41.79L46.31,41.79C46.69,41.79 47,41.48 47,41.1C47,40.72 46.69,40.41 46.31,40.41ZM38.16,22.09C38.31,21.8 38.43,21.49 38.52,21.17L39.41,21.47C39.08,21.69 38.66,21.92 38.16,22.09ZM41.43,20.69L41.04,20.56C41.04,20.56 41.03,20.56 41.03,20.56L38.74,19.79C38.75,19.72 38.75,19.66 38.75,19.59C38.75,18.7 38.54,17.86 38.17,17.12C38.85,17.31 39.65,17.65 40.28,18.29C40.9,18.9 41.28,19.71 41.43,20.69ZM33.25,15.43C35.52,15.43 37.37,17.3 37.37,19.59C37.37,21.89 35.52,23.76 33.25,23.76C30.98,23.76 29.13,21.89 29.13,19.59C29.13,17.3 30.98,15.43 33.25,15.43ZM33.25,25.14C34.18,25.14 35.06,24.91 35.83,24.49C36.54,25.61 38.06,28.38 38.06,31.39C38.06,33.84 36.42,35.74 34.39,37.15C36.11,34.76 36.96,32.13 36.68,29.92C36.52,28.69 35.9,27.53 34.92,26.65C33.91,25.74 32.62,25.23 31.3,25.23C30.56,25.23 29.83,25.38 29.13,25.68L29.13,23.26C30.13,24.42 31.61,25.14 33.25,25.14ZM26.08,30.37C26.89,29.06 27.8,28.07 28.77,27.43C29.59,26.89 30.44,26.62 31.3,26.62C33.51,26.62 35.1,28.42 35.31,30.09C35.59,32.29 34.51,35.03 32.42,37.42C30.01,40.19 26.76,41.91 23.61,42.14C23.68,40 24.05,33.64 26.08,30.37ZM23.95,44.57L23.74,44.57C23.78,44.28 23.84,43.92 23.9,43.51C24.17,43.49 24.44,43.45 24.71,43.41L23.95,44.57ZM31.31,40.39C31.92,40.13 32.57,39.83 33.23,39.48C33.23,39.47 33.24,39.47 33.25,39.47L33.25,40.41L31.29,40.41C31.3,40.4 31.3,40.4 31.31,40.39Z" fill="#ffffff"/>
</svg>
