<?xml version="1.0" encoding="UTF-8" standalone="no"?>
<svg viewBox="0 0 60.0 60.0">
  <path d="M30.01,14C21.18,14 14,21.18 14,30.01C14,38.83 21.18,46 30.01,46C38.84,46 46,38.83 46,30.01C46,21.18 38.84,14 30.01,14ZM30.01,15.43C38.07,15.43 44.58,21.95 44.58,30.01C44.58,38.06 38.07,44.57 30.01,44.57C21.95,44.57 15.42,38.06 15.42,30.01C15.42,21.95 21.95,15.43 30.01,15.43ZM30,17.57C24.75,17.57 20.56,20.62 18.33,25.44C18.22,25.69 18.26,26 18.44,26.21C18.62,26.41 18.93,26.5 19.19,26.42C27.27,23.96 33.09,23.96 40.81,26.42C41.06,26.5 41.36,26.42 41.54,26.23C41.73,26.03 41.78,25.73 41.69,25.48C39.81,20.6 35.25,17.57 30,17.57ZM30,18.99C34.19,18.99 37.79,21.1 39.71,24.63C33.01,22.73 27.34,22.72 20.39,24.61C22.51,21.06 25.83,18.99 30,18.99L30,18.99ZM30,27.16C28.44,27.16 27.16,28.44 27.16,30.01C27.16,31.57 28.44,32.85 30,32.85C31.56,32.85 32.86,31.57 32.86,30.01C32.86,28.44 31.56,27.16 30,27.16ZM17.85,30.15C17.65,30.3 17.53,30.56 17.57,30.82C17.92,33.32 18.35,35.34 20.9,38.61C22.91,40.63 24.86,41.53 26.93,42.05C27.39,42.19 27.92,41.75 27.86,41.28C27.51,38.89 27.01,36.37 25.97,34.58C24.35,32.16 21.04,30.76 18.47,30.03C18.21,29.96 18.05,30.02 17.85,30.15L17.85,30.15ZM41.53,30.03C38.96,30.76 35.65,32.16 34.03,34.58C32.97,36.45 32.32,38.98 32.14,41.28C32.08,41.75 32.61,42.19 33.07,42.05C35.42,41.19 37.14,40.51 39.1,38.61C41.65,35.34 42.07,33.32 42.43,30.82C42.47,30.6 42.37,30.38 42.22,30.22C41.97,30.02 41.8,30 41.53,30.03ZM19.17,31.77C21.33,32.54 23.71,33.78 24.77,35.35C25.56,36.67 25.93,38.34 26.23,40.24C24.45,39.64 23.41,39.05 22.02,37.71C20.02,35.13 19.49,33.62 19.17,31.77L19.17,31.77ZM40.83,31.77C40.51,33.62 39.98,35.13 37.98,37.71C36.54,39.08 35.12,39.72 33.77,40.24C34.07,38.34 34.44,36.67 35.23,35.35C36.29,33.78 38.67,32.54 40.83,31.77L40.83,31.77Z" fill="#ffffff"/>
</svg>
