<?xml version="1.0" encoding="UTF-8" standalone="no"?>
<svg viewBox="0 0 60.0 60.0">
  <path d="M33.87,18.78L27.13,18.78C25.26,18.78 23.75,20.28 23.75,22.14L23.75,29.21C23.75,29.65 24.11,30 24.55,30L36.46,30C36.89,30 37.25,29.65 37.25,29.21L37.25,22.14C37.25,20.28 35.74,18.78 33.87,18.78ZM36,28.4L25,28.4L25,21.73C25,21 25.62,20.4 26.38,20.4C26.39,20.4 26.4,20.4 26.41,20.4L34.59,20.4C34.6,20.4 34.61,20.4 34.62,20.4C35.38,20.4 36,21 36,21.73L36,28.4L36,28.4Z" fill="#ffffff"/>
  <path d="M25.67,34.49L26.33,34.49C26.77,34.49 27.13,34.14 27.13,33.7L27.13,33.04C27.13,32.6 26.77,32.25 26.33,32.25L25.67,32.25C25.23,32.25 24.88,32.6 24.88,33.04L24.88,33.7C24.88,34.14 25.23,34.49 25.67,34.49Z" fill="#ffffff"/>
  <path d="M34.65,34.49L35.31,34.49C35.75,34.49 36.1,34.14 36.1,33.7L36.1,33.04C36.1,32.6 35.75,32.25 35.31,32.25L34.65,32.25C34.21,32.25 33.85,32.6 33.85,33.04L33.85,33.7C33.85,34.14 34.21,34.49 34.65,34.49Z" fill="#ffffff"/>
  <path d="M37.25,38.98L37.25,38.98L37.25,38.98L37.25,38.98L37.25,38.98C37.25,38.98 37.25,38.98 37.26,38.98L37.28,38.98L37.28,38.98C39.75,38.96 41.75,36.96 41.75,34.49L41.75,34.49L41.75,22.14C41.75,17.8 38.22,14.29 33.87,14.29L30.5,14.29L27.13,14.29C22.78,14.29 19.25,17.8 19.25,22.14L19.25,34.44L19.25,34.49L19.25,34.54L19.26,34.54C19.28,37 21.28,38.98 23.75,38.98L23.75,38.98L19.75,44.93C19.46,45.36 19.65,45.71 20.17,45.71L21.46,45.71C21.72,45.71 22.05,45.54 22.2,45.32L26.46,38.98L34.54,38.98L38.8,45.32C38.95,45.54 39.28,45.71 39.54,45.71L40.83,45.71C41.35,45.71 41.54,45.36 41.25,44.93L37.25,38.98ZM21,34.97L21,34.9L21,34.9L21,22.12C21,18.9 23.66,16.29 26.94,16.29L34.06,16.29C37.34,16.29 40,18.9 40,22.12L40,34.95L40,34.95C40,36.24 38.94,37.28 37.63,37.28L37.63,37.29L37.63,37.29L37.58,37.29L23.38,37.29L23.38,37.29C22.07,37.29 21.01,36.25 21,34.97Z" fill="#ffffff"/>
</svg>
