<?xml version="1.0" encoding="UTF-8" standalone="no"?>
<svg viewBox="0 0 512.0 512.0">
  <g transform="translate(100 100) scale(0.6 0.6)">
    <path d="M15,271h377c66.168,0 120,-53.832 120,-120c0,-49.626 -40.374,-90 -90,-90s-90,40.374 -90,90c0,33.084 26.916,60 60,60s60,-26.916 60,-60c0,-8.284 -6.716,-15 -15,-15s-15,6.716 -15,15c0,16.542 -13.458,30 -30,30s-30,-13.458 -30,-30c0,-33.084 26.916,-60 60,-60s60,26.916 60,60c0,49.626 -40.374,90 -90,90H15c-8.284,0 -15,6.716 -15,15S6.716,271 15,271z" fill="#ffffff"/>
    <path d="M226,301H15c-8.284,0 -15,6.716 -15,15s6.716,15 15,15h211c41.355,0 75,33.645 75,75c0,24.813 -20.187,45 -45,45s-45,-20.187 -45,-45c0,-8.271 6.729,-15 15,-15s15,6.729 15,15c0,8.284 6.716,15 15,15s15,-6.716 15,-15c0,-24.813 -20.187,-45 -45,-45s-45,20.187 -45,45c0,41.355 33.645,75 75,75s75,-33.645 75,-75C331,348.103 283.897,301 226,301z" fill="#ffffff"/>
    <path d="M15,211h91c8.284,0 15,-6.716 15,-15s-6.716,-15 -15,-15H15c-8.284,0 -15,6.716 -15,15S6.716,211 15,211z" fill="#ffffff"/>
    <path d="M136,391H15c-8.284,0 -15,6.716 -15,15s6.716,15 15,15h121c8.284,0 15,-6.716 15,-15S144.284,391 136,391z" fill="#ffffff"/>
  </g>
</svg>
