<?xml version="1.0" encoding="UTF-8" standalone="no"?>
<svg viewBox="0 0 60.0 60.0">
  <path d="M41.31,26.29L34.54,24.6L34.65,22.36C34.65,20.63 32.39,16 29.99,16C27.59,16 25.32,20.63 25.32,22.41L25.44,24.6L18.67,26.29C16.51,27.07 14.97,28.03 15,30.09C15.03,32.16 16.73,33.81 18.79,33.77L20.66,33.77L20.66,34.71C20.66,35.22 21.08,35.64 21.59,35.64C22.11,35.64 22.53,35.22 22.53,34.71L22.53,33.77L25.88,33.77L26.26,39.76L23.21,41.25C22.09,41.8 21.71,42.3 21.78,43.33C21.85,44.36 22.43,45.07 23.46,45L36.52,45C37.55,45.07 38.16,44.36 38.23,43.33C38.3,42.3 37.92,41.95 36.77,41.25L33.72,39.76L34.1,33.77L37.45,33.77L37.45,34.71C37.45,35.22 37.87,35.64 38.39,35.64C38.9,35.64 39.32,35.22 39.32,34.71L39.32,33.77L41.19,33.77C43.25,33.81 44.95,32.16 44.98,30.09C45.01,28.03 43.67,27.11 41.31,26.29ZM41.57,31.94L33.33,31.94C32.82,31.94 32.39,32.34 32.36,32.85L31.94,40.18C31.89,40.58 32.11,40.96 32.47,41.14L36.32,43.44C36.45,43.49 36.6,43.51 36.75,43.5L23.25,43.5C23.4,43.49 23.55,43.46 23.68,43.39L27.55,41.09C27.91,40.92 28.12,40.53 28.08,40.13L27.64,32.8C27.61,32.29 27.18,31.89 26.67,31.89L18.43,31.89C17.36,31.89 16.5,31.03 16.5,29.97C16.5,28.9 17.36,28.04 18.43,28.04C18.51,28.05 18.58,28.05 18.66,28.04L26.53,26.12C26.97,26.01 27.27,25.61 27.26,25.15L27.11,22.12C27.11,20.62 29.22,17.5 30,17.5C30.78,17.5 32.89,20.62 32.89,22.07L32.74,25.12C32.73,25.57 33.03,25.97 33.47,26.08L41.34,28C41.41,28.04 41.49,28.07 41.57,28.09C42.64,28.09 43.5,28.95 43.5,30.02C43.5,31.08 42.64,31.94 41.57,31.94ZM20.66,18.81C22.21,18.81 26.26,16.94 26.26,16.94C26.26,16.94 22.21,15.07 20.66,15.07C19.66,15.13 18.86,15.93 18.79,16.94C18.86,17.94 19.66,18.74 20.66,18.81ZM41.19,16.94C41.12,15.93 40.32,15.13 39.32,15.07C37.77,15.07 33.72,16.94 33.72,16.94C33.72,16.94 37.77,18.81 39.32,18.81C40.32,18.74 41.12,17.94 41.19,16.94Z" fill="#ffffff"/>
</svg>
