<?xml version="1.0" encoding="UTF-8" standalone="no"?>
<svg viewBox="0 0 60.0 60.0">
  <path d="M45.0068,32.8333L15.6534,32.8333C15.3493,32.8333 15.1065,32.3063 15.0051,32.0301C14.9115,31.7538 14.7633,31.1536 15.0051,30.9819L36.4669,15.9706C36.5839,15.8885 36.5969,15.6752 36.8802,15.8213C37.2779,15.8213 41.2284,16 42.4761,17.7545C42.8426,18.2772 43.2019,19.3454 42.6561,20.6445C41.4631,23.504 42.4197,24.4231 43.6986,25.9461C43.8545,26.1328 43.9518,26.2655 44.1156,26.4671C44.3963,26.8105 44.5411,27.0428 44.7984,27.3265C45.9057,28.5509 46.7744,29.6111 45.9166,32.0301C45.8231,32.3064 45.3109,32.8333 45.0068,32.8333ZM17.8123,31.1267L44.5042,31.1267C44.8707,29.8575 44.434,29.3348 43.5061,28.3045C43.2487,28.0208 42.9602,27.7072 42.6561,27.3265C42.5001,27.1324 42.3442,26.9457 42.1882,26.7665C40.8314,25.1464 39.5526,23.6233 41.0498,20.0321C41.3071,19.4199 41.2993,18.9421 41.042,18.5762C40.3947,17.6654 38.3127,17.3817 37.3692,17.3443L17.8123,31.1267Z" fill="#ffffff"/>
  <path d="M43.4161,38.2941L18.0365,38.2941C16.3506,38.2941 14.9706,37.0359 14.9706,35.483L14.9706,32.147C14.9706,31.7876 15.2843,31.5 15.6763,31.5L45.3237,31.5C45.7158,31.5 46.0294,31.7876 46.0294,32.147L46.0294,35.483C46.0294,37.0359 44.6572,38.2941 42.9713,38.2941L43.4161,38.2941ZM16.3899,32.8013L16.3899,35.4902C16.3899,36.3242 17.1269,36.6923 18.0365,36.6923L42.9714,36.6923C43.881,36.6923 44.4441,36.3242 44.4441,35.4902L44.4441,32.8013L16.3899,32.8013Z" fill="#ffffff"/>
  <path d="M20.2345,43.1471L19.4126,43.1471C18.5719,43.1471 17.8824,42.5492 17.8824,41.8202L17.8824,37.9788C17.8824,37.6184 18.2224,37.3235 18.638,37.3235L21.009,37.3235C21.4246,37.3235 21.7647,37.6184 21.7647,37.9788L21.7647,41.8202C21.7647,42.5491 21.0846,43.1471 20.2344,43.1471L20.2345,43.1471ZM19.3937,38.6341L19.3937,41.8202C19.3937,41.8284 19.4032,41.8366 19.4126,41.8366L20.2345,41.8366C20.2439,41.8366 20.2534,41.8284 20.2534,41.8202L20.2534,38.6341L19.3938,38.6341L19.3937,38.6341Z" fill="#ffffff"/>
  <path d="M29.9404,43.1471L29.1185,43.1471C28.2778,43.1471 27.5882,42.5492 27.5882,41.8202L27.5882,37.9788C27.5882,37.6184 27.9283,37.3235 28.3439,37.3235L30.7149,37.3235C31.1305,37.3235 31.4706,37.6184 31.4706,37.9788L31.4706,41.8202C31.4706,42.5491 30.781,43.1471 29.9403,43.1471L29.9404,43.1471ZM29.0997,38.6341L29.0997,41.8202C29.0997,41.8284 29.1091,41.8366 29.1186,41.8366L29.9404,41.8366C29.9498,41.8366 29.9593,41.8284 29.9593,41.8202L29.9593,38.6341L29.0997,38.6341L29.0997,38.6341Z" fill="#ffffff"/>
  <path d="M42.558,43.1471L41.7362,43.1471C40.8955,43.1471 40.2059,42.5492 40.2059,41.8202L40.2059,37.9788C40.2059,37.6184 40.546,37.3235 40.9616,37.3235L43.3325,37.3235C43.7482,37.3235 44.0882,37.6184 44.0882,37.9788L44.0882,41.8202C44.0882,42.5491 43.3987,43.1471 42.558,43.1471L42.558,43.1471ZM41.7173,38.6341L41.7173,41.8202C41.7173,41.8284 41.7268,41.8366 41.7362,41.8366L42.558,41.8366C42.5675,41.8366 42.5769,41.8284 42.5769,41.8202L42.5769,38.6341L41.7174,38.6341L41.7173,38.6341Z" fill="#ffffff"/>
  <path d="M35.975,24L35.975,24A0.975,0.975 0,0 1,36.95 24.975L36.95,31.025A0.975,0.975 0,0 1,35.975 32L35.975,32A0.975,0.975 0,0 1,35 31.025L35,24.975A0.975,0.975 0,0 1,35.975 24z" fill="#ffffff"/>
</svg>
