<?xml version="1.0" encoding="UTF-8" standalone="no"?>
<svg viewBox="0 0 60.0 60.0">
  <path d="M37.0933,20.7335C36.9573,21.0822 36.5715,21.2519 36.2317,21.1124C35.8918,20.9729 35.7264,20.5771 35.8624,20.2284L36.5252,18.5282C36.6612,18.1795 37.047,18.0098 37.3869,18.1493C37.7267,18.2888 37.8921,18.6846 37.7561,19.0333L37.0933,20.7335Z" fill="#ffffff"/>
  <path d="M41.7332,20.7335C41.5972,21.0822 41.2115,21.2519 40.8716,21.1124C40.5317,20.9729 40.3664,20.5771 40.5023,20.2284L41.1652,18.5282C41.3011,18.1795 41.6869,18.0098 42.0268,18.1493C42.3667,18.2888 42.532,18.6846 42.396,19.0333L41.7332,20.7335Z" fill="#ffffff"/>
  <path d="M46.3511,20.933C46.2151,21.2817 45.8294,21.4513 45.4895,21.3118C45.1496,21.1723 44.9843,20.7766 45.1202,20.4278L45.7831,18.7277C45.919,18.3789 46.3048,18.2093 46.6447,18.3488C46.9846,18.4883 47.1499,18.8841 47.014,19.2328L46.3511,20.933Z" fill="#ffffff"/>
  <path d="M39.4266,26.4002C39.2906,26.7489 38.9049,26.9185 38.565,26.779C38.2251,26.6395 38.0598,26.2438 38.1957,25.895L38.8586,24.1949C38.9945,23.8461 39.3803,23.6765 39.7202,23.816C40.0601,23.9555 40.2254,24.3513 40.0894,24.7L39.4266,26.4002Z" fill="#ffffff"/>
  <path d="M44.0665,26.4002C43.9306,26.7489 43.5448,26.9185 43.2049,26.779C42.865,26.6395 42.6997,26.2438 42.8357,25.895L43.4985,24.1949C43.6345,23.8461 44.0202,23.6765 44.3601,23.816C44.7,23.9555 44.8653,24.3513 44.7294,24.7L44.0665,26.4002Z" fill="#ffffff"/>
  <path d="M48.6844,26.5996C48.5485,26.9484 48.1627,27.118 47.8228,26.9785C47.4829,26.839 47.3176,26.4432 47.4536,26.0945L48.1164,24.3943C48.2524,24.0456 48.6381,23.876 48.978,24.0155C49.3179,24.155 49.4832,24.5507 49.3473,24.8995L48.6844,26.5996Z" fill="#ffffff"/>
  <path d="M43.8046,15.633C43.6686,15.9817 43.2829,16.1513 42.943,16.0118C42.6031,15.8724 42.4378,15.4766 42.5737,15.1279L43.2366,13.4277C43.3725,13.079 43.7583,12.9093 44.0982,13.0488C44.4381,13.1883 44.6034,13.5841 44.4674,13.9328L43.8046,15.633Z" fill="#ffffff"/>
  <path d="M34.359,15.633C34.2231,15.9817 33.8373,16.1513 33.4974,16.0118C33.1575,15.8724 32.9922,15.4766 33.1281,15.1279L33.791,13.4277C33.9269,13.079 34.3127,12.9093 34.6526,13.0488C34.9925,13.1883 35.1578,13.5841 35.0219,13.9328L34.359,15.633Z" fill="#ffffff"/>
  <path d="M38.999,15.633C38.863,15.9817 38.4772,16.1513 38.1373,16.0118C37.7974,15.8724 37.6321,15.4766 37.7681,15.1279L38.4309,13.4277C38.5669,13.079 38.9526,12.9093 39.2925,13.0488C39.6324,13.1883 39.7978,13.5841 39.6618,13.9328L38.999,15.633Z" fill="#ffffff"/>
  <path d="M45.47,39.6169C45.47,39.6169 44.4265,39.4657 43.3085,39.3901C41.9669,39.3144 40.5507,39.3144 39.2091,39.3901C38.0911,39.4657 37.0476,39.6169 37.0476,39.6169L36.0041,42.2638L35.3333,42.9444L35.3333,45.5156L36.0041,46.2718L36.2277,46.2718L36.2277,47.4062C36.2277,47.4062 36.3023,47.5574 36.4513,47.6331C36.5259,47.6331 37.1222,47.7087 37.4948,47.6331C37.6439,47.6331 37.7184,47.4818 37.7184,47.4062L37.7184,46.2718L44.9482,46.2718L44.9482,47.4062C44.9482,47.4062 45.0228,47.6331 45.1718,47.6331C45.5445,47.7087 46.1408,47.6331 46.2153,47.6331L46.4389,47.4062L46.4389,46.2718L46.6625,46.2718L47.3333,45.5156L47.3333,42.9444L46.6625,42.2638L45.47,39.6169ZM37.4985,42.4263L38.2554,40.5772C40.817,40.3923 41.6903,40.3923 44.3101,40.5772L45.0087,42.4263C42.2725,42.303 40.2348,42.303 37.4985,42.4263Z" fill="none"/>
  <path d="M37.8333,44.1667m-1,0a1,1 0,1 1,2 0a1,1 0,1 1,-2 0" fill="#ffffff"/>
  <path d="M44.8333,44.1667m-1,0a1,1 0,1 1,2 0a1,1 0,1 1,-2 0" fill="#ffffff"/>
  <path d="M11,28.4533C11,26.8529 12.2627,25.5561 13.821,25.5561L13.821,22.6588C13.821,21.8618 14.4493,21.2102 15.2316,21.2102L16.6421,21.2102L16.6421,15.4285C16.6421,15.0299 16.9562,14.7073 17.3504,14.7073C17.7385,14.7073 18.0526,15.0299 18.0526,15.4285L18.0526,21.2166L19.4631,21.2166C20.2392,21.2166 20.8736,21.8618 20.8736,22.6652L20.8736,25.5624C22.432,25.5624 23.6947,26.8592 23.6947,28.4596L23.6947,34.2477L28.6284,34.2477L28.6284,29.9082L23.6536,29.9082L23.6536,27.7385L29.5708,27.7385L29.5708,29.9082L29.6098,48L11,48L11,28.4533ZM18.7486,22.6652L15.9276,22.6652C15.5395,22.6652 15.2254,22.9878 15.2254,23.3863L15.2254,25.5561L19.4508,25.5561L19.4508,23.3863C19.4508,22.9878 19.1367,22.6652 18.7486,22.6652ZM22.2718,28.4533C22.2718,27.6562 21.6436,27.0047 20.8613,27.0047L13.8149,27.0047C13.0388,27.0047 12.4044,27.6499 12.4044,28.4533L12.4044,46.5451L22.2718,46.5451L22.2718,28.4533ZM28.6161,35.69L23.6823,35.69L23.6823,46.5451L28.6161,46.5451L28.6161,35.69ZM25.795,37.8597L26.4972,37.8597C26.8853,37.8597 27.1994,38.1824 27.1994,38.5809L27.1994,39.302C27.1994,39.7006 26.8853,40.0232 26.4972,40.0232L25.795,40.0232C25.407,40.0232 25.0929,39.7006 25.0929,39.302L25.0929,38.5809C25.0929,38.1824 25.407,37.8597 25.795,37.8597ZM25.795,31.0305L26.4972,31.0305C26.8853,31.0305 27.1994,31.3531 27.1994,31.7516L27.1994,32.4728C27.1994,32.8713 26.8853,33.1939 26.4972,33.1939L25.795,33.1939C25.407,33.1939 25.0929,32.8713 25.0929,32.4728L25.0929,31.7516C25.0929,31.3531 25.407,31.0305 25.795,31.0305ZM25.795,42.2056L26.4972,42.2056C26.8853,42.2056 27.1994,42.5282 27.1994,42.9267L27.1994,43.6479C27.1994,44.0464 26.8853,44.369 26.4972,44.369L25.795,44.369C25.407,44.369 25.0929,44.0464 25.0929,43.6479L25.0929,42.9267C25.0929,42.5282 25.407,42.2056 25.795,42.2056ZM19.4508,44.3753L18.7486,44.3753C18.3606,44.3753 18.0464,44.0527 18.0464,43.6542L18.0464,42.933C18.0464,42.5345 18.3606,42.2119 18.7486,42.2119L19.4508,42.2119C19.8388,42.2119 20.153,42.5345 20.153,42.933L20.153,43.6542C20.1591,44.0527 19.845,44.3753 19.4508,44.3753ZM18.7486,40.0358C18.3606,40.0358 18.0464,39.7132 18.0464,39.3147L18.0464,38.5935C18.0464,38.195 18.3606,37.8724 18.7486,37.8724L19.4508,37.8724C19.8388,37.8724 20.153,38.195 20.153,38.5935L20.153,39.3147C20.1591,39.7069 19.845,40.0358 19.4508,40.0358L18.7486,40.0358ZM19.4508,35.69L18.7486,35.69C18.3606,35.69 18.0464,35.3674 18.0464,34.9689L18.0464,34.2477C18.0464,33.8492 18.3606,33.5266 18.7486,33.5266L19.4508,33.5266C19.8388,33.5266 20.153,33.8492 20.153,34.2477L20.153,34.9689C20.1591,35.3674 19.845,35.69 19.4508,35.69ZM19.4508,31.3505L18.7486,31.3505C18.3606,31.3505 18.0464,31.0279 18.0464,30.6294L18.0464,29.9082C18.0464,29.5097 18.3606,29.1871 18.7486,29.1871L19.4508,29.1871C19.8388,29.1871 20.153,29.5097 20.153,29.9082L20.153,30.6294C20.1591,31.0279 19.845,31.3505 19.4508,31.3505ZM15.9276,44.3753L15.2254,44.3753C14.8373,44.3753 14.5232,44.0527 14.5232,43.6542L14.5232,42.933C14.5232,42.5345 14.8373,42.2119 15.2254,42.2119L15.9276,42.2119C16.3156,42.2119 16.6298,42.5345 16.6298,42.933L16.6298,43.6542C16.6359,44.0527 16.3218,44.3753 15.9276,44.3753ZM15.9276,40.0358L15.2254,40.0358C14.8373,40.0358 14.5232,39.7132 14.5232,39.3147L14.5232,38.5935C14.5232,38.195 14.8373,37.8724 15.2254,37.8724L15.9276,37.8724C16.3156,37.8724 16.6298,38.195 16.6298,38.5935L16.6298,39.3147C16.6359,39.7069 16.3218,40.0358 15.9276,40.0358ZM15.9276,35.69L15.2254,35.69C14.8373,35.69 14.5232,35.3674 14.5232,34.9689L14.5232,34.2477C14.5232,33.8492 14.8373,33.5266 15.2254,33.5266L15.9276,33.5266C16.3156,33.5266 16.6298,33.8492 16.6298,34.2477L16.6298,34.9689C16.6359,35.3674 16.3218,35.69 15.9276,35.69ZM15.9276,31.3505L15.2254,31.3505C14.8373,31.3505 14.5232,31.0279 14.5232,30.6294L14.5232,29.9082C14.5232,29.5097 14.8373,29.1871 15.2254,29.1871L15.9276,29.1871C16.3156,29.1871 16.6298,29.5097 16.6298,29.9082L16.6298,30.6294C16.6359,31.0279 16.3218,31.3505 15.9276,31.3505Z" fill="#ffffff"/>
</svg>
