<?xml version="1.0" encoding="UTF-8" standalone="no"?>
<svg viewBox="0 0 60.0 60.0">
  <path d="M45.4992,39.2149C44.4391,39.2149 43.5416,37.2868 42.2364,37.2868C40.9313,37.2868 40.2379,39.2149 38.3204,39.2149C36.403,39.2149 35.6898,37.2868 34.4051,37.2868C33.1204,37.2868 31.9983,39.2149 30.4891,39.2149C28.98,39.2149 27.8786,37.2868 26.5735,37.2868C25.2684,37.2868 24.5549,39.2149 22.6577,39.2149C20.7604,39.2149 19.8636,37.2868 18.7417,37.2868C17.6199,37.2868 15.8867,39.2149 15.4791,39.2149C15.0715,39.2149 14.6446,38.8523 15.4791,37.9281C16.1995,37.1324 17.4167,36 18.7419,36C20.0671,36 21.2101,37.9281 22.6578,37.9281C24.1056,37.9281 25.0037,36 26.5738,36C28.1439,36 28.8988,37.9281 30.4895,37.9281C32.0801,37.9281 32.8347,36 34.4054,36C35.9762,36 36.8528,37.9281 38.3208,37.9281C39.7887,37.9281 40.6458,36 42.2367,36C43.8276,36 44.9064,37.432 45.4995,37.9281C46.0502,38.3911 46.2743,39.2149 45.4992,39.2149ZM18.7419,41.7866C20.068,41.7866 21.2101,43.7147 22.6578,43.7147C24.1056,43.7147 25.0037,41.7866 26.5738,41.7866C28.1439,41.7866 28.8988,43.7147 30.4895,43.7147C32.0801,43.7147 32.8347,41.7866 34.4054,41.7866C35.9762,41.7866 36.8528,43.7147 38.3208,43.7147C39.7887,43.7147 40.6458,41.7866 42.2364,41.7866C43.827,41.7866 44.9061,43.2168 45.4992,43.7147C46.0502,44.1777 46.2743,45 45.4992,45C44.4391,45 43.5416,43.0719 42.2364,43.0719C40.9312,43.0719 40.2379,45 38.3204,45C36.403,45 35.6898,43.0719 34.4051,43.0719C33.1204,43.0719 31.9983,45 30.4891,45C28.98,45 27.8789,43.0708 26.5738,43.0708C25.2687,43.0708 24.5549,44.9988 22.6577,44.9988C20.7604,44.9988 19.8636,43.0707 18.7417,43.0707C17.6199,43.0707 15.8867,44.9988 15.4791,44.9988C15.0715,44.9988 14.644,44.6361 15.4791,43.7135C16.1995,42.9176 17.4162,41.7866 18.7419,41.7866ZM24.4649,24.8265C22.506,25.1719 20.4986,24.4331 19.23,22.8987C18.3152,21.7533 17.8709,20.3112 18.0189,18.8596C18.1628,17.385 18.8815,16.0704 20,15.1367C20.6033,14.6502 21.277,14.2938 22.0253,14.0906C22.2056,14.0351 22.3832,14.0988 22.5038,14.2438C22.6244,14.3889 22.6339,14.5773 22.5661,14.7318C21.7389,16.3743 21.9419,18.3342 23.0899,19.7235C24.1483,21.0099 25.8006,21.6213 27.4369,21.3328C27.5751,21.3084 27.7364,21.28 27.8707,21.2326C28.0509,21.177 28.2285,21.2407 28.3491,21.3858C28.4698,21.5308 28.4792,21.7192 28.4114,21.8737C28.0561,22.554 27.5924,23.1585 26.9891,23.645C26.2679,24.2711 25.3867,24.664 24.4649,24.8265ZM21.6306,15.172C21.1787,15.3953 20.8754,15.5763 20.7209,15.7152C19.734,16.4873 19.1244,17.5996 18.9975,18.8182C18.8706,20.0367 19.2295,21.2414 20.0333,22.2002C21.1157,23.4926 22.8102,24.1029 24.4913,23.8065C25.2727,23.6687 26.0409,23.3179 26.6621,22.8256C26.8981,22.6405 27.3004,22.2383 27.5045,22.0109C25.6722,22.1426 23.5108,21.4613 22.3607,20.0612C21.5623,19.1334 21.3189,17.5037 21.6306,15.172ZM37.5391,33.0411C37.3235,33.0411 37.2806,28.0771 41.9894,27.4771C40.9866,27.4771 37.4283,25.9865 36.1634,30.388C36.168,30.388 31.9947,29.0052 28.9894,33.6223C30.5758,33.0411 34.7046,30.327 37.5391,33.0411Z" fill="#ffffff"/>
</svg>
